<?xml version="1.0" standalone="no"?>
<!DOCTYPE svg PUBLIC "-//W3C//DTD SVG 1.1//EN" "http://www.w3.org/Graphics/SVG/1.1/DTD/svg11.dtd" >
<svg>
<metadata>
Created by FontForge 20120731 at Wed Jul 31 17:54:49 2019
 By www
Copyright 1990-2003 Bitstream Inc. All rights reserved.
</metadata>
<defs>
<font id="NewsGothic$BTW03-It" horiz-adv-x="1024" >
  <font-face 
    font-family="NewsGothic$BTW03-It"
    font-weight="400"
    font-style="italic"
    font-stretch="normal"
    units-per-em="2048"
    panose-1="2 11 5 3 2 2 3 9 2 4"
    ascent="1556"
    descent="-492"
    x-height="1067"
    cap-height="1481"
    bbox="-338 -483 2494 1964"
    underline-thickness="50"
    underline-position="-198"
    slope="-12"
    unicode-range="U+0020-F002"
  />
<missing-glyph horiz-adv-x="1229" 
d="M102 -362v1806h1024v-1806h-1024zM217 -248h795v1577h-795v-1577z" />
    <glyph glyph-name=".notdef" horiz-adv-x="1229" 
d="M102 -362v1806h1024v-1806h-1024zM217 -248h795v1577h-795v-1577z" />
    <glyph glyph-name="glyph1" horiz-adv-x="0" 
 />
    <glyph glyph-name="glyph2" horiz-adv-x="616" 
 />
    <glyph glyph-name="space" unicode=" " horiz-adv-x="616" 
 />
    <glyph glyph-name="exclam" unicode="!" horiz-adv-x="633" 
d="M584 1481l-271 -1020h-120l184 1020h207zM47 0l49 217h209l-49 -217h-209z" />
    <glyph glyph-name="quotedbl" unicode="&#x22;" horiz-adv-x="590" 
d="M496 1434v-553h-119v553h119zM211 1434v-553h-117v553h117z" />
    <glyph glyph-name="numbersign" unicode="#" horiz-adv-x="1575" 
d="M973 862h-264l-95 -272h263zM922 1456l-166 -471h260l168 471h143l-164 -471h307l-43 -123h-311l-94 -272h330l-43 -123h-332l-166 -469h-145l168 469h-265l-168 -469h-143l166 469h-320l43 123h320l96 272h-342l43 123h344l168 471h146z" />
    <glyph glyph-name="dollar" unicode="$" horiz-adv-x="1233" 
d="M592 856l113 502q-5 0 -13 1q-40 3 -55 3q-114 0 -185 -69.5t-71 -178.5q0 -82 49 -142.5t162 -115.5zM547 142q19 -4 36 -5.5t33 -1.5q129 0 206 70t77 184q0 86 -52.5 147.5t-180.5 122.5zM354 -201l52 228q-126 35 -215.5 113t-133.5 192l129 57q51 -97 112.5 -154.5
t135.5 -76.5l123 551q-162 83 -237.5 178t-75.5 215q0 170 112 276.5t291 106.5q31 0 49 -1t35 -3l31 131h119l-37 -154q96 -25 177 -96.5t138 -183.5l-123 -66q-45 89 -100.5 145t-118.5 76l-119 -528q178 -81 259 -175.5t81 -221.5q0 -179 -116 -290.5t-301 -111.5
q-16 0 -36.5 1.5t-64.5 6.5l-47 -215h-119z" />
    <glyph glyph-name="percent" unicode="%" horiz-adv-x="1741" 
d="M1077 315q0 -88 61 -149.5t148 -61.5q88 0 149.5 61.5t61.5 149.5q0 89 -60.5 149t-150.5 60q-89 0 -149 -60t-60 -149zM948 315q0 143 98.5 240.5t241.5 97.5t240.5 -97.5t97.5 -240.5q0 -142 -98 -241t-240 -99t-241 99t-99 241zM385 -25l846 1528h112l-843 -1528h-115
zM104 1163q0 143 98 241.5t240 98.5q143 0 241.5 -98.5t98.5 -241.5q0 -142 -98.5 -240t-241.5 -98q-142 0 -240 98t-98 240zM231 1163q0 -87 62 -149t149 -62q88 0 149.5 61.5t61.5 149.5q0 89 -61 150t-150 61t-150 -61t-61 -150z" />
    <glyph glyph-name="ampersand" unicode="&#x26;" horiz-adv-x="1346" 
d="M555 918q116 65 174.5 141.5t58.5 161.5q0 72 -38 114.5t-103 42.5q-73 0 -118.5 -54t-45.5 -142q0 -55 15.5 -114t56.5 -150zM813 256q-91 103 -173 220t-155 249q-127 -66 -190.5 -149t-63.5 -185q0 -114 84 -192t209 -78q71 0 147.5 35.5t141.5 99.5zM928 150
q-115 -91 -217.5 -133t-208.5 -42q-192 0 -311 115t-119 295q0 145 89.5 265.5t256.5 197.5q-46 98 -69 185t-23 157q0 136 89 225.5t226 89.5q134 0 216.5 -80.5t82.5 -212.5q0 -117 -79 -219t-238 -192q59 -109 135.5 -215.5t167.5 -206.5q48 67 81.5 150.5t53.5 185.5
l151 -39q-15 -101 -60.5 -203t-119.5 -203q55 -51 109 -82t112 -45v-163q-89 9 -168 50t-157 120z" />
    <glyph glyph-name="quotesingle" unicode="'" horiz-adv-x="305" 
d="M211 1434v-553h-117v553h117z" />
    <glyph glyph-name="parenleft" unicode="(" horiz-adv-x="674" 
d="M264 -172q-70 157 -104.5 314.5t-34.5 318.5q0 320 126.5 584t373.5 460h180q-273 -217 -405 -479t-132 -588q0 -156 34 -306.5t104 -303.5h-142z" />
    <glyph glyph-name="parenright" unicode=")" horiz-adv-x="674" 
d="M383 1505q70 -156 104.5 -314.5t34.5 -320.5q0 -319 -126.5 -582.5t-372.5 -459.5h-179q274 218 405.5 479t131.5 586q0 154 -34.5 306t-104.5 306h141z" />
    <glyph glyph-name="asterisk" unicode="*" 
d="M567 999l-172 -294l-129 96l228 252l-330 75l47 150l311 -139l-24 342h137l-23 -342l310 139l49 -150l-332 -75l229 -252l-131 -96z" />
    <glyph glyph-name="plus" unicode="+" horiz-adv-x="1706" 
d="M913 1221v-551h539v-117h-539v-553h-118v553h-541v117h541v551h118z" />
    <glyph glyph-name="comma" unicode="," horiz-adv-x="616" 
d="M-70 -309l185 309h-76l49 223h209l-51 -233l-211 -299h-105z" />
    <glyph glyph-name="hyphen" unicode="-" horiz-adv-x="764" 
d="M70 467l30 137h498l-31 -137h-497z" />
    <glyph glyph-name="period" unicode="." horiz-adv-x="616" 
d="M39 0l49 223h209l-49 -223h-209z" />
    <glyph glyph-name="slash" unicode="/" horiz-adv-x="573" 
d="M512 1503h115l-598 -1693h-115z" />
    <glyph glyph-name="zero" unicode="0" horiz-adv-x="1233" 
d="M705 1378q-98 0 -176 -51.5t-132 -150.5q-79 -147 -124.5 -324t-45.5 -340q0 -200 74.5 -304t216.5 -104q97 0 178 56.5t138 163.5q78 146 119.5 317t41.5 342q0 197 -73 296t-217 99zM74 506q0 210 50.5 403t143.5 342q81 129 189.5 193.5t242.5 64.5q225 0 338 -141
t113 -422q0 -211 -57 -404.5t-162 -342.5q-78 -111 -183.5 -169.5t-228.5 -58.5q-213 0 -329.5 140t-116.5 395z" />
    <glyph glyph-name="one" unicode="1" horiz-adv-x="1233" 
d="M137 0l31 133h256l266 1190l-289 -37l27 103q94 25 176.5 54t151.5 60h129l-307 -1370h268l-33 -133h-676z" />
    <glyph glyph-name="two" unicode="2" horiz-adv-x="1233" 
d="M43 0q1 146 114 294t336 298q38 26 111 72q154 97 206 147q66 65 98.5 133t32.5 141q0 125 -80 205t-205 80q-116 0 -197.5 -75.5t-137.5 -235.5l-150 43q71 202 194 300.5t304 98.5q193 0 312.5 -115t119.5 -299q0 -88 -30 -168.5t-89 -148.5q-84 -96 -342 -247
q-42 -25 -64 -38q-130 -77 -222 -169.5t-128 -182.5h770l-18 -133h-935z" />
    <glyph glyph-name="three" unicode="3" horiz-adv-x="1233" 
d="M49 281l131 75q71 -124 156 -181.5t196 -57.5q150 0 240 88t90 233t-114.5 223.5t-327.5 80.5l28 134q30 -4 57 -7t48 -3q185 0 285 70t100 199q0 108 -74 172.5t-198 64.5q-92 0 -168 -46.5t-131 -137.5l-125 82q70 114 177 171.5t251 57.5q197 0 311.5 -98t114.5 -266
q0 -142 -76.5 -233t-224.5 -126q104 -36 167.5 -131.5t63.5 -216.5q0 -200 -135.5 -324t-358.5 -124q-167 0 -291 77t-192 224z" />
    <glyph glyph-name="four" unicode="4" horiz-adv-x="1233" 
d="M645 -25l84 375h-700l24 123l854 1006h213l-221 -1000h234l-25 -129h-240l-82 -375h-141zM221 479h539l188 862z" />
    <glyph glyph-name="five" unicode="5" horiz-adv-x="1233" 
d="M61 281l138 73q62 -124 143 -182.5t190 -58.5q165 0 265 121t100 319q0 145 -79 229t-214 84q-89 0 -165.5 -43.5t-116.5 -117.5l-134 32l168 742h717l-24 -133h-588l-92 -424q58 40 121.5 59.5t132.5 19.5q194 0 314 -124.5t120 -327.5q0 -114 -40 -225t-112 -195
q-65 -76 -159 -115t-211 -39q-168 0 -285.5 76t-188.5 230z" />
    <glyph glyph-name="six" unicode="6" horiz-adv-x="1233" 
d="M313 801q82 68 162 100.5t164 32.5q198 0 318 -120t120 -318q0 -229 -133 -375t-344 -146q-232 0 -357.5 148t-125.5 422q0 195 54.5 379.5t154.5 326.5q87 123 205.5 187.5t256.5 64.5q113 0 206 -43.5t184 -138.5l-107 -98q-72 78 -141 114.5t-146 36.5
q-173 0 -294 -147t-177 -426zM285 608q-1 -7 -2 -19q-7 -69 -7 -95q0 -172 85.5 -275.5t224.5 -103.5q146 0 240 108t94 277q0 131 -83 215t-212 84q-85 0 -171 -48.5t-169 -142.5z" />
    <glyph glyph-name="seven" unicode="7" horiz-adv-x="1233" 
d="M193 -25l759 1371h-721l33 133h899l-24 -97l-762 -1407h-184z" />
    <glyph glyph-name="eight" unicode="8" horiz-adv-x="1233" 
d="M455 801q-107 69 -157 148t-50 177q0 171 114.5 274t303.5 103q215 0 341 -102t126 -275q0 -133 -78 -221t-242 -141q129 -71 191.5 -163t62.5 -210q0 -191 -130 -303.5t-353 -112.5q-237 0 -373.5 106.5t-136.5 289.5q0 159 96 267.5t285 162.5zM614 702
q-177 -25 -280 -114.5t-103 -216.5q0 -112 94 -186t238 -74q157 0 250.5 73.5t93.5 196.5q0 102 -75.5 185t-217.5 136zM657 852q159 34 241.5 107t82.5 182q0 107 -84 170t-229 63q-124 0 -195.5 -61.5t-71.5 -167.5q0 -90 57 -156t199 -137z" />
    <glyph glyph-name="nine" unicode="9" horiz-adv-x="1233" 
d="M909 684q-83 -69 -162.5 -102t-162.5 -33q-199 0 -320 120.5t-121 317.5q0 229 133.5 374.5t344.5 145.5q233 0 358 -147t125 -422q0 -197 -54 -381t-153 -326q-88 -123 -206 -187t-257 -64q-112 0 -205.5 43.5t-183.5 138.5l105 98q71 -78 141 -114.5t147 -36.5
q173 0 294 147.5t177 427.5zM938 874q1 8 2 20q6 69 6 95q0 171 -85.5 275t-223.5 104q-146 0 -240 -108t-94 -277q0 -131 82.5 -215t212.5 -84q84 0 170.5 48.5t169.5 141.5z" />
    <glyph glyph-name="colon" unicode=":" horiz-adv-x="633" 
d="M45 0l49 223h209l-49 -223h-209zM176 588l47 217h209l-47 -217h-209z" />
    <glyph glyph-name="semicolon" unicode=";" horiz-adv-x="633" 
d="M170 588l47 217h207l-47 -217h-207zM-72 -309l187 309h-78l51 223h209l-51 -233l-211 -299h-107z" />
    <glyph glyph-name="less" unicode="&#x3c;" horiz-adv-x="1706" 
d="M1442 1018l-1000 -408l1000 -405v-129l-1178 483v103l1178 483v-127z" />
    <glyph glyph-name="equal" unicode="=" horiz-adv-x="1706" 
d="M1452 477v-117h-1198v117h1198zM1452 860v-117h-1198v117h1198z" />
    <glyph glyph-name="greater" unicode="&#x3e;" horiz-adv-x="1706" 
d="M1442 662v-103l-1178 -483v129l1000 405l-1000 408v127z" />
    <glyph glyph-name="question" unicode="?" horiz-adv-x="899" 
d="M274 471q17 117 61 212t114 165l54 54q169 165 169 294q0 79 -45 124.5t-123 45.5q-63 0 -109.5 -32.5t-87.5 -106.5l-133 63q56 101 141.5 153t196.5 52q147 0 238.5 -86.5t91.5 -224.5q0 -165 -209 -359l-12 -12q-108 -100 -150.5 -175t-52.5 -167h-144zM147 0l50 217
h209l-48 -217h-211z" />
    <glyph glyph-name="at" unicode="@" horiz-adv-x="2048" 
d="M1292 844l58 121h110l-141 -568q-6 -24 -9 -44t-3 -36q0 -44 27.5 -67t82.5 -23q45 0 100 24t103 64q89 76 139.5 196.5t50.5 254.5q0 266 -195.5 428t-518.5 162q-168 0 -312.5 -52t-259.5 -153q-140 -122 -211 -282.5t-71 -354.5q0 -173 60.5 -304t186.5 -230
q101 -81 240 -124.5t295 -43.5q172 0 334.5 48.5t296.5 139.5l45 -66q-147 -109 -313 -165t-347 -56q-191 0 -348 46.5t-276 138.5q-153 117 -228 272t-75 352q0 163 50.5 309t149.5 269q146 176 349.5 267t453.5 91q165 0 311 -43.5t248 -124.5q129 -99 195.5 -230
t66.5 -282q0 -169 -62.5 -308.5t-182.5 -236.5q-69 -55 -148.5 -83.5t-163.5 -28.5q-99 0 -148.5 39t-49.5 116q0 3 1 11t1 12q-51 -87 -127 -132.5t-170 -45.5q-153 0 -233.5 85t-80.5 247q0 230 137 389t332 159q91 0 153.5 -39.5t96.5 -117.5zM1202 473l60 242
q-17 90 -72 140t-135 50q-146 0 -244 -131.5t-98 -327.5q0 -110 51 -169.5t145 -59.5q102 0 183.5 70.5t109.5 185.5z" />
    <glyph glyph-name="A" unicode="A" horiz-adv-x="1237" 
d="M397 604h420l-63 754h-11zM-53 0l700 1481h242l127 -1481h-158l-35 467h-489l-213 -467h-174z" />
    <glyph glyph-name="B" unicode="B" horiz-adv-x="1341" 
d="M391 840h260q183 0 283 77t100 218q0 108 -77 159.5t-240 51.5h-213zM233 141h285q239 0 342 75.5t103 246.5q0 121 -85 182.5t-251 61.5h-267zM37 0l334 1481h348q242 0 359.5 -84.5t117.5 -257.5q0 -137 -73.5 -234t-202.5 -131l-2 -18q91 -19 149.5 -105t58.5 -202
q0 -105 -42 -195.5t-117 -149.5q-72 -56 -164.5 -80t-259.5 -24h-506z" />
    <glyph glyph-name="C" unicode="C" horiz-adv-x="1237" 
d="M963 406l133 -82q-99 -180 -225.5 -267.5t-286.5 -87.5q-243 0 -373.5 148t-130.5 424q0 202 63 395.5t176 339.5q88 114 200.5 171.5t246.5 57.5q201 0 314.5 -108.5t150.5 -335.5l-158 -27q-25 168 -99 248t-204 80q-106 0 -195 -53.5t-153 -155.5
q-81 -132 -127.5 -298t-46.5 -325q0 -197 87.5 -307t244.5 -110q109 0 206.5 74.5t176.5 218.5z" />
    <glyph glyph-name="D" unicode="D" horiz-adv-x="1356" 
d="M223 141h201q179 0 276 31.5t177 106.5q102 95 164.5 260.5t62.5 345.5q0 224 -124.5 340t-365.5 116h-125zM31 0l329 1481h222q346 0 515 -145.5t169 -444.5q0 -224 -74 -413.5t-209 -313.5q-97 -89 -212.5 -126.5t-352.5 -37.5h-387z" />
    <glyph glyph-name="E" unicode="E" horiz-adv-x="1124" 
d="M37 0l328 1481h761l-28 -138h-602l-111 -501h498l-31 -135h-498l-125 -568h711l-31 -139h-872z" />
    <glyph glyph-name="F" unicode="F" horiz-adv-x="1118" 
d="M47 0l328 1481h760l-29 -138h-602l-111 -501h498l-29 -135h-500l-157 -707h-158z" />
    <glyph glyph-name="G" unicode="G" horiz-adv-x="1352" 
d="M1036 0h-141l27 137q-69 -83 -159.5 -123.5t-205.5 -40.5q-218 0 -346.5 149.5t-128.5 405.5q0 189 58.5 382.5t160.5 340.5q87 126 205.5 190t261.5 64q200 0 325 -114t146 -318l-158 -18q-15 142 -103 225.5t-222 83.5q-102 0 -188 -55.5t-152 -165.5
q-78 -129 -124 -298t-46 -325q0 -182 89.5 -292.5t233.5 -110.5q169 0 285.5 122t138.5 324h-342l31 139h508z" />
    <glyph glyph-name="H" unicode="H" horiz-adv-x="1464" 
d="M37 0l328 1481h159l-141 -643h741l144 643h159l-327 -1481h-160l154 700h-740l-157 -700h-160z" />
    <glyph glyph-name="I" unicode="I" horiz-adv-x="563" 
d="M37 0l328 1481h163l-327 -1481h-164z" />
    <glyph glyph-name="J" unicode="J" horiz-adv-x="901" 
d="M-90 170l133 82q24 -65 68 -99t102 -34q92 0 141.5 63t89.5 252l224 1047h163l-223 -1069q-50 -244 -138 -340.5t-251 -96.5q-114 0 -194 50.5t-115 144.5z" />
    <glyph glyph-name="K" unicode="K" horiz-adv-x="1233" 
d="M37 0l336 1481h162l-162 -733l725 733h194l-581 -582l327 -899h-172l-280 782l-269 -258l-116 -524h-164z" />
    <glyph glyph-name="L" unicode="L" horiz-adv-x="1006" 
d="M37 0l328 1481h165l-297 -1340h699l-31 -141h-864z" />
    <glyph glyph-name="M" unicode="M" horiz-adv-x="1688" 
d="M39 0l336 1481h239l101 -1235l678 1235h258l-334 -1481h-158l301 1331l-733 -1331h-121l-108 1331l-301 -1331h-158z" />
    <glyph glyph-name="N" unicode="N" horiz-adv-x="1464" 
d="M35 0l336 1481h223l410 -1213l266 1213h162l-334 -1481h-144l-456 1319l-301 -1319h-162z" />
    <glyph glyph-name="O" unicode="O" horiz-adv-x="1352" 
d="M772 1370q-108 0 -205.5 -60t-167.5 -171q-74 -119 -117.5 -281.5t-43.5 -322.5q0 -197 92 -310.5t250 -113.5q104 0 198.5 55t161.5 156q80 119 127 282.5t47 325.5q0 204 -91.5 322t-250.5 118zM80 553q0 181 51 355t143 309q97 142 227.5 216t284.5 74
q233 0 359.5 -153.5t126.5 -435.5q0 -183 -56 -360.5t-161 -328.5q-86 -123 -210.5 -189.5t-269.5 -66.5q-233 0 -364 153.5t-131 426.5z" />
    <glyph glyph-name="P" unicode="P" horiz-adv-x="1241" 
d="M375 788h231q218 0 326 79t108 239q0 129 -81 183t-285 54h-174zM33 0l334 1481h338q258 0 379.5 -91t121.5 -282q0 -216 -148.5 -337.5t-414.5 -121.5h-301l-149 -649h-160z" />
    <glyph glyph-name="Q" unicode="Q" horiz-adv-x="1356" 
d="M1163 -160q-6 -1 -11.5 -1.5t-16.5 -0.5q-78 0 -152.5 52t-142.5 153q-59 -35 -126.5 -52.5t-142.5 -17.5q-231 0 -362 153.5t-131 424.5q0 182 50.5 357t141.5 309q97 142 227.5 216t284.5 74q233 0 359.5 -154t126.5 -438q0 -225 -80 -432.5t-223 -353.5
q51 -73 112 -107.5t139 -36.5zM780 172q-29 55 -71 93t-93 54l52 154q76 -29 132.5 -79t96.5 -124q101 128 157 301t56 359q0 204 -91.5 322t-248.5 118q-110 0 -208.5 -60t-164.5 -167q-74 -123 -117.5 -287.5t-43.5 -320.5q0 -198 92 -311t254 -113q47 0 94.5 14.5
t103.5 46.5z" />
    <glyph glyph-name="R" unicode="R" horiz-adv-x="1341" 
d="M381 801h287q189 0 290 81.5t101 233.5q0 113 -81.5 169t-246.5 56h-229zM43 0l328 1481h323q275 0 400 -89t125 -282q0 -178 -105 -291t-295 -139l205 -680h-168l-190 662h-316l-147 -662h-160z" />
    <glyph glyph-name="S" unicode="S" horiz-adv-x="1233" 
d="M68 397l153 52q43 -161 136 -243.5t231 -82.5q128 0 206 73t78 191q0 165 -288 317l-9 5q-203 108 -275.5 201.5t-72.5 226.5q0 165 114.5 267.5t299.5 102.5q187 0 307.5 -95t169.5 -282l-143 -43q-37 141 -123 213t-217 72q-115 0 -181.5 -64t-66.5 -175
q0 -79 59.5 -142.5t262.5 -171.5q198 -106 262.5 -197t64.5 -233q0 -185 -125 -299.5t-329 -114.5q-202 0 -335.5 109.5t-178.5 312.5z" />
    <glyph glyph-name="T" unicode="T" horiz-adv-x="1010" 
d="M256 0l297 1343h-406l29 138h944l-28 -138h-375l-297 -1343h-164z" />
    <glyph glyph-name="U" unicode="U" horiz-adv-x="1460" 
d="M369 1481h163l-202 -895q-15 -70 -23 -120.5t-8 -78.5q0 -127 83.5 -198.5t231.5 -71.5q186 0 283 95.5t154 348.5l211 920h163l-217 -953q-71 -311 -202.5 -432t-391.5 -121q-233 0 -355 105t-122 303q0 77 37 242l4 18z" />
    <glyph glyph-name="V" unicode="V" horiz-adv-x="1237" 
d="M371 0l-152 1481h158l115 -1239l622 1239h172l-762 -1481h-153z" />
    <glyph glyph-name="W" unicode="W" horiz-adv-x="2030" 
d="M1087 1219l-598 -1219h-149l-129 1481h154l96 -1233l606 1233h143l99 -1231l598 1231h166l-732 -1481h-153z" />
    <glyph glyph-name="X" unicode="X" horiz-adv-x="1124" 
d="M-68 0l537 778l-291 703h168l229 -566l379 566h185l-498 -719l317 -762h-172l-247 625l-420 -625h-187z" />
    <glyph glyph-name="Y" unicode="Y" horiz-adv-x="1006" 
d="M266 0l144 647l-267 834h166l207 -680l424 680h180l-555 -871l-135 -610h-164z" />
    <glyph glyph-name="Z" unicode="Z" horiz-adv-x="1124" 
d="M6 0l27 119l850 1224h-629l29 138h825l-23 -113l-849 -1227h700l-33 -141h-897z" />
    <glyph glyph-name="bracketleft" unicode="[" horiz-adv-x="674" 
d="M-12 -143l360 1624h424l-20 -86h-279l-323 -1448h280l-20 -90h-422z" />
    <glyph glyph-name="backslash" unicode="\" horiz-adv-x="573" 
d="M309 1497l62 -1687h-111l-63 1687h112z" />
    <glyph glyph-name="bracketright" unicode="]" horiz-adv-x="674" 
d="M659 1481l-362 -1624h-422l19 88h278l324 1448h-281l23 88h421z" />
    <glyph glyph-name="asciicircum" unicode="^" horiz-adv-x="2048" 
d="M1104 1458l520 -557h-158l-442 438l-442 -438h-160l520 557h162z" />
    <glyph glyph-name="underscore" unicode="_" 
d="M1024 -365v-118h-1024v118h1024z" />
    <glyph glyph-name="grave" unicode="`" 
d="M741 1194h-100l-285 348h166z" />
    <glyph glyph-name="a" unicode="a" horiz-adv-x="1044" 
d="M633 283l63 284q-280 -31 -417.5 -104.5t-137.5 -194.5q0 -66 47 -109.5t119 -43.5q74 0 157.5 43t168.5 125zM584 0l12 123q-66 -69 -145.5 -103t-174.5 -34q-128 0 -207 76.5t-79 199.5q0 183 188 294.5t545 139.5q6 37 8 54t2 28q0 86 -57.5 134.5t-159.5 48.5
q-89 0 -155 -39t-107 -115l-125 80q67 98 168.5 146t243.5 48q151 0 244.5 -80.5t93.5 -209.5q0 -37 -8 -89t-25 -124l-72 -326q-16 -72 -24.5 -133.5t-8.5 -104.5v-14h-157z" />
    <glyph glyph-name="b" unicode="b" horiz-adv-x="1118" 
d="M221 338q20 -104 87 -163.5t163 -59.5q75 0 139.5 35t108.5 100q55 80 88 194.5t33 227.5q0 135 -58 209.5t-161 74.5q-74 0 -150 -42t-152 -126zM4 0l326 1481h147l-121 -531q59 65 129.5 98t151.5 33q167 0 259.5 -108.5t92.5 -306.5q0 -138 -42.5 -273t-119.5 -237
q-62 -86 -149 -130t-193 -44q-116 0 -191 45t-112 139l-67 -166h-111z" />
    <glyph glyph-name="c" unicode="c" horiz-adv-x="1006" 
d="M723 299l108 -76q-70 -124 -169 -183.5t-234 -59.5q-193 0 -294 114.5t-101 333.5q0 288 142 470.5t364 182.5q154 0 250.5 -82.5t123.5 -238.5l-139 -33q-29 120 -87.5 177t-151.5 57q-153 0 -254 -157.5t-101 -397.5q0 -143 63 -223.5t175 -80.5q92 0 165.5 47
t139.5 150z" />
    <glyph glyph-name="d" unicode="d" horiz-adv-x="1118" 
d="M793 725q-20 105 -86.5 165t-161.5 60q-75 0 -140.5 -36t-109.5 -101q-55 -80 -88 -194.5t-33 -227.5q0 -134 58.5 -208t162.5 -74q74 0 149 41.5t150 123.5zM1108 1481l-330 -1481h-137l29 127q-60 -72 -133 -107.5t-160 -35.5q-168 0 -260 108t-92 305q0 139 42.5 273
t118.5 237q65 88 151.5 132t192.5 44q113 0 188.5 -46.5t112.5 -139.5l132 584h145z" />
    <glyph glyph-name="e" unicode="e" horiz-adv-x="1034" 
d="M199 633h557q0 6 1 17.5t1 17.5q0 137 -64.5 216t-175.5 79q-112 0 -198 -88.5t-121 -241.5zM721 291l108 -78q-79 -116 -180.5 -173.5t-226.5 -57.5q-195 0 -298.5 116t-103.5 334q0 289 142 469t368 180q185 0 282 -118t97 -342q0 -27 -1.5 -54.5t-4.5 -56.5h-729
q-4 -25 -6 -52.5t-2 -60.5q0 -135 68 -214t184 -79q87 0 161.5 46t141.5 141z" />
    <glyph glyph-name="f" unicode="f" horiz-adv-x="678" 
d="M59 0l209 944h-178l27 123h178l29 131q32 156 103 229.5t189 73.5q36 0 77.5 -6t88.5 -18l-28 -125q-33 10 -63.5 15t-55.5 5q-70 0 -107.5 -41.5t-58.5 -144.5l-27 -119h217l-26 -123h-217l-211 -944h-146z" />
    <glyph glyph-name="g" unicode="g" horiz-adv-x="1010" 
d="M512 965q-113 0 -186.5 -82t-73.5 -209q0 -92 62.5 -152.5t158.5 -60.5q118 0 191 77.5t73 202.5q0 100 -62.5 162t-162.5 62zM215 76q-79 -28 -118.5 -69t-39.5 -97q0 -74 86 -121t228 -47q134 0 218.5 45t84.5 113q0 94 -297 146q-102 18 -162 30zM106 131
q-40 23 -59.5 54.5t-19.5 72.5q0 61 43 105t137 79q-52 43 -78.5 102.5t-26.5 135.5q0 172 115.5 287.5t290.5 115.5q74 0 133 -18t113 -57q41 45 80.5 65.5t89.5 20.5q11 0 20 -1t18 -3l1 -136h-25q-39 0 -69 -7.5t-48 -22.5q27 -44 40 -90t13 -97q0 -177 -109.5 -286
t-289.5 -109q-46 0 -88 10.5t-88 34.5q-61 -25 -89 -51t-28 -55q0 -57 194 -90q95 -17 154 -29q152 -30 218.5 -88.5t66.5 -159.5q0 -132 -124.5 -217.5t-323.5 -85.5q-205 0 -328 78.5t-123 204.5q0 86 45.5 143t144.5 94z" />
    <glyph glyph-name="h" unicode="h" horiz-adv-x="1124" 
d="M12 0l328 1481h145l-125 -563q79 81 165 122t180 41q120 0 189 -69.5t69 -192.5q0 -28 -5.5 -65t-21.5 -109l-141 -645h-148l152 690q8 34 12 64t4 49q0 75 -38.5 113t-114.5 38q-75 0 -163.5 -49t-170.5 -137l-170 -768h-146z" />
    <glyph glyph-name="i" unicode="i" horiz-adv-x="563" 
d="M317 1311l37 170h174l-39 -170h-172zM35 0l237 1067h152l-236 -1067h-153z" />
    <glyph glyph-name="j" unicode="j" horiz-adv-x="559" 
d="M325 1311l36 170h173l-39 -170h-170zM-252 -371l36 133q19 -6 37 -9t37 -3q80 0 112.5 36t59.5 157l250 1124h151l-250 -1130q-42 -190 -105.5 -256t-189.5 -66q-30 0 -65 3.5t-73 10.5z" />
    <glyph glyph-name="k" unicode="k" horiz-adv-x="1014" 
d="M41 0l328 1481h147l-197 -889l490 475h192l-426 -401l244 -666h-162l-200 561l-183 -170l-88 -391h-145z" />
    <glyph glyph-name="l" unicode="l" horiz-adv-x="563" 
d="M35 0l327 1481h154l-328 -1481h-153z" />
    <glyph glyph-name="m" unicode="m" horiz-adv-x="1692" 
d="M12 0l238 1067h141l-33 -147q72 80 150.5 119.5t167.5 39.5q98 0 159.5 -46t84.5 -138q83 94 168.5 139t181.5 45q123 0 193.5 -66.5t70.5 -183.5q0 -37 -5 -76t-18 -89l-147 -664h-145l155 704q7 32 10.5 57.5t4.5 47.5q0 68 -36.5 104.5t-105.5 36.5
q-77 0 -157.5 -43.5t-161.5 -130.5l-172 -776h-142l158 713q5 23 7.5 46t2.5 46q0 70 -34 107.5t-99 37.5q-79 0 -162 -47t-157 -135l-172 -768h-146z" />
    <glyph glyph-name="n" unicode="n" horiz-adv-x="1124" 
d="M12 0l236 1067h141l-35 -160q79 87 167.5 130.5t183.5 43.5q120 0 189 -69.5t69 -192.5q0 -32 -6 -73.5t-19 -100.5l-143 -645h-148l154 691q7 30 10.5 58.5t3.5 53.5q0 75 -38.5 113t-114.5 38q-74 0 -162 -49t-170 -137l-172 -768h-146z" />
    <glyph glyph-name="o" unicode="o" horiz-adv-x="1006" 
d="M512 963q-152 0 -252 -156t-100 -397q0 -152 62 -230t184 -78q150 0 249 156.5t99 396.5q0 143 -65 225.5t-177 82.5zM12 418q0 291 144.5 478t365.5 187q176 0 277.5 -116.5t101.5 -319.5q0 -289 -143 -478t-359 -189q-182 0 -284.5 115.5t-102.5 322.5z" />
    <glyph glyph-name="p" unicode="p" horiz-adv-x="1124" 
d="M227 338q20 -104 87 -163.5t163 -59.5q75 0 139.5 35t108.5 100q55 80 88 194.5t33 227.5q0 135 -57.5 209.5t-161.5 74.5q-74 0 -150 -42t-151 -126zM-82 -389l326 1456h135l-29 -129q60 72 133 107.5t160 35.5q167 0 259.5 -108.5t92.5 -306.5q0 -138 -42.5 -273
t-118.5 -237q-63 -86 -150 -130t-192 -44q-117 0 -192 45t-112 139l-125 -555h-145z" />
    <glyph glyph-name="q" unicode="q" horiz-adv-x="1124" 
d="M799 725q-20 104 -87.5 164.5t-162.5 60.5q-74 0 -139 -35.5t-109 -101.5q-56 -81 -89.5 -196t-33.5 -226q0 -134 58.5 -208t162.5 -74q74 0 149 41.5t150 123.5zM1020 1067l-324 -1456h-145l111 502q-54 -63 -126 -96t-155 -33q-167 0 -258.5 107.5t-91.5 305.5
q0 139 42.5 273t119.5 237q64 88 150.5 132t193.5 44q112 0 187.5 -46.5t113.5 -139.5l75 170h107z" />
    <glyph glyph-name="r" unicode="r" horiz-adv-x="678" 
d="M12 0l238 1067h147l-47 -209q57 109 137 165t179 56q8 0 17 -0.5t29 -3.5l-34 -157q-6 1 -12 1.5t-19 0.5q-101 0 -192.5 -85.5t-159.5 -244.5l-131 -590h-152z" />
    <glyph glyph-name="s" unicode="s" horiz-adv-x="891" 
d="M-33 227l121 80q66 -105 135.5 -148.5t169.5 -43.5q88 0 138.5 45t50.5 125q0 106 -201 199l-2 1q-164 76 -215 138t-51 157q0 135 87 219t228 84q131 0 225.5 -57t153.5 -172l-127 -68q-54 94 -113.5 134.5t-142.5 40.5q-71 0 -118.5 -43.5t-47.5 -108.5
q0 -100 169 -181l15 -7q171 -81 231 -151t60 -171q0 -146 -92.5 -232.5t-249.5 -86.5q-145 0 -250.5 61.5t-173.5 185.5z" />
    <glyph glyph-name="t" unicode="t" horiz-adv-x="674" 
d="M506 0q-29 -8 -63.5 -12t-77.5 -4q-126 0 -189 51.5t-63 154.5q0 24 3 50t9 55l143 649h-180l27 123h182l74 344h153l-78 -344h211l-28 -123h-209l-141 -642q-6 -22 -8.5 -41t-2.5 -38v-20q0 -48 28.5 -71t86.5 -23q28 0 65 4.5t82 13.5z" />
    <glyph glyph-name="u" unicode="u" horiz-adv-x="1124" 
d="M1030 1067l-233 -1067h-142l33 156q-78 -86 -166 -129t-184 -43q-120 0 -189 69.5t-69 192.5q0 32 5.5 72.5t18.5 101.5l146 647h147l-153 -694q-8 -33 -12.5 -62t-4.5 -49q0 -76 39 -114.5t115 -38.5q74 0 161.5 49t170.5 137l172 772h145z" />
    <glyph glyph-name="v" unicode="v" horiz-adv-x="901" 
d="M211 0l-127 1067h145l97 -920l403 920h156l-477 -1067h-197z" />
    <glyph glyph-name="w" unicode="w" horiz-adv-x="1346" 
d="M180 0l-114 1067h141l69 -850l345 850h139l51 -840l371 840h153l-499 -1067h-125l-56 858l-346 -858h-129z" />
    <glyph glyph-name="x" unicode="x" horiz-adv-x="891" 
d="M-84 0l399 565l-231 502h158l170 -391l266 391h168l-363 -514l258 -553h-157l-199 444l-299 -444h-170z" />
    <glyph glyph-name="y" unicode="y" horiz-adv-x="891" 
d="M334 -102q-82 -173 -157.5 -230t-196.5 -57q-43 0 -73.5 7.5t-53.5 23.5l36 114q28 -10 54 -15t51 -5q62 0 106.5 36.5t85.5 123.5l50 100l-154 1071h141l117 -852l389 852h156z" />
    <glyph glyph-name="z" unicode="z" horiz-adv-x="930" 
d="M-23 0l25 113l635 831h-498l29 123h680l-29 -109l-635 -833h566l-33 -125h-740z" />
    <glyph glyph-name="braceleft" unicode="{" 
d="M858 1350q-8 0 -23 1t-22 1q-121 0 -164 -47t-43 -197v-242q0 -166 -43.5 -235.5t-154.5 -100.5q111 -30 154.5 -99.5t43.5 -235.5v-242q0 -149 43.5 -195.5t169.5 -46.5h39v-125h-35q-99 0 -159.5 12t-102.5 40q-55 36 -77.5 100t-22.5 213v244q0 152 -55 213t-189 61
q-7 0 -22 -1t-23 -1v127q8 0 23 -1t22 -1q134 0 189 61.5t55 214.5v244q0 153 22.5 215.5t77.5 97.5q42 28 102 40t160 12h35v-127z" />
    <glyph glyph-name="bar" unicode="|" 
d="M575 1565v-2048h-126v2048h126z" />
    <glyph glyph-name="braceright" unicode="}" 
d="M563 1112v-244q0 -152 55.5 -214t190.5 -62q7 0 22 1t23 1v-127q-8 0 -23 1t-22 1q-135 0 -190.5 -62t-55.5 -214v-242q0 -153 -22 -216.5t-76 -99.5q-39 -26 -97.5 -37.5t-160.5 -11.5h-41v125q8 0 23 -1t22 -1q120 0 163.5 47.5t43.5 198.5v240q0 166 43.5 235.5
t154.5 99.5q-111 31 -154.5 100.5t-43.5 235.5v242q0 149 -44 196.5t-169 47.5h-39v125h35q100 0 161 -12.5t103 -39.5q54 -35 76 -98t22 -215z" />
    <glyph glyph-name="asciitilde" unicode="~" horiz-adv-x="1706" 
d="M1530 627q-101 -72 -197.5 -108t-189.5 -36q-43 0 -90.5 9t-100.5 26q-30 10 -87 31q-202 72 -302 72q-83 0 -173.5 -37.5t-211.5 -122.5v133q105 73 202 109t185 36q56 0 116.5 -12.5t174.5 -52.5q14 -5 44 -16q158 -58 245 -58q84 0 174.5 37t210.5 121v-131z" />
    <glyph glyph-name="uni0080" horiz-adv-x="1233" 
d="M1229 1090l-148 -25q-21 159 -95.5 236t-205.5 77q-137 0 -243 -110.5t-168 -319.5h635l-41 -94h-621q-13 -51 -21.5 -100t-13.5 -97h567l-40 -94h-533q-1 -13 -1.5 -25t-0.5 -22q0 -192 80 -302t219 -110q106 0 198 69.5t169 207.5l125 -80q-99 -173 -219.5 -251.5
t-286.5 -78.5q-214 0 -326.5 143t-112.5 414v35h-172l41 94h135q3 39 10 84.5t21 112.5h-149l41 94h133q78 271 229 416t352 145q187 0 299.5 -106.5t143.5 -312.5z" />
    <glyph glyph-name="uni0080" unicode="&#x20ac;" horiz-adv-x="1233" 
d="M1229 1090l-148 -25q-21 159 -95.5 236t-205.5 77q-137 0 -243 -110.5t-168 -319.5h635l-41 -94h-621q-13 -51 -21.5 -100t-13.5 -97h567l-40 -94h-533q-1 -13 -1.5 -25t-0.5 -22q0 -192 80 -302t219 -110q106 0 198 69.5t169 207.5l125 -80q-99 -173 -219.5 -251.5
t-286.5 -78.5q-214 0 -326.5 143t-112.5 414v35h-172l41 94h135q3 39 10 84.5t21 112.5h-149l41 94h133q78 271 229 416t352 145q187 0 299.5 -106.5t143.5 -312.5z" />
    <glyph glyph-name="uni00A0" unicode="&#xa0;" horiz-adv-x="1233" 
 />
    <glyph glyph-name="exclamdown" unicode="&#xa1;" horiz-adv-x="633" 
d="M47 0l272 1020h121l-184 -1020h-209zM584 1481l-47 -219h-209l47 219h209z" />
    <glyph glyph-name="cent" unicode="&#xa2;" horiz-adv-x="1233" 
d="M844 326l117 -80q-63 -118 -166.5 -182t-231.5 -64q-18 0 -73 6q-13 1 -21 2l-92 -233h-119l104 264q-99 51 -149.5 155t-50.5 255q0 283 140.5 470t348.5 187q23 0 53 -4t70 -12l84 219h121l-102 -260q66 -44 109 -113t56 -156l-145 -32q-8 55 -26.5 96t-49.5 74
l-311 -791q8 -1 17.5 -1.5t27.5 -0.5q93 0 165 50t124 151zM729 967q-24 5 -44.5 7.5t-37.5 2.5q-63 0 -115 -27t-96 -84q-56 -71 -93.5 -196t-37.5 -248q0 -90 27 -152.5t84 -103.5z" />
    <glyph glyph-name="sterling" unicode="&#xa3;" horiz-adv-x="1233" 
d="M37 -16v151q122 40 185 165.5t63 328.5q0 9 -1 28.5t-1 28.5h-242l18 119h234q0 12 -1 35t-1 34q0 317 122.5 474t368.5 157q202 0 312.5 -105t126.5 -310l-146 -21q-12 146 -89 224.5t-206 78.5q-175 0 -257.5 -129t-82.5 -405v-33h342l-20 -119h-321
q-4 -137 -22.5 -241t-53.5 -179q103 -71 193.5 -105t178.5 -34q108 0 173 65t89 197l146 -35q-42 -191 -145.5 -281.5t-282.5 -90.5q-115 0 -225.5 40.5t-196.5 114.5q-53 -67 -117 -105.5t-141 -47.5z" />
    <glyph glyph-name="currency" unicode="&#xa4;" horiz-adv-x="1233" 
d="M1229 1090l-148 -25q-21 159 -95.5 236t-205.5 77q-137 0 -243 -110.5t-168 -319.5h635l-41 -94h-621q-13 -51 -21.5 -100t-13.5 -97h567l-40 -94h-533q-1 -13 -1.5 -25t-0.5 -22q0 -192 80 -302t219 -110q106 0 198 69.5t169 207.5l125 -80q-99 -173 -219.5 -251.5
t-286.5 -78.5q-214 0 -326.5 143t-112.5 414v35h-172l41 94h135q3 39 10 84.5t21 112.5h-149l41 94h133q78 271 229 416t352 145q187 0 299.5 -106.5t143.5 -312.5z" />
    <glyph glyph-name="yen" unicode="&#xa5;" horiz-adv-x="1233" 
d="M352 0l142 637h-433l21 94h385l-61 197h-281l22 96h230l-148 455h146l221 -705l438 705h160l-291 -455h268l-20 -96h-309l-127 -197h393l-21 -94h-432l-16 -27l-135 -610h-152z" />
    <glyph glyph-name="brokenbar" unicode="&#xa6;" 
d="M575 408v-758h-126v758h126zM575 1432v-758h-126v758h126z" />
    <glyph glyph-name="section" unicode="&#xa7;" 
d="M98 6l105 72q49 -69 100 -103t107 -34q60 0 99.5 38t39.5 97q0 43 -23 96t-94 162l-125 192q-66 103 -98.5 182.5t-32.5 139.5q0 93 61 156t150 63q14 0 33 -2.5t42 -7.5q-43 76 -61 128t-18 97q0 104 71.5 165.5t192.5 61.5q89 0 160 -39.5t137 -126.5l-100 -71
q-48 65 -93.5 95t-97.5 30q-58 0 -94.5 -32.5t-36.5 -84.5q0 -71 88 -203q26 -38 39 -59l117 -184q61 -96 90 -170t29 -132q0 -93 -59 -158t-144 -65q-14 0 -32.5 2.5t-51.5 7.5q46 -69 68 -129.5t22 -115.5q0 -115 -76.5 -183.5t-203.5 -68.5q-95 0 -171.5 45.5
t-138.5 138.5zM315 852q0 -42 33.5 -113.5t100.5 -171.5q63 -95 100 -124t80 -29q53 0 86 31t33 81q0 45 -35 118t-109 181q-54 82 -91.5 112t-80.5 30q-50 0 -83.5 -33t-33.5 -82z" />
    <glyph glyph-name="dieresis" unicode="&#xa8;" 
d="M700 1257l41 189h160l-41 -189h-160zM379 1257l41 189h160l-41 -189h-160z" />
    <glyph glyph-name="copyright" unicode="&#xa9;" horiz-adv-x="1706" 
d="M1065 911q-15 77 -70.5 120.5t-138.5 43.5q-117 0 -182.5 -92.5t-65.5 -259.5q0 -160 66.5 -252t181.5 -92q87 0 145.5 48.5t73.5 133.5h129q-11 -127 -109 -207t-245 -80q-176 0 -280.5 121t-104.5 326q0 208 107.5 332.5t287.5 124.5q137 0 230 -74.5t104 -192.5h-129z
M1501 725q0 130 -49 249t-139 210q-92 92 -210 140t-251 48q-132 0 -247.5 -47.5t-205.5 -138.5q-93 -95 -142.5 -214t-49.5 -247q0 -127 49 -244t141 -211q93 -92 209.5 -141t245.5 -49t248.5 50t214.5 142q91 90 138.5 205.5t47.5 247.5zM852 1460q151 0 285 -55t239 -160
q102 -102 156.5 -236t54.5 -284q0 -151 -54 -283t-157 -233q-109 -106 -244.5 -162.5t-279.5 -56.5q-146 0 -278 55.5t-238 161.5q-106 105 -161.5 238.5t-55.5 279.5q0 145 56.5 279.5t162.5 242.5q102 104 234 158.5t280 54.5z" />
    <glyph glyph-name="ordfeminine" unicode="&#xaa;" horiz-adv-x="784" 
d="M475 934l47 199q-210 -22 -313 -73.5t-103 -135.5q0 -47 35.5 -78t89.5 -31q55 0 118 30.5t126 88.5zM438 735l8 86q-49 -48 -109 -72t-130 -24q-96 0 -155.5 54t-59.5 141q0 127 141.5 205t409.5 98q1 8 3 22q5 27 5 35q0 60 -43.5 93.5t-120.5 33.5q-67 0 -116.5 -27
t-80.5 -80l-94 56q50 69 126.5 103t183.5 34q113 0 183 -57t70 -148q0 -22 -5 -53.5t-19 -95.5l-53 -228q-12 -46 -18.5 -89t-6.5 -77v-10h-119z" />
    <glyph glyph-name="guillemotleft" unicode="&#xab;" horiz-adv-x="983" 
d="M504 844l-260 -309l205 -316h-142l-205 316l260 309h142zM801 844l-262 -309l206 -316h-141l-207 316l262 309h142z" />
    <glyph glyph-name="logicalnot" unicode="&#xac;" horiz-adv-x="1706" 
d="M1452 858v-502h-115v385h-1083v117h1198z" />
    <glyph glyph-name="uni00AD" unicode="&#xad;" horiz-adv-x="764" 
d="M70 467l30 137h498l-31 -137h-497z" />
    <glyph glyph-name="registered" unicode="&#xae;" horiz-adv-x="1706" 
d="M846 1065h-144v-291h148q123 0 175 33t52 108q0 79 -54.5 114.5t-176.5 35.5zM872 1157q178 0 264.5 -57t86.5 -174q0 -89 -53 -148.5t-144 -75.5l188 -385h-157l-176 365h-179v-365h-141v840h311zM1501 721q0 133 -48 251.5t-138 209.5q-94 93 -211.5 141.5t-251.5 48.5
q-132 0 -247 -47t-204 -137q-94 -95 -144 -214t-50 -249q0 -127 49 -244t141 -211q91 -92 208 -141t245 -49q131 0 249.5 48.5t213.5 141.5q91 90 139.5 206t48.5 245zM852 1460q150 0 284 -55.5t240 -161.5q102 -102 156.5 -235.5t54.5 -282.5q0 -151 -54.5 -283
t-158.5 -233q-109 -106 -243.5 -162.5t-278.5 -56.5q-145 0 -278.5 56t-239.5 163q-105 104 -160 237t-55 279q0 147 57 282t164 242q101 103 232 157t280 54z" />
    <glyph glyph-name="macron" unicode="&#xaf;" 
d="M369 1288l26 127h516l-26 -127h-516z" />
    <glyph glyph-name="degree" unicode="&#xb0;" horiz-adv-x="674" 
d="M539 1171q0 84 -58.5 142.5t-142.5 58.5t-143.5 -58.5t-59.5 -142.5t59.5 -143t143.5 -59t142.5 59t58.5 143zM338 1454q117 0 200 -83t83 -200q0 -116 -83.5 -199t-201.5 -83t-199.5 82t-81.5 200q0 119 82.5 201t200.5 82z" />
    <glyph glyph-name="plusminus" unicode="&#xb1;" horiz-adv-x="1706" 
d="M1452 158v-117h-1198v117h1198zM913 1180v-344h539v-117h-539v-344h-118v344h-541v117h541v344h118z" />
    <glyph glyph-name="uni00B2" unicode="&#xb2;" horiz-adv-x="813" 
d="M29 592q2 88 76.5 177t220.5 177q27 17 77 46q99 58 132 87q44 39 66 79.5t22 84.5q0 74 -53 122t-136 48q-78 0 -132 -45.5t-89 -140.5l-100 26q48 122 129.5 181t199.5 59q127 0 206 -69t79 -179q0 -54 -20 -102t-58 -88q-55 -59 -227 -150q-27 -15 -41 -22
q-86 -47 -146.5 -102.5t-84.5 -108.5h507l-12 -80h-616z" />
    <glyph glyph-name="uni00B3" unicode="&#xb3;" horiz-adv-x="813" 
d="M33 760l86 45q47 -74 103.5 -108.5t129.5 -34.5q99 0 158 52.5t59 139.5q0 88 -75.5 135t-217.5 47l21 82q17 -3 34.5 -4.5t33.5 -1.5q122 0 187.5 41.5t65.5 118.5q0 65 -48 104t-130 39q-60 0 -110.5 -28t-87.5 -82l-82 49q46 68 116 102.5t166 34.5q131 0 206 -59
t75 -160q0 -85 -50.5 -139.5t-148.5 -75.5q69 -20 111.5 -78t42.5 -131q0 -120 -90 -194t-236 -74q-110 0 -192.5 46t-126.5 134z" />
    <glyph glyph-name="acute" unicode="&#xb4;" 
d="M584 1194h-107l236 348h178z" />
    <glyph glyph-name="uni00B5" unicode="&#xb5;" horiz-adv-x="1128" 
d="M362 1069l-126 -595q-8 -33 -11.5 -67t-3.5 -71q0 -109 57 -168t160 -59q125 0 208 101t128 308l121 551h156l-162 -754q-12 -52 -17.5 -84t-5.5 -51q0 -32 18.5 -48.5t53.5 -16.5q9 0 17.5 0.5t17.5 1.5l-27 -125q-21 -5 -44 -7.5t-48 -2.5q-70 0 -104.5 35t-40.5 112
q-41 -70 -117 -108.5t-172 -38.5q-87 0 -152.5 34t-109.5 103l-113 -545h-156l316 1495h157z" />
    <glyph glyph-name="paragraph" unicode="&#xb6;" 
d="M948 1401h-125v-1401h-94v1401h-182v-1401h-96v782q-173 8 -274 102.5t-101 245.5q0 157 107.5 253t285.5 96h479v-78z" />
    <glyph glyph-name="periodcentered" unicode="&#xb7;" horiz-adv-x="616" 
d="M207 741q0 53 35.5 88t87.5 35t88.5 -35.5t36.5 -87.5q0 -51 -37 -88t-88 -37t-87 36.5t-36 88.5z" />
    <glyph glyph-name="cedilla" unicode="&#xb8;" 
d="M35 -418l31 86q68 -20 124 -30.5t99 -10.5q61 0 93 27t32 78q0 44 -36.5 63t-127.5 19h-37l63 186h72l-35 -106h19q112 0 163.5 -40.5t51.5 -127.5q0 -88 -64.5 -141.5t-173.5 -53.5q-53 0 -121 12.5t-153 38.5z" />
    <glyph glyph-name="uni00B9" unicode="&#xb9;" horiz-adv-x="813" 
d="M90 592l21 80h170l174 714l-191 -22l19 61q63 16 116.5 33t98.5 35h86l-203 -821h178l-22 -80h-447z" />
    <glyph glyph-name="ordmasculine" unicode="&#xba;" horiz-adv-x="754" 
d="M385 1409q-114 0 -189 -109t-75 -278q0 -107 46.5 -161t137.5 -54q112 0 186 109.5t74 277.5q0 100 -48 157.5t-132 57.5zM10 1028q0 203 108 334t273 131q133 0 209 -81.5t76 -223.5q0 -203 -107.5 -335t-269.5 -132q-136 0 -212.5 81t-76.5 226z" />
    <glyph glyph-name="guillemotright" unicode="&#xbb;" horiz-adv-x="983" 
d="M84 219l262 309l-207 316h142l204 -316l-260 -309h-141zM379 219l262 309l-207 316h141l207 -316l-262 -309h-141z" />
    <glyph glyph-name="onequarter" unicode="&#xbc;" horiz-adv-x="1894" 
d="M1524 -14l53 211h-440l14 67l539 563h135l-139 -559h145l-14 -71h-152l-51 -211h-90zM1257 268h340l119 484zM438 -25l908 1528h110l-907 -1528h-111zM86 651l18 74h162l168 668l-182 -21l16 58q55 12 107 28t100 35h82l-195 -768h170l-20 -74h-426z" />
    <glyph glyph-name="onehalf" unicode="&#xbd;" horiz-adv-x="1894" 
d="M1145 0q1 81 72.5 164.5t212.5 167.5q19 11 56 32q108 60 142 91q42 34 63 72.5t21 80.5q0 70 -50.5 115t-129.5 45q-72 0 -123.5 -42.5t-87.5 -131.5l-94 22q44 113 121.5 168.5t191.5 55.5q122 0 197 -64t75 -168q0 -49 -19 -94t-56 -82q-51 -54 -208 -135
q-30 -16 -46 -25q-83 -43 -140.5 -95t-80.5 -103h485l-12 -74h-590zM438 -25l908 1528h110l-907 -1528h-111zM86 651l18 74h162l168 668l-182 -21l16 58q55 12 107 28t100 35h82l-195 -768h170l-20 -74h-426z" />
    <glyph glyph-name="threequarters" unicode="&#xbe;" horiz-adv-x="1896" 
d="M1524 -14l53 211h-440l14 67l539 563h135l-139 -559h145l-14 -71h-152l-51 -211h-90zM1257 268h340l119 484zM438 -25l908 1528h110l-907 -1528h-111zM31 809l82 41q45 -69 98.5 -101t124.5 -32q94 0 150.5 49.5t56.5 130.5q0 80 -71.5 124t-206.5 46l18 76
q15 -3 32.5 -4.5t32.5 -1.5q118 0 181 38.5t63 110.5q0 60 -47 96.5t-125 36.5q-59 0 -107 -26t-82 -76l-79 45q44 64 111.5 96.5t158.5 32.5q124 0 196 -55t72 -150q0 -79 -48 -130t-142 -71q67 -20 107 -73t40 -121q0 -112 -86 -182t-225 -70q-105 0 -183.5 44t-121.5 126
z" />
    <glyph glyph-name="questiondown" unicode="&#xbf;" horiz-adv-x="899" 
d="M625 1006q-17 -118 -61 -213t-113 -164q-19 -20 -55 -55q-169 -165 -169 -293q0 -80 45.5 -126t122.5 -46q63 0 109 33t88 108l133 -64q-56 -101 -141.5 -152.5t-196.5 -51.5q-148 0 -239 85.5t-91 223.5q0 168 215 369l4 4q111 101 153.5 176t51.5 166h144zM750 1477
l-48 -220h-208l47 220h209z" />
    <glyph glyph-name="Agrave" unicode="&#xc0;" horiz-adv-x="1237" 
d="M397 604h420l-63 754h-11zM-53 0l700 1481h242l127 -1481h-158l-35 467h-489l-213 -467h-174zM917 1616h-100l-285 348h166z" />
    <glyph glyph-name="Aacute" unicode="&#xc1;" horiz-adv-x="1237" 
d="M397 604h420l-63 754h-11zM-53 0l700 1481h242l127 -1481h-158l-35 467h-489l-213 -467h-174zM760 1616h-107l236 348h178z" />
    <glyph glyph-name="Acircumflex" unicode="&#xc2;" horiz-adv-x="1237" 
d="M397 604h420l-63 754h-11zM-53 0l700 1481h242l127 -1481h-158l-35 467h-489l-213 -467h-174zM1067 1616h-94l-140 229l-231 -229h-107l271 348h153z" />
    <glyph glyph-name="Atilde" unicode="&#xc3;" horiz-adv-x="1237" 
d="M397 604h420l-63 754h-11zM-53 0l700 1481h242l127 -1481h-158l-35 467h-489l-213 -467h-174zM1100 1882q-32 -102 -75.5 -146t-111.5 -44q-18 0 -38 3t-42 9l-65 21q-18 6 -35 9t-33 3q-32 0 -51.5 -18t-32.5 -58h-86q30 102 75 148.5t114 46.5q18 0 38 -3.5t40 -9.5
l67 -22q21 -7 37 -10t31 -3q33 0 52.5 17.5t29.5 56.5h86z" />
    <glyph glyph-name="Adieresis" unicode="&#xc4;" horiz-adv-x="1237" 
d="M397 604h420l-63 754h-11zM-53 0l700 1481h242l127 -1481h-158l-35 467h-489l-213 -467h-174zM876 1679l41 189h160l-41 -189h-160zM555 1679l41 189h160l-41 -189h-160z" />
    <glyph glyph-name="Aring" unicode="&#xc5;" horiz-adv-x="1237" 
d="M631 1692q0 -63 43 -105.5t106 -42.5q62 0 105 42.5t43 105.5t-43 107t-105 44t-105.5 -44t-43.5 -107zM-53 0l704 1485q-57 28 -89 82.5t-32 126.5q0 103 73 175.5t177 72.5q105 0 176.5 -72t71.5 -176q0 -72 -35.5 -129t-101.5 -90l125 -1475h-158l-35 467h-489
l-213 -467h-174zM397 604h420l-63 785z" />
    <glyph glyph-name="AE" unicode="&#xc6;" horiz-adv-x="1753" 
d="M432 604h416l174 772h-119zM-123 0l926 1481h973l-29 -138h-578l-110 -501h477l-29 -135h-479l-125 -568h686l-30 -139h-844l104 467h-471l-287 -467h-184z" />
    <glyph glyph-name="Ccedilla" unicode="&#xc7;" horiz-adv-x="1237" 
d="M963 406l133 -82q-99 -180 -225.5 -267.5t-286.5 -87.5q-243 0 -373.5 148t-130.5 424q0 202 63 395.5t176 339.5q88 114 200.5 171.5t246.5 57.5q201 0 314.5 -108.5t150.5 -335.5l-158 -27q-25 168 -99 248t-204 80q-106 0 -195 -53.5t-153 -155.5
q-81 -132 -127.5 -298t-46.5 -325q0 -197 87.5 -307t244.5 -110q109 0 206.5 74.5t176.5 218.5zM189 -418l31 86q68 -20 124 -30.5t99 -10.5q61 0 93 27t32 78q0 44 -36.5 63t-127.5 19h-37l63 186h72l-35 -106h19q112 0 163.5 -40.5t51.5 -127.5q0 -88 -64.5 -141.5
t-173.5 -53.5q-53 0 -121 12.5t-153 38.5z" />
    <glyph glyph-name="Egrave" unicode="&#xc8;" horiz-adv-x="1124" 
d="M37 0l328 1481h761l-28 -138h-602l-111 -501h498l-31 -135h-498l-125 -568h711l-31 -139h-872zM897 1616h-100l-285 348h166z" />
    <glyph glyph-name="Eacute" unicode="&#xc9;" horiz-adv-x="1124" 
d="M37 0l328 1481h761l-28 -138h-602l-111 -501h498l-31 -135h-498l-125 -568h711l-31 -139h-872zM740 1616h-107l236 348h178z" />
    <glyph glyph-name="Ecircumflex" unicode="&#xca;" horiz-adv-x="1124" 
d="M37 0l328 1481h761l-28 -138h-602l-111 -501h498l-31 -135h-498l-125 -568h711l-31 -139h-872zM1047 1616h-94l-140 229l-231 -229h-107l271 348h153z" />
    <glyph glyph-name="Edieresis" unicode="&#xcb;" horiz-adv-x="1124" 
d="M37 0l328 1481h761l-28 -138h-602l-111 -501h498l-31 -135h-498l-125 -568h711l-31 -139h-872zM856 1679l41 189h160l-41 -189h-160zM535 1679l41 189h160l-41 -189h-160z" />
    <glyph glyph-name="Igrave" unicode="&#xcc;" horiz-adv-x="563" 
d="M37 0l328 1481h163l-327 -1481h-164zM599 1616h-100l-285 348h166z" />
    <glyph glyph-name="Iacute" unicode="&#xcd;" horiz-adv-x="563" 
d="M37 0l328 1481h163l-327 -1481h-164zM442 1616h-107l236 348h178z" />
    <glyph glyph-name="Icircumflex" unicode="&#xce;" horiz-adv-x="563" 
d="M37 0l328 1481h163l-327 -1481h-164zM749 1616h-94l-140 229l-231 -229h-107l271 348h153z" />
    <glyph glyph-name="Idieresis" unicode="&#xcf;" horiz-adv-x="563" 
d="M37 0l328 1481h163l-327 -1481h-164zM558 1679l41 189h160l-41 -189h-160zM237 1679l41 189h160l-41 -189h-160z" />
    <glyph glyph-name="Eth" unicode="&#xd0;" horiz-adv-x="1370" 
d="M240 141h202q179 0 275 31.5t176 106.5q102 95 164.5 260.5t62.5 345.5q0 224 -124 340t-365 116h-125l-113 -512h334l-27 -120h-333zM51 0l158 709h-209l27 120h209l145 652h221q347 0 515.5 -145.5t168.5 -444.5q0 -224 -73.5 -413.5t-208.5 -313.5
q-97 -89 -212.5 -126.5t-351.5 -37.5h-389z" />
    <glyph glyph-name="Ntilde" unicode="&#xd1;" horiz-adv-x="1464" 
d="M35 0l336 1481h223l410 -1213l266 1213h162l-334 -1481h-144l-456 1319l-301 -1319h-162zM1231 1882q-32 -102 -75.5 -146t-111.5 -44q-18 0 -38 3t-42 9l-65 21q-18 6 -35 9t-33 3q-32 0 -51.5 -18t-32.5 -58h-86q30 102 75 148.5t114 46.5q18 0 38 -3.5t40 -9.5l67 -22
q21 -7 37 -10t31 -3q33 0 52.5 17.5t29.5 56.5h86z" />
    <glyph glyph-name="Ograve" unicode="&#xd2;" horiz-adv-x="1352" 
d="M772 1370q-108 0 -205.5 -60t-167.5 -171q-74 -119 -117.5 -281.5t-43.5 -322.5q0 -197 92 -310.5t250 -113.5q104 0 198.5 55t161.5 156q80 119 127 282.5t47 325.5q0 204 -91.5 322t-250.5 118zM80 553q0 181 51 355t143 309q97 142 227.5 216t284.5 74
q233 0 359.5 -153.5t126.5 -435.5q0 -183 -56 -360.5t-161 -328.5q-86 -123 -210.5 -189.5t-269.5 -66.5q-233 0 -364 153.5t-131 426.5zM962 1616h-100l-285 348h166z" />
    <glyph glyph-name="Oacute" unicode="&#xd3;" horiz-adv-x="1352" 
d="M772 1370q-108 0 -205.5 -60t-167.5 -171q-74 -119 -117.5 -281.5t-43.5 -322.5q0 -197 92 -310.5t250 -113.5q104 0 198.5 55t161.5 156q80 119 127 282.5t47 325.5q0 204 -91.5 322t-250.5 118zM80 553q0 181 51 355t143 309q97 142 227.5 216t284.5 74
q233 0 359.5 -153.5t126.5 -435.5q0 -183 -56 -360.5t-161 -328.5q-86 -123 -210.5 -189.5t-269.5 -66.5q-233 0 -364 153.5t-131 426.5zM805 1616h-107l236 348h178z" />
    <glyph glyph-name="Ocircumflex" unicode="&#xd4;" horiz-adv-x="1352" 
d="M772 1370q-108 0 -205.5 -60t-167.5 -171q-74 -119 -117.5 -281.5t-43.5 -322.5q0 -197 92 -310.5t250 -113.5q104 0 198.5 55t161.5 156q80 119 127 282.5t47 325.5q0 204 -91.5 322t-250.5 118zM80 553q0 181 51 355t143 309q97 142 227.5 216t284.5 74
q233 0 359.5 -153.5t126.5 -435.5q0 -183 -56 -360.5t-161 -328.5q-86 -123 -210.5 -189.5t-269.5 -66.5q-233 0 -364 153.5t-131 426.5zM1112 1616h-94l-140 229l-231 -229h-107l271 348h153z" />
    <glyph glyph-name="Otilde" unicode="&#xd5;" horiz-adv-x="1352" 
d="M772 1370q-108 0 -205.5 -60t-167.5 -171q-74 -119 -117.5 -281.5t-43.5 -322.5q0 -197 92 -310.5t250 -113.5q104 0 198.5 55t161.5 156q80 119 127 282.5t47 325.5q0 204 -91.5 322t-250.5 118zM80 553q0 181 51 355t143 309q97 142 227.5 216t284.5 74
q233 0 359.5 -153.5t126.5 -435.5q0 -183 -56 -360.5t-161 -328.5q-86 -123 -210.5 -189.5t-269.5 -66.5q-233 0 -364 153.5t-131 426.5zM1145 1882q-32 -102 -75.5 -146t-111.5 -44q-18 0 -38 3t-42 9l-65 21q-18 6 -35 9t-33 3q-32 0 -51.5 -18t-32.5 -58h-86
q30 102 75 148.5t114 46.5q18 0 38 -3.5t40 -9.5l67 -22q21 -7 37 -10t31 -3q33 0 52.5 17.5t29.5 56.5h86z" />
    <glyph glyph-name="Odieresis" unicode="&#xd6;" horiz-adv-x="1352" 
d="M772 1370q-108 0 -205.5 -60t-167.5 -171q-74 -119 -117.5 -281.5t-43.5 -322.5q0 -197 92 -310.5t250 -113.5q104 0 198.5 55t161.5 156q80 119 127 282.5t47 325.5q0 204 -91.5 322t-250.5 118zM80 553q0 181 51 355t143 309q97 142 227.5 216t284.5 74
q233 0 359.5 -153.5t126.5 -435.5q0 -183 -56 -360.5t-161 -328.5q-86 -123 -210.5 -189.5t-269.5 -66.5q-233 0 -364 153.5t-131 426.5zM921 1679l41 189h160l-41 -189h-160zM600 1679l41 189h160l-41 -189h-160z" />
    <glyph glyph-name="multiply" unicode="&#xd7;" horiz-adv-x="1706" 
d="M858 692l475 477l82 -82l-475 -477l475 -475l-82 -82l-475 475l-477 -475l-80 82l475 475l-475 477l80 82z" />
    <glyph glyph-name="Oslash" unicode="&#xd8;" horiz-adv-x="1352" 
d="M324 236q47 -64 108 -94.5t141 -30.5q104 0 196.5 51.5t162.5 148.5q81 115 131.5 288.5t50.5 340.5q0 40 -7.5 87.5t-25.5 111.5zM266 342l758 903q-49 63 -107.5 93t-132.5 30q-121 0 -217.5 -58t-169.5 -173q-72 -116 -115.5 -282.5t-43.5 -332.5q0 -38 7 -82.5
t21 -97.5zM-20 10l172 207q-37 74 -54.5 155t-17.5 173q0 184 50 360.5t140 308.5q102 148 234 219.5t303 71.5q99 0 174.5 -31.5t140.5 -99.5l138 158l96 -84l-154 -182q35 -78 52.5 -164t17.5 -182q0 -183 -56 -361.5t-161 -329.5q-87 -123 -212.5 -189.5t-273.5 -66.5
q-104 0 -187 33t-153 100l-153 -182z" />
    <glyph glyph-name="Ugrave" unicode="&#xd9;" horiz-adv-x="1460" 
d="M369 1481h163l-202 -895q-15 -70 -23 -120.5t-8 -78.5q0 -127 83.5 -198.5t231.5 -71.5q186 0 283 95.5t154 348.5l211 920h163l-217 -953q-71 -311 -202.5 -432t-391.5 -121q-233 0 -355 105t-122 303q0 77 37 242l4 18zM1046 1616h-100l-285 348h166z" />
    <glyph glyph-name="Uacute" unicode="&#xda;" horiz-adv-x="1460" 
d="M369 1481h163l-202 -895q-15 -70 -23 -120.5t-8 -78.5q0 -127 83.5 -198.5t231.5 -71.5q186 0 283 95.5t154 348.5l211 920h163l-217 -953q-71 -311 -202.5 -432t-391.5 -121q-233 0 -355 105t-122 303q0 77 37 242l4 18zM889 1616h-107l236 348h178z" />
    <glyph glyph-name="Ucircumflex" unicode="&#xdb;" horiz-adv-x="1460" 
d="M369 1481h163l-202 -895q-15 -70 -23 -120.5t-8 -78.5q0 -127 83.5 -198.5t231.5 -71.5q186 0 283 95.5t154 348.5l211 920h163l-217 -953q-71 -311 -202.5 -432t-391.5 -121q-233 0 -355 105t-122 303q0 77 37 242l4 18zM1196 1616h-94l-140 229l-231 -229h-107l271 348
h153z" />
    <glyph glyph-name="Udieresis" unicode="&#xdc;" horiz-adv-x="1460" 
d="M369 1481h163l-202 -895q-15 -70 -23 -120.5t-8 -78.5q0 -127 83.5 -198.5t231.5 -71.5q186 0 283 95.5t154 348.5l211 920h163l-217 -953q-71 -311 -202.5 -432t-391.5 -121q-233 0 -355 105t-122 303q0 77 37 242l4 18zM1005 1679l41 189h160l-41 -189h-160zM684 1679
l41 189h160l-41 -189h-160z" />
    <glyph glyph-name="Yacute" unicode="&#xdd;" horiz-adv-x="1006" 
d="M266 0l144 647l-267 834h166l207 -680l424 680h180l-555 -871l-135 -610h-164zM662 1616h-107l236 348h178z" />
    <glyph glyph-name="Thorn" unicode="&#xde;" horiz-adv-x="1241" 
d="M305 492h232q218 0 325 78.5t107 238.5q0 129 -81.5 183.5t-283.5 54.5h-174zM33 0l334 1481h159l-65 -297h174q258 0 380 -90.5t122 -282.5q0 -216 -149 -337.5t-415 -121.5h-301l-79 -352h-160z" />
    <glyph glyph-name="germandbls" unicode="&#xdf;" horiz-adv-x="1079" 
d="M4 0l215 1018q51 241 156 353t280 112q155 0 248.5 -91t93.5 -241q0 -134 -76.5 -240t-187.5 -125q100 -29 156.5 -114t56.5 -205q0 -211 -122 -349t-308 -138q-62 0 -115.5 14.5t-99.5 44.5l57 115q38 -22 75.5 -32.5t76.5 -10.5q124 0 200 99.5t76 264.5
q0 117 -72.5 183.5t-213.5 76.5l20 121q5 0 14.5 -1t14.5 -1q130 0 215.5 84.5t85.5 212.5q0 94 -55 150.5t-146 56.5q-106 0 -167 -74t-101 -260l-221 -1024h-156z" />
    <glyph glyph-name="agrave" unicode="&#xe0;" horiz-adv-x="1044" 
d="M633 283l63 284q-280 -31 -417.5 -104.5t-137.5 -194.5q0 -66 47 -109.5t119 -43.5q74 0 157.5 43t168.5 125zM584 0l12 123q-66 -69 -145.5 -103t-174.5 -34q-128 0 -207 76.5t-79 199.5q0 183 188 294.5t545 139.5q6 37 8 54t2 28q0 86 -57.5 134.5t-159.5 48.5
q-89 0 -155 -39t-107 -115l-125 80q67 98 168.5 146t243.5 48q151 0 244.5 -80.5t93.5 -209.5q0 -37 -8 -89t-25 -124l-72 -326q-16 -72 -24.5 -133.5t-8.5 -104.5v-14h-157zM722 1194h-100l-285 348h166z" />
    <glyph glyph-name="aacute" unicode="&#xe1;" horiz-adv-x="1044" 
d="M633 283l63 284q-280 -31 -417.5 -104.5t-137.5 -194.5q0 -66 47 -109.5t119 -43.5q74 0 157.5 43t168.5 125zM584 0l12 123q-66 -69 -145.5 -103t-174.5 -34q-128 0 -207 76.5t-79 199.5q0 183 188 294.5t545 139.5q6 37 8 54t2 28q0 86 -57.5 134.5t-159.5 48.5
q-89 0 -155 -39t-107 -115l-125 80q67 98 168.5 146t243.5 48q151 0 244.5 -80.5t93.5 -209.5q0 -37 -8 -89t-25 -124l-72 -326q-16 -72 -24.5 -133.5t-8.5 -104.5v-14h-157zM565 1194h-107l236 348h178z" />
    <glyph glyph-name="acircumflex" unicode="&#xe2;" horiz-adv-x="1044" 
d="M633 283l63 284q-280 -31 -417.5 -104.5t-137.5 -194.5q0 -66 47 -109.5t119 -43.5q74 0 157.5 43t168.5 125zM584 0l12 123q-66 -69 -145.5 -103t-174.5 -34q-128 0 -207 76.5t-79 199.5q0 183 188 294.5t545 139.5q6 37 8 54t2 28q0 86 -57.5 134.5t-159.5 48.5
q-89 0 -155 -39t-107 -115l-125 80q67 98 168.5 146t243.5 48q151 0 244.5 -80.5t93.5 -209.5q0 -37 -8 -89t-25 -124l-72 -326q-16 -72 -24.5 -133.5t-8.5 -104.5v-14h-157zM872 1194h-94l-140 229l-231 -229h-107l271 348h153z" />
    <glyph glyph-name="atilde" unicode="&#xe3;" horiz-adv-x="1044" 
d="M633 283l63 284q-280 -31 -417.5 -104.5t-137.5 -194.5q0 -66 47 -109.5t119 -43.5q74 0 157.5 43t168.5 125zM584 0l12 123q-66 -69 -145.5 -103t-174.5 -34q-128 0 -207 76.5t-79 199.5q0 183 188 294.5t545 139.5q6 37 8 54t2 28q0 86 -57.5 134.5t-159.5 48.5
q-89 0 -155 -39t-107 -115l-125 80q67 98 168.5 146t243.5 48q151 0 244.5 -80.5t93.5 -209.5q0 -37 -8 -89t-25 -124l-72 -326q-16 -72 -24.5 -133.5t-8.5 -104.5v-14h-157zM905 1460q-32 -102 -75.5 -146t-111.5 -44q-18 0 -38 3t-42 9l-65 21q-18 6 -35 9t-33 3
q-32 0 -51.5 -18t-32.5 -58h-86q30 102 75 148.5t114 46.5q18 0 38 -3.5t40 -9.5l67 -22q21 -7 37 -10t31 -3q33 0 52.5 17.5t29.5 56.5h86z" />
    <glyph glyph-name="adieresis" unicode="&#xe4;" horiz-adv-x="1044" 
d="M633 283l63 284q-280 -31 -417.5 -104.5t-137.5 -194.5q0 -66 47 -109.5t119 -43.5q74 0 157.5 43t168.5 125zM584 0l12 123q-66 -69 -145.5 -103t-174.5 -34q-128 0 -207 76.5t-79 199.5q0 183 188 294.5t545 139.5q6 37 8 54t2 28q0 86 -57.5 134.5t-159.5 48.5
q-89 0 -155 -39t-107 -115l-125 80q67 98 168.5 146t243.5 48q151 0 244.5 -80.5t93.5 -209.5q0 -37 -8 -89t-25 -124l-72 -326q-16 -72 -24.5 -133.5t-8.5 -104.5v-14h-157zM681 1257l41 189h160l-41 -189h-160zM360 1257l41 189h160l-41 -189h-160z" />
    <glyph glyph-name="aring" unicode="&#xe5;" horiz-adv-x="1044" 
d="M465 1391q0 -63 43 -105.5t106 -42.5q62 0 105 42.5t43 105.5t-43 107t-105 44t-105.5 -44t-43.5 -107zM367 1393q0 104 71.5 175.5t175.5 71.5q105 0 176.5 -71.5t71.5 -175.5q0 -105 -71.5 -176.5t-176.5 -71.5q-104 0 -175.5 71.5t-71.5 176.5zM633 283l63 284
q-280 -31 -417.5 -104.5t-137.5 -194.5q0 -66 47 -109.5t119 -43.5q74 0 157.5 43t168.5 125zM584 0l12 123q-66 -69 -145.5 -103t-174.5 -34q-128 0 -207 76.5t-79 199.5q0 183 188 294.5t545 139.5q6 37 8 54t2 28q0 86 -57.5 134.5t-159.5 48.5q-89 0 -155 -39t-107 -115
l-125 80q67 98 168.5 146t243.5 48q151 0 244.5 -80.5t93.5 -209.5q0 -37 -8 -89t-25 -124l-72 -326q-16 -72 -24.5 -133.5t-8.5 -104.5v-14h-157z" />
    <glyph glyph-name="ae" unicode="&#xe6;" horiz-adv-x="1683" 
d="M850 633h557v31q0 138 -63 216t-175 78q-113 0 -195.5 -83.5t-123.5 -241.5zM684 563q-273 -29 -413 -102.5t-140 -188.5q0 -74 46 -120t122 -46q68 0 151 39.5t173 114.5zM721 184q-110 -103 -219 -152.5t-228 -49.5q-134 0 -214 75t-80 199q0 185 181.5 293.5
t547.5 142.5q4 26 6 50.5t2 45.5q0 77 -55.5 123.5t-147.5 46.5q-88 0 -157 -38t-124 -117l-116 76q72 105 164 154.5t217 49.5t207 -39.5t124 -121.5q76 83 158.5 122t181.5 39q190 0 288.5 -117t98.5 -343q0 -42 -0.5 -65.5t-1.5 -45.5h-728q-6 -35 -8.5 -65t-2.5 -56
q0 -131 70 -208t190 -77q90 0 161 46t132 143l113 -82q-83 -115 -187 -173t-227 -58q-122 0 -211 52t-135 150z" />
    <glyph glyph-name="ccedilla" unicode="&#xe7;" horiz-adv-x="1006" 
d="M723 299l108 -76q-70 -124 -169 -183.5t-234 -59.5q-193 0 -294 114.5t-101 333.5q0 288 142 470.5t364 182.5q154 0 250.5 -82.5t123.5 -238.5l-139 -33q-29 120 -87.5 177t-151.5 57q-153 0 -254 -157.5t-101 -397.5q0 -143 63 -223.5t175 -80.5q92 0 165.5 47
t139.5 150zM74 -418l31 86q68 -20 124 -30.5t99 -10.5q61 0 93 27t32 78q0 44 -36.5 63t-127.5 19h-37l63 186h72l-35 -106h19q112 0 163.5 -40.5t51.5 -127.5q0 -88 -64.5 -141.5t-173.5 -53.5q-53 0 -121 12.5t-153 38.5z" />
    <glyph glyph-name="egrave" unicode="&#xe8;" horiz-adv-x="1034" 
d="M199 633h557q0 6 1 17.5t1 17.5q0 137 -64.5 216t-175.5 79q-112 0 -198 -88.5t-121 -241.5zM721 291l108 -78q-79 -116 -180.5 -173.5t-226.5 -57.5q-195 0 -298.5 116t-103.5 334q0 289 142 469t368 180q185 0 282 -118t97 -342q0 -27 -1.5 -54.5t-4.5 -56.5h-729
q-4 -25 -6 -52.5t-2 -60.5q0 -135 68 -214t184 -79q87 0 161.5 46t141.5 141zM681 1194h-100l-285 348h166z" />
    <glyph glyph-name="eacute" unicode="&#xe9;" horiz-adv-x="1034" 
d="M199 633h557q0 6 1 17.5t1 17.5q0 137 -64.5 216t-175.5 79q-112 0 -198 -88.5t-121 -241.5zM721 291l108 -78q-79 -116 -180.5 -173.5t-226.5 -57.5q-195 0 -298.5 116t-103.5 334q0 289 142 469t368 180q185 0 282 -118t97 -342q0 -27 -1.5 -54.5t-4.5 -56.5h-729
q-4 -25 -6 -52.5t-2 -60.5q0 -135 68 -214t184 -79q87 0 161.5 46t141.5 141zM524 1194h-107l236 348h178z" />
    <glyph glyph-name="ecircumflex" unicode="&#xea;" horiz-adv-x="1034" 
d="M199 633h557q0 6 1 17.5t1 17.5q0 137 -64.5 216t-175.5 79q-112 0 -198 -88.5t-121 -241.5zM721 291l108 -78q-79 -116 -180.5 -173.5t-226.5 -57.5q-195 0 -298.5 116t-103.5 334q0 289 142 469t368 180q185 0 282 -118t97 -342q0 -27 -1.5 -54.5t-4.5 -56.5h-729
q-4 -25 -6 -52.5t-2 -60.5q0 -135 68 -214t184 -79q87 0 161.5 46t141.5 141zM831 1194h-94l-140 229l-231 -229h-107l271 348h153z" />
    <glyph glyph-name="edieresis" unicode="&#xeb;" horiz-adv-x="1034" 
d="M199 633h557q0 6 1 17.5t1 17.5q0 137 -64.5 216t-175.5 79q-112 0 -198 -88.5t-121 -241.5zM721 291l108 -78q-79 -116 -180.5 -173.5t-226.5 -57.5q-195 0 -298.5 116t-103.5 334q0 289 142 469t368 180q185 0 282 -118t97 -342q0 -27 -1.5 -54.5t-4.5 -56.5h-729
q-4 -25 -6 -52.5t-2 -60.5q0 -135 68 -214t184 -79q87 0 161.5 46t141.5 141zM640 1257l41 189h160l-41 -189h-160zM319 1257l41 189h160l-41 -189h-160z" />
    <glyph glyph-name="igrave" unicode="&#xec;" horiz-adv-x="563" 
d="M35 0l237 1067h152l-236 -1067h-153zM513 1194h-100l-285 348h166z" />
    <glyph glyph-name="iacute" unicode="&#xed;" horiz-adv-x="563" 
d="M35 0l237 1067h152l-236 -1067h-153zM356 1194h-107l236 348h178z" />
    <glyph glyph-name="icircumflex" unicode="&#xee;" horiz-adv-x="563" 
d="M35 0l237 1067h152l-236 -1067h-153zM663 1194h-94l-140 229l-231 -229h-107l271 348h153z" />
    <glyph glyph-name="idieresis" unicode="&#xef;" horiz-adv-x="563" 
d="M35 0l237 1067h152l-236 -1067h-153zM472 1257l41 189h160l-41 -189h-160zM151 1257l41 189h160l-41 -189h-160z" />
    <glyph glyph-name="eth" unicode="&#xf0;" horiz-adv-x="1006" 
d="M512 913q-153 0 -252.5 -148.5t-99.5 -377.5q0 -143 62 -216t184 -73q150 0 249 148.5t99 374.5q0 135 -65.5 213.5t-176.5 78.5zM688 995q-41 75 -84.5 131t-93.5 101l-291 -146l-45 72l262 131q-30 25 -73 49.5t-109 55.5l39 94q69 -28 133 -63t125 -79l283 140l43 -70
l-256 -127q136 -120 207 -285t71 -364q0 -292 -140 -473.5t-362 -181.5q-181 0 -283 109.5t-102 305.5q0 280 144.5 456.5t371.5 176.5q52 0 90.5 -8t69.5 -25z" />
    <glyph glyph-name="ntilde" unicode="&#xf1;" horiz-adv-x="1124" 
d="M12 0l236 1067h141l-35 -160q79 87 167.5 130.5t183.5 43.5q120 0 189 -69.5t69 -192.5q0 -32 -6 -73.5t-19 -100.5l-143 -645h-148l154 691q7 30 10.5 58.5t3.5 53.5q0 75 -38.5 113t-114.5 38q-74 0 -162 -49t-170 -137l-172 -768h-146zM975 1460q-32 -102 -75.5 -146
t-111.5 -44q-18 0 -38 3t-42 9l-65 21q-18 6 -35 9t-33 3q-32 0 -51.5 -18t-32.5 -58h-86q30 102 75 148.5t114 46.5q18 0 38 -3.5t40 -9.5l67 -22q21 -7 37 -10t31 -3q33 0 52.5 17.5t29.5 56.5h86z" />
    <glyph glyph-name="ograve" unicode="&#xf2;" horiz-adv-x="1006" 
d="M512 963q-152 0 -252 -156t-100 -397q0 -152 62 -230t184 -78q150 0 249 156.5t99 396.5q0 143 -65 225.5t-177 82.5zM12 418q0 291 144.5 478t365.5 187q176 0 277.5 -116.5t101.5 -319.5q0 -289 -143 -478t-359 -189q-182 0 -284.5 115.5t-102.5 322.5zM697 1194h-100
l-285 348h166z" />
    <glyph glyph-name="oacute" unicode="&#xf3;" horiz-adv-x="1006" 
d="M512 963q-152 0 -252 -156t-100 -397q0 -152 62 -230t184 -78q150 0 249 156.5t99 396.5q0 143 -65 225.5t-177 82.5zM12 418q0 291 144.5 478t365.5 187q176 0 277.5 -116.5t101.5 -319.5q0 -289 -143 -478t-359 -189q-182 0 -284.5 115.5t-102.5 322.5zM540 1194h-107
l236 348h178z" />
    <glyph glyph-name="ocircumflex" unicode="&#xf4;" horiz-adv-x="1006" 
d="M512 963q-152 0 -252 -156t-100 -397q0 -152 62 -230t184 -78q150 0 249 156.5t99 396.5q0 143 -65 225.5t-177 82.5zM12 418q0 291 144.5 478t365.5 187q176 0 277.5 -116.5t101.5 -319.5q0 -289 -143 -478t-359 -189q-182 0 -284.5 115.5t-102.5 322.5zM847 1194h-94
l-140 229l-231 -229h-107l271 348h153z" />
    <glyph glyph-name="otilde" unicode="&#xf5;" horiz-adv-x="1006" 
d="M512 963q-152 0 -252 -156t-100 -397q0 -152 62 -230t184 -78q150 0 249 156.5t99 396.5q0 143 -65 225.5t-177 82.5zM12 418q0 291 144.5 478t365.5 187q176 0 277.5 -116.5t101.5 -319.5q0 -289 -143 -478t-359 -189q-182 0 -284.5 115.5t-102.5 322.5zM880 1460
q-32 -102 -75.5 -146t-111.5 -44q-18 0 -38 3t-42 9l-65 21q-18 6 -35 9t-33 3q-32 0 -51.5 -18t-32.5 -58h-86q30 102 75 148.5t114 46.5q18 0 38 -3.5t40 -9.5l67 -22q21 -7 37 -10t31 -3q33 0 52.5 17.5t29.5 56.5h86z" />
    <glyph glyph-name="odieresis" unicode="&#xf6;" horiz-adv-x="1006" 
d="M512 963q-152 0 -252 -156t-100 -397q0 -152 62 -230t184 -78q150 0 249 156.5t99 396.5q0 143 -65 225.5t-177 82.5zM12 418q0 291 144.5 478t365.5 187q176 0 277.5 -116.5t101.5 -319.5q0 -289 -143 -478t-359 -189q-182 0 -284.5 115.5t-102.5 322.5zM656 1257
l41 189h160l-41 -189h-160zM335 1257l41 189h160l-41 -189h-160z" />
    <glyph glyph-name="divide" unicode="&#xf7;" horiz-adv-x="1706" 
d="M854 365q47 0 81 -34t34 -81t-33.5 -81t-81.5 -34t-81.5 33.5t-33.5 81.5t34 81.5t81 33.5zM1452 670v-117h-1198v117h1198zM854 1085q48 0 81.5 -33.5t33.5 -80.5q0 -48 -33.5 -81.5t-81.5 -33.5q-49 0 -82 33.5t-33 81.5q0 47 34 80.5t81 33.5z" />
    <glyph glyph-name="oslash" unicode="&#xf8;" horiz-adv-x="1006" 
d="M236 170q34 -35 75.5 -51.5t94.5 -16.5q153 0 251.5 158t98.5 408q0 27 -5 58.5t-14 63.5zM178 271l502 620q-33 36 -73.5 54t-90.5 18q-156 0 -255 -159t-99 -411q0 -25 3.5 -53.5t12.5 -68.5zM-53 -6l127 158q-30 56 -45 119t-15 135q0 300 142 489.5t364 189.5
q73 0 132.5 -20.5t109.5 -63.5l98 121l92 -73l-112 -140q32 -60 47.5 -124t15.5 -136q0 -137 -39.5 -266.5t-107.5 -218.5q-73 -95 -162.5 -138.5t-208.5 -43.5q-67 0 -124.5 19t-108.5 58l-111 -139z" />
    <glyph glyph-name="ugrave" unicode="&#xf9;" horiz-adv-x="1124" 
d="M1030 1067l-233 -1067h-142l33 156q-78 -86 -166 -129t-184 -43q-120 0 -189 69.5t-69 192.5q0 32 5.5 72.5t18.5 101.5l146 647h147l-153 -694q-8 -33 -12.5 -62t-4.5 -49q0 -76 39 -114.5t115 -38.5q74 0 161.5 49t170.5 137l172 772h145zM792 1194h-100l-285 348h166z
" />
    <glyph glyph-name="uacute" unicode="&#xfa;" horiz-adv-x="1124" 
d="M1030 1067l-233 -1067h-142l33 156q-78 -86 -166 -129t-184 -43q-120 0 -189 69.5t-69 192.5q0 32 5.5 72.5t18.5 101.5l146 647h147l-153 -694q-8 -33 -12.5 -62t-4.5 -49q0 -76 39 -114.5t115 -38.5q74 0 161.5 49t170.5 137l172 772h145zM635 1194h-107l236 348h178z
" />
    <glyph glyph-name="ucircumflex" unicode="&#xfb;" horiz-adv-x="1124" 
d="M1030 1067l-233 -1067h-142l33 156q-78 -86 -166 -129t-184 -43q-120 0 -189 69.5t-69 192.5q0 32 5.5 72.5t18.5 101.5l146 647h147l-153 -694q-8 -33 -12.5 -62t-4.5 -49q0 -76 39 -114.5t115 -38.5q74 0 161.5 49t170.5 137l172 772h145zM942 1194h-94l-140 229
l-231 -229h-107l271 348h153z" />
    <glyph glyph-name="udieresis" unicode="&#xfc;" horiz-adv-x="1124" 
d="M1030 1067l-233 -1067h-142l33 156q-78 -86 -166 -129t-184 -43q-120 0 -189 69.5t-69 192.5q0 32 5.5 72.5t18.5 101.5l146 647h147l-153 -694q-8 -33 -12.5 -62t-4.5 -49q0 -76 39 -114.5t115 -38.5q74 0 161.5 49t170.5 137l172 772h145zM751 1257l41 189h160
l-41 -189h-160zM430 1257l41 189h160l-41 -189h-160z" />
    <glyph glyph-name="yacute" unicode="&#xfd;" horiz-adv-x="891" 
d="M334 -102q-82 -173 -157.5 -230t-196.5 -57q-43 0 -73.5 7.5t-53.5 23.5l36 114q28 -10 54 -15t51 -5q62 0 106.5 36.5t85.5 123.5l50 100l-154 1071h141l117 -852l389 852h156zM519 1194h-107l236 348h178z" />
    <glyph glyph-name="thorn" unicode="&#xfe;" horiz-adv-x="1124" 
d="M227 338q20 -104 86.5 -163.5t163.5 -59.5q75 0 139.5 35t108.5 100q55 80 88 194.5t33 227.5q0 135 -57.5 209.5t-161.5 74.5q-74 0 -150 -42t-151 -126zM-82 -389l422 1870h154l-117 -518q50 57 118.5 87.5t149.5 30.5q167 0 258.5 -108.5t91.5 -306.5
q0 -138 -42.5 -273t-118.5 -237q-63 -86 -149.5 -130t-192.5 -44q-117 0 -192 45t-112 139l-125 -555h-145z" />
    <glyph glyph-name="ydieresis" unicode="&#xff;" horiz-adv-x="891" 
d="M334 -102q-82 -173 -157.5 -230t-196.5 -57q-43 0 -73.5 7.5t-53.5 23.5l36 114q28 -10 54 -15t51 -5q62 0 106.5 36.5t85.5 123.5l50 100l-154 1071h141l117 -852l389 852h156zM635 1257l41 189h160l-41 -189h-160zM314 1257l41 189h160l-41 -189h-160z" />
    <glyph glyph-name="Cacute" unicode="&#x106;" horiz-adv-x="1237" 
d="M963 406l133 -82q-99 -180 -225.5 -267.5t-286.5 -87.5q-243 0 -373.5 148t-130.5 424q0 202 63 395.5t176 339.5q88 114 200.5 171.5t246.5 57.5q201 0 314.5 -108.5t150.5 -335.5l-158 -27q-25 168 -99 248t-204 80q-106 0 -195 -53.5t-153 -155.5
q-81 -132 -127.5 -298t-46.5 -325q0 -197 87.5 -307t244.5 -110q109 0 206.5 74.5t176.5 218.5zM764 1616h-107l236 348h178z" />
    <glyph glyph-name="cacute" unicode="&#x107;" horiz-adv-x="1006" 
d="M723 299l108 -76q-70 -124 -169 -183.5t-234 -59.5q-193 0 -294 114.5t-101 333.5q0 288 142 470.5t364 182.5q154 0 250.5 -82.5t123.5 -238.5l-139 -33q-29 120 -87.5 177t-151.5 57q-153 0 -254 -157.5t-101 -397.5q0 -143 63 -223.5t175 -80.5q92 0 165.5 47
t139.5 150zM530 1194h-107l236 348h178z" />
    <glyph glyph-name="Ccaron" unicode="&#x10c;" horiz-adv-x="1237" 
d="M963 406l133 -82q-99 -180 -225.5 -267.5t-286.5 -87.5q-243 0 -373.5 148t-130.5 424q0 202 63 395.5t176 339.5q88 114 200.5 171.5t246.5 57.5q201 0 314.5 -108.5t150.5 -335.5l-158 -27q-25 168 -99 248t-204 80q-106 0 -195 -53.5t-153 -155.5
q-81 -132 -127.5 -298t-46.5 -325q0 -197 87.5 -307t244.5 -110q109 0 206.5 74.5t176.5 218.5zM561 1964h96l139 -227l230 227h106l-268 -348h-154z" />
    <glyph glyph-name="ccaron" unicode="&#x10d;" horiz-adv-x="1006" 
d="M723 299l108 -76q-70 -124 -169 -183.5t-234 -59.5q-193 0 -294 114.5t-101 333.5q0 288 142 470.5t364 182.5q154 0 250.5 -82.5t123.5 -238.5l-139 -33q-29 120 -87.5 177t-151.5 57q-153 0 -254 -157.5t-101 -397.5q0 -143 63 -223.5t175 -80.5q92 0 165.5 47
t139.5 150zM327 1542h96l139 -227l230 227h106l-268 -348h-154z" />
    <glyph glyph-name="dcroat" unicode="&#x111;" horiz-adv-x="1128" 
d="M788 711q-18 103 -85.5 164t-163.5 61q-156 0 -260.5 -156t-104.5 -387q0 -136 57.5 -210t163.5 -74q74 0 149 41.5t150 123.5zM1108 1481l-39 -181h188l-22 -104h-191l-266 -1196h-137l29 127q-60 -72 -133 -107.5t-160 -35.5q-168 0 -260 108.5t-92 306.5
q0 283 143 475.5t358 192.5q114 0 190 -47t111 -139l70 315h-315l22 104h318l41 181h145z" />
    <glyph glyph-name="Gbreve" unicode="&#x11e;" horiz-adv-x="1352" 
d="M1036 0h-141l27 137q-69 -83 -159.5 -123.5t-205.5 -40.5q-218 0 -346.5 149.5t-128.5 405.5q0 189 58.5 382.5t160.5 340.5q87 126 205.5 190t261.5 64q200 0 325 -114t146 -318l-158 -18q-15 142 -103 225.5t-222 83.5q-102 0 -188 -55.5t-152 -165.5
q-78 -129 -124 -298t-46 -325q0 -182 89.5 -292.5t233.5 -110.5q169 0 285.5 122t138.5 324h-342l31 139h508zM639 1927h88v-20q0 -63 38.5 -94t117.5 -31q85 0 141.5 35.5t89.5 109.5h92q-41 -139 -124.5 -206.5t-213.5 -67.5q-114 0 -172.5 58t-58.5 171q0 18 0.5 27
t1.5 18z" />
    <glyph glyph-name="gbreve" unicode="&#x11f;" horiz-adv-x="1010" 
d="M512 965q-113 0 -186.5 -82t-73.5 -209q0 -92 62.5 -152.5t158.5 -60.5q118 0 191 77.5t73 202.5q0 100 -62.5 162t-162.5 62zM215 76q-79 -28 -118.5 -69t-39.5 -97q0 -74 86 -121t228 -47q134 0 218.5 45t84.5 113q0 94 -297 146q-102 18 -162 30zM106 131
q-40 23 -59.5 54.5t-19.5 72.5q0 61 43 105t137 79q-52 43 -78.5 102.5t-26.5 135.5q0 172 115.5 287.5t290.5 115.5q74 0 133 -18t113 -57q41 45 80.5 65.5t89.5 20.5q11 0 20 -1t18 -3l1 -136h-25q-39 0 -69 -7.5t-48 -22.5q27 -44 40 -90t13 -97q0 -177 -109.5 -286
t-289.5 -109q-46 0 -88 10.5t-88 34.5q-61 -25 -89 -51t-28 -55q0 -57 194 -90q95 -17 154 -29q152 -30 218.5 -88.5t66.5 -159.5q0 -132 -124.5 -217.5t-323.5 -85.5q-205 0 -328 78.5t-123 204.5q0 86 45.5 143t144.5 94zM384 1505h88v-20q0 -63 38.5 -94t117.5 -31
q85 0 141.5 35.5t89.5 109.5h92q-41 -139 -124.5 -206.5t-213.5 -67.5q-114 0 -172.5 58t-58.5 171q0 18 0.5 27t1.5 18z" />
    <glyph glyph-name="Idotaccent" unicode="&#x130;" horiz-adv-x="563" 
d="M37 0l328 1481h163l-327 -1481h-164zM393 1675l43 199h167l-40 -199h-170z" />
    <glyph glyph-name="dotlessi" unicode="&#x131;" horiz-adv-x="563" 
d="M35 0l237 1067h152l-236 -1067h-153z" />
    <glyph glyph-name="Lslash" unicode="&#x141;" horiz-adv-x="1020" 
d="M51 0l135 610l-213 -125l33 152l213 125l160 719h166l-144 -647l363 208l-35 -151l-362 -211l-119 -539h698l-31 -141h-864z" />
    <glyph glyph-name="lslash" unicode="&#x142;" horiz-adv-x="588" 
d="M47 0l152 680l-187 -107l29 132l186 106l148 670h153l-135 -615l185 107l-29 -131l-187 -107l-161 -735h-154z" />
    <glyph glyph-name="OE" unicode="&#x152;" horiz-adv-x="1958" 
d="M989 428l131 606q3 13 3.5 19.5t0.5 13.5q0 36 -13 78t-36 78q-49 75 -116.5 111t-157.5 36q-111 0 -208 -60t-167 -173q-74 -119 -118 -282t-44 -320q0 -187 88 -304.5t226 -117.5q60 0 123.5 28t134.5 86q59 49 101.5 105.5t51.5 95.5zM932 174q-87 -101 -176 -150
t-187 -49q-208 0 -335.5 157t-127.5 419q0 180 51 355t142 308q98 145 229.5 219t288.5 74q136 0 223 -53t138 -168l43 193h737l-31 -138h-581l-111 -501h481l-28 -135h-484l-125 -568h690l-30 -137h-848z" />
    <glyph glyph-name="oe" unicode="&#x153;" horiz-adv-x="1720" 
d="M915 633h560v31q0 141 -65.5 220t-182.5 79q-106 0 -188.5 -87.5t-123.5 -242.5zM506 963q-146 0 -245 -157.5t-99 -391.5q0 -153 62.5 -231.5t185.5 -78.5q150 0 248 156t98 397q0 145 -66 225.5t-184 80.5zM782 199q-76 -112 -172 -165.5t-221 -53.5q-178 0 -277.5 115
t-99.5 321q0 292 147 480.5t369 188.5q115 0 201.5 -56t128.5 -157q72 104 169.5 158.5t211.5 54.5q189 0 288 -118.5t99 -345.5q0 -17 -2.5 -54.5t-3.5 -56.5h-729q-4 -27 -6 -54.5t-2 -54.5q0 -136 67.5 -216.5t182.5 -80.5q87 0 165.5 50t133.5 141l112 -82
q-83 -121 -185 -177t-237 -56q-122 0 -210 56.5t-130 162.5z" />
    <glyph glyph-name="Scedilla" unicode="&#x15e;" horiz-adv-x="1233" 
d="M68 397l153 52q43 -161 136 -243.5t231 -82.5q128 0 206 73t78 191q0 165 -288 317l-9 5q-203 108 -275.5 201.5t-72.5 226.5q0 165 114.5 267.5t299.5 102.5q187 0 307.5 -95t169.5 -282l-143 -43q-37 141 -123 213t-217 72q-115 0 -181.5 -64t-66.5 -175
q0 -79 59.5 -142.5t262.5 -171.5q198 -106 262.5 -197t64.5 -233q0 -185 -125 -299.5t-329 -114.5q-202 0 -335.5 109.5t-178.5 312.5zM139 -418l31 86q68 -20 124 -30.5t99 -10.5q61 0 93 27t32 78q0 44 -36.5 63t-127.5 19h-37l63 186h72l-35 -106h19q112 0 163.5 -40.5
t51.5 -127.5q0 -88 -64.5 -141.5t-173.5 -53.5q-53 0 -121 12.5t-153 38.5z" />
    <glyph glyph-name="scedilla" unicode="&#x15f;" horiz-adv-x="891" 
d="M-33 227l121 80q66 -105 135.5 -148.5t169.5 -43.5q88 0 138.5 45t50.5 125q0 106 -201 199l-2 1q-164 76 -215 138t-51 157q0 135 87 219t228 84q131 0 225.5 -57t153.5 -172l-127 -68q-54 94 -113.5 134.5t-142.5 40.5q-71 0 -118.5 -43.5t-47.5 -108.5
q0 -100 169 -181l15 -7q171 -81 231 -151t60 -171q0 -146 -92.5 -232.5t-249.5 -86.5q-145 0 -250.5 61.5t-173.5 185.5zM-30 -418l31 86q68 -20 124 -30.5t99 -10.5q61 0 93 27t32 78q0 44 -36.5 63t-127.5 19h-37l63 186h72l-35 -106h19q112 0 163.5 -40.5t51.5 -127.5
q0 -88 -64.5 -141.5t-173.5 -53.5q-53 0 -121 12.5t-153 38.5z" />
    <glyph glyph-name="Scaron" unicode="&#x160;" horiz-adv-x="1233" 
d="M68 397l153 52q43 -161 136 -243.5t231 -82.5q128 0 206 73t78 191q0 165 -288 317l-9 5q-203 108 -275.5 201.5t-72.5 226.5q0 165 114.5 267.5t299.5 102.5q187 0 307.5 -95t169.5 -282l-143 -43q-37 141 -123 213t-217 72q-115 0 -181.5 -64t-66.5 -175
q0 -79 59.5 -142.5t262.5 -171.5q198 -106 262.5 -197t64.5 -233q0 -185 -125 -299.5t-329 -114.5q-202 0 -335.5 109.5t-178.5 312.5zM571 1964h96l139 -227l230 227h106l-268 -348h-154z" />
    <glyph glyph-name="scaron" unicode="&#x161;" horiz-adv-x="891" 
d="M-33 227l121 80q66 -105 135.5 -148.5t169.5 -43.5q88 0 138.5 45t50.5 125q0 106 -201 199l-2 1q-164 76 -215 138t-51 157q0 135 87 219t228 84q131 0 225.5 -57t153.5 -172l-127 -68q-54 94 -113.5 134.5t-142.5 40.5q-71 0 -118.5 -43.5t-47.5 -108.5
q0 -100 169 -181l15 -7q171 -81 231 -151t60 -171q0 -146 -92.5 -232.5t-249.5 -86.5q-145 0 -250.5 61.5t-173.5 185.5zM316 1542h96l139 -227l230 227h106l-268 -348h-154z" />
    <glyph glyph-name="Ydieresis" unicode="&#x178;" horiz-adv-x="1006" 
d="M266 0l144 647l-267 834h166l207 -680l424 680h180l-555 -871l-135 -610h-164zM778 1679l41 189h160l-41 -189h-160zM457 1679l41 189h160l-41 -189h-160z" />
    <glyph glyph-name="Zcaron" unicode="&#x17d;" horiz-adv-x="1124" 
d="M6 0l27 119l850 1224h-629l29 138h825l-23 -113l-849 -1227h700l-33 -141h-897zM518 1964h96l139 -227l230 227h106l-268 -348h-154z" />
    <glyph glyph-name="zcaron" unicode="&#x17e;" horiz-adv-x="930" 
d="M-23 0l25 113l635 831h-498l29 123h680l-29 -109l-635 -833h566l-33 -125h-740zM335 1542h96l139 -227l230 227h106l-268 -348h-154z" />
    <glyph glyph-name="florin" unicode="&#x192;" horiz-adv-x="1233" 
d="M63 -365l26 138q29 -6 52 -9.5t38 -3.5q91 0 138.5 72.5t103.5 353.5l123 635h-223v129h249l29 131q46 219 129.5 320.5t216.5 101.5q30 0 64 -4t71 -12l-31 -131q-34 9 -54.5 12.5t-37.5 3.5q-85 0 -133.5 -69t-81.5 -248l-20 -105h231v-129h-254l-116 -614
q-68 -353 -155 -469.5t-255 -116.5q-32 0 -59.5 3.5t-50.5 10.5z" />
    <glyph glyph-name="circumflex" unicode="&#x2c6;" 
d="M891 1194h-94l-140 229l-231 -229h-107l271 348h153z" />
    <glyph glyph-name="caron" unicode="&#x2c7;" 
d="M381 1542h96l139 -227l230 227h106l-268 -348h-154z" />
    <glyph glyph-name="breve" unicode="&#x2d8;" 
d="M389 1505h88v-20q0 -63 38.5 -94t117.5 -31q85 0 141.5 35.5t89.5 109.5h92q-41 -139 -124.5 -206.5t-213.5 -67.5q-114 0 -172.5 58t-58.5 171q0 18 0.5 27t1.5 18z" />
    <glyph glyph-name="dotaccent" unicode="&#x2d9;" 
d="M535 1253l43 199h167l-40 -199h-170z" />
    <glyph glyph-name="ring" unicode="&#x2da;" 
d="M487 1421q0 -62 44 -104.5t108 -42.5q62 0 104.5 42.5t42.5 104.5q0 63 -42.5 106.5t-104.5 43.5q-63 0 -107.5 -43.5t-44.5 -106.5zM389 1423q0 105 71.5 176.5t176.5 71.5q104 0 176 -71.5t72 -176.5q0 -104 -72 -175.5t-176 -71.5q-105 0 -176.5 71.5t-71.5 175.5z
" />
    <glyph glyph-name="ogonek" unicode="&#x2db;" 
d="M387 0q-70 -64 -103.5 -118.5t-33.5 -104.5q0 -44 22.5 -63t75.5 -19h94l-26 -129h-66q-114 0 -168.5 40t-54.5 124q0 65 41 125t147 145h72z" />
    <glyph glyph-name="tilde" unicode="&#x2dc;" 
d="M924 1460q-32 -102 -75.5 -146t-111.5 -44q-18 0 -38 3t-42 9l-65 21q-18 6 -35 9t-33 3q-32 0 -51.5 -18t-32.5 -58h-86q30 102 75 148.5t114 46.5q18 0 38 -3.5t40 -9.5l67 -22q21 -7 37 -10t31 -3q33 0 52.5 17.5t29.5 56.5h86z" />
    <glyph glyph-name="hungarumlaut" unicode="&#x2dd;" 
d="M881 1542h155l-260 -348h-84zM598 1542h158l-242 -348h-84z" />
    <glyph glyph-name="Omega" unicode="&#x3a9;" horiz-adv-x="1573" 
d="M1473 156v-156h-590v150q193 111 296 279t103 374q0 251 -137 405t-359 154q-221 0 -359 -155t-138 -404q0 -205 103 -373.5t298 -279.5v-150h-590v156h332q-164 133 -242.5 285t-78.5 335q0 329 188.5 533t486.5 204q299 0 487.5 -202.5t188.5 -530.5
q0 -186 -78.5 -338.5t-242.5 -285.5h332z" />
    <glyph glyph-name="pi" unicode="&#x3c0;" horiz-adv-x="1186" 
d="M1139 930h-185l-110 -516q-14 -66 -21.5 -114.5t-7.5 -74.5q0 -57 24 -81.5t81 -24.5q21 0 46 2.5t52 7.5l-29 -129l-5 -1q-64 -15 -99 -15q-110 0 -168 51.5t-58 150.5q0 48 11.5 121t44.5 230l84 393h-348l-197 -930h-158l197 930h-39q-55 0 -84.5 -31t-40.5 -100h-145
q26 153 94 211.5t223 58.5h866z" />
    <glyph glyph-name="endash" unicode="&#x2013;" 
d="M-57 481l22 107h1024l-22 -107h-1024z" />
    <glyph glyph-name="emdash" unicode="&#x2014;" horiz-adv-x="2048" 
d="M-12 481l24 107h2048l-24 -107h-2048z" />
    <glyph glyph-name="quoteleft" unicode="&#x2018;" horiz-adv-x="473" 
d="M590 1495l-189 -309h80l-47 -217h-209l54 235l206 291h105z" />
    <glyph glyph-name="quoteright" unicode="&#x2019;" horiz-adv-x="473" 
d="M141 954l191 310h-82l49 217h209l-53 -234l-207 -293h-107z" />
    <glyph glyph-name="quotesinglbase" unicode="&#x201a;" horiz-adv-x="473" 
d="M-139 -309l190 309h-82l47 219h209l-53 -235l-205 -293h-106z" />
    <glyph glyph-name="quotedblleft" unicode="&#x201c;" horiz-adv-x="848" 
d="M590 1495l-191 -309h82l-47 -217h-211l53 235l207 291h107zM965 1495l-191 -309h82l-49 -217h-209l53 235l207 291h107z" />
    <glyph glyph-name="quotedblright" unicode="&#x201d;" horiz-adv-x="848" 
d="M516 954l191 310h-82l49 217h209l-54 -234l-206 -293h-107zM141 954l191 310h-82l49 217h209l-53 -234l-207 -293h-107z" />
    <glyph glyph-name="quotedblbase" unicode="&#x201e;" horiz-adv-x="848" 
d="M240 -309l188 309h-80l47 217h209l-53 -235l-205 -291h-106zM-139 -309l188 309h-80l47 217h209l-53 -235l-207 -291h-104z" />
    <glyph glyph-name="dagger" unicode="&#x2020;" 
d="M301 -223l4 19q119 626 129 849l121 346l-330 -49l33 172l315 -53l39 420h176l-141 -420l338 49l-39 -172l-315 51l-21 -352q-24 -52 -84 -267t-155 -593h-70z" />
    <glyph glyph-name="daggerdbl" unicode="&#x2021;" 
d="M250 -201l137 412l-332 -45l41 176l314 -53l24 362l121 340l-332 -45l35 168l313 -47l43 414h177l-138 -418l332 49l-39 -174l-313 49l-23 -350l-127 -348l334 51l-37 -180l-309 49l-43 -410h-178z" />
    <glyph glyph-name="bullet" unicode="&#x2022;" horiz-adv-x="1208" 
d="M307 762q0 123 87 209t210 86q122 0 208.5 -86.5t86.5 -208.5t-87.5 -209.5t-209.5 -87.5q-123 0 -209 87t-86 210z" />
    <glyph glyph-name="ellipsis" unicode="&#x2026;" horiz-adv-x="2048" 
d="M72 0l49 223h209l-49 -223h-209zM754 0l49 223h209l-49 -223h-209zM1438 0l49 223h209l-49 -223h-209z" />
    <glyph glyph-name="perthousand" unicode="&#x2030;" horiz-adv-x="2605" 
d="M1946 315q0 -87 61.5 -149t149.5 -62q87 0 147.5 61.5t60.5 149.5q0 89 -59.5 149t-148.5 60q-90 0 -150.5 -60t-60.5 -149zM1817 315q0 143 98 240.5t242 97.5q142 0 239.5 -97.5t97.5 -240.5q0 -142 -98 -241t-239 -99q-142 0 -241 99t-99 241zM1077 315q0 -87 62 -149
t149 -62q88 0 148.5 61.5t60.5 149.5q0 89 -60 149t-149 60t-150 -60t-61 -149zM948 315q0 143 98.5 240.5t241.5 97.5t240.5 -97.5t97.5 -240.5q0 -142 -98 -241t-240 -99t-241 99t-99 241zM387 -25l844 1528h115l-846 -1528h-113zM104 1163q0 143 98 241.5t240 98.5
q143 0 241.5 -98.5t98.5 -241.5q0 -142 -98.5 -240t-241.5 -98q-142 0 -240 98t-98 240zM233 1163q0 -88 61 -149.5t148 -61.5q88 0 149.5 61.5t61.5 149.5q0 89 -61 150t-150 61q-88 0 -148.5 -60.5t-60.5 -150.5z" />
    <glyph glyph-name="guilsinglleft" unicode="&#x2039;" horiz-adv-x="688" 
d="M500 844l-262 -309l206 -316h-141l-207 316l262 309h142z" />
    <glyph glyph-name="guilsinglright" unicode="&#x203a;" horiz-adv-x="688" 
d="M84 219l262 309l-207 316h142l204 -316l-260 -309h-141z" />
    <glyph glyph-name="franc" unicode="&#x20a3;" horiz-adv-x="1796" 
d="M47 0l328 1481h760l-29 -138h-602l-111 -501h498l-29 -135h-500l-157 -707h-158zM1130 0l238 1067h147l-47 -209q57 109 137 165t179 56q8 0 17 -0.5t29 -3.5l-34 -157q-6 1 -12 1.5t-19 0.5q-101 0 -192.5 -85.5t-159.5 -244.5l-131 -590h-152z" />
    <glyph glyph-name="trademark" unicode="&#x2122;" horiz-adv-x="1706" 
d="M948 1456l160 -405l149 405h132v-534h-82v458l-172 -458h-54l-180 458v-458h-82v534h129zM694 1456v-67h-172v-467h-94v467h-174v67h440z" />
    <glyph glyph-name="partialdiff" unicode="&#x2202;" horiz-adv-x="1044" 
d="M754 604q13 81 19.5 161.5t6.5 158.5q0 140 -39.5 216.5t-111.5 76.5q-53 0 -117 -63.5t-109 -63.5q-29 0 -51 21.5t-22 51.5q0 59 68 105.5t163 46.5q171 0 273 -152.5t102 -412.5q0 -335 -139 -555t-344 -220q-147 0 -241.5 106.5t-94.5 272.5q0 189 108.5 316
t266.5 127q99 0 162.5 -47t99.5 -146zM709 483q0 117 -45 180.5t-127 63.5q-113 0 -184.5 -127.5t-71.5 -333.5q0 -117 44 -178t128 -61q111 0 183.5 128t72.5 328z" />
    <glyph glyph-name="uni2206" unicode="&#x2206;" horiz-adv-x="1356" 
d="M1122 158l-444 1138l-445 -1138h889zM780 1473l586 -1473h-1374l586 1473h202z" />
    <glyph glyph-name="product" unicode="&#x220f;" horiz-adv-x="1528" 
d="M160 1473h1208v-1866h-201v1693h-809v-1693h-198v1866z" />
    <glyph glyph-name="summation" unicode="&#x2211;" horiz-adv-x="1346" 
d="M51 1473h1239v-166h-989l690 -744l-719 -792h1035v-164h-1289v139l738 813l-705 758v156z" />
    <glyph glyph-name="minus" unicode="&#x2212;" horiz-adv-x="1706" 
d="M1452 670v-119h-1198v119h1198z" />
    <glyph glyph-name="uni2215" unicode="&#x2215;" horiz-adv-x="342" 
d="M-338 -25l907 1528h111l-907 -1528h-111z" />
    <glyph glyph-name="uni2219" unicode="&#x2219;" horiz-adv-x="616" 
d="M207 741q0 53 35.5 88t87.5 35t88.5 -35.5t36.5 -87.5q0 -51 -37 -88t-88 -37t-87 36.5t-36 88.5z" />
    <glyph glyph-name="radical" unicode="&#x221a;" horiz-adv-x="1288" 
d="M1288 1647v-82h-119l-594 -1606h-53l-323 893l-119 -43l-23 68l262 92l265 -729l522 1407h182z" />
    <glyph glyph-name="infinity" unicode="&#x221e;" horiz-adv-x="1706" 
d="M905 559q51 -95 119 -141.5t156 -46.5q102 0 168.5 71t66.5 181q0 108 -61 179.5t-152 71.5q-85 0 -153.5 -72.5t-143.5 -242.5zM803 666q-51 95 -119 142.5t-154 47.5q-105 0 -171 -71t-66 -183q0 -108 61 -179t152 -71q85 0 152 69t145 245zM840 727q67 138 146 204
t175 66q134 0 226 -108.5t92 -272.5q0 -171 -82 -277t-213 -106q-96 0 -169 60t-149 201q-71 -138 -148 -201.5t-173 -63.5q-134 0 -226 109t-92 272q0 172 82.5 277.5t214.5 105.5q97 0 172 -63t144 -203z" />
    <glyph glyph-name="integral" unicode="&#x222b;" horiz-adv-x="1020" 
d="M301 -268q103 0 116 664q3 141 5 216q12 503 102 719.5t281 216.5q76 0 122 -39t46 -104q0 -48 -31 -77.5t-82 -29.5q-53 0 -85 35t-32 92q0 8 -6 15.5t-14 7.5q-105 0 -119 -634q-3 -157 -6 -245q-10 -308 -31.5 -461t-62.5 -247q-49 -114 -123 -173t-168 -59
q-73 0 -119.5 38t-46.5 97q0 53 31.5 84t83.5 31q47 0 79.5 -29t32.5 -67q0 -24 7.5 -37.5t19.5 -13.5z" />
    <glyph glyph-name="approxequal" unicode="&#x2248;" horiz-adv-x="1706" 
d="M1530 453q-107 -75 -202 -110.5t-187 -35.5q-98 0 -288 69.5t-290 69.5q-82 0 -169.5 -35.5t-215.5 -123.5v131q106 73 202 109t185 36q111 0 301.5 -68.5t276.5 -68.5q85 0 173.5 35.5t213.5 122.5v-131zM1530 803q-104 -73 -200 -108.5t-187 -35.5q-100 0 -290 69
t-290 69q-83 0 -171.5 -36t-213.5 -122v131q106 73 202 109t185 36q111 0 300.5 -68.5t277.5 -68.5q87 0 175 35t212 121v-131z" />
    <glyph glyph-name="notequal" unicode="&#x2260;" horiz-adv-x="1706" 
d="M1298 1110l-196 -250h350v-115h-424l-211 -270h635v-115h-709l-251 -319l-89 70l197 249h-346v115h420l211 270h-631v115h704l252 320z" />
    <glyph glyph-name="lessequal" unicode="&#x2264;" horiz-adv-x="1706" 
d="M1444 150v-117h-1182v117h1182zM1444 1067l-977 -324l977 -323v-125l-1182 399v101l1182 397v-125z" />
    <glyph glyph-name="greaterequal" unicode="&#x2265;" horiz-adv-x="1706" 
d="M1444 150v-117h-1182v117h1182zM1444 795v-101l-1182 -399v125l979 323l-979 324v125z" />
    <glyph glyph-name="lozenge" unicode="&#x25ca;" horiz-adv-x="1012" 
d="M506 1409l-385 -817l385 -825l385 825zM506 1653l500 -1061l-500 -1069l-500 1069z" />
    <glyph glyph-name="uniF000" unicode="&#xf000;" horiz-adv-x="1618" 
d="M836 1216q-1 6 -1.5 14t-0.5 23q0 124 95 229.5t236 131.5q1 -10 1.5 -23t0.5 -39q0 -131 -103.5 -234.5t-203.5 -103.5h-8q-3 0 -7.5 1t-8.5 1zM1505 403q-114 -247 -205 -342.5t-204 -95.5q-50 0 -131.5 33t-122.5 33q-45 0 -131 -33t-127 -33q-64 0 -128.5 44
t-129.5 132q-102 140 -157.5 295.5t-55.5 300.5q0 219 125 356.5t323 137.5q68 0 155 -34t124 -34q34 0 121.5 35t152.5 35q110 0 198 -40t161 -124q-102 -65 -151.5 -145.5t-49.5 -182.5q0 -113 60 -200t173 -138z" />
    <glyph glyph-name="uniF001" unicode="&#xf001;" horiz-adv-x="1124" 
d="M899 1311l37 170h174l-39 -170h-172zM39 0l207 944h-178l26 123h180l27 131q33 156 104 229.5t189 73.5q35 0 76.5 -6t89.5 -18l-29 -125q-33 10 -62.5 15t-54.5 5q-70 0 -108 -42t-60 -144l-24 -119h215l-25 -123h-219l-209 -944h-145zM616 0l238 1067h152l-238 -1067
h-152z" />
    <glyph glyph-name="uniF001" unicode="&#xfb01;" horiz-adv-x="1124" 
d="M899 1311l37 170h174l-39 -170h-172zM39 0l207 944h-178l26 123h180l27 131q33 156 104 229.5t189 73.5q35 0 76.5 -6t89.5 -18l-29 -125q-33 10 -62.5 15t-54.5 5q-70 0 -108 -42t-60 -144l-24 -119h215l-25 -123h-219l-209 -944h-145zM616 0l238 1067h152l-238 -1067
h-152z" />
    <glyph glyph-name="uniF002" unicode="&#xf002;" horiz-adv-x="1124" 
d="M616 0l328 1481h152l-328 -1481h-152zM39 0l207 944h-178l26 123h180l27 131q33 156 104 229.5t189 73.5q35 0 76.5 -6t89.5 -18l-29 -125q-33 10 -62.5 15t-54.5 5q-70 0 -108 -42t-60 -144l-24 -119h215l-25 -123h-219l-209 -944h-145z" />
    <glyph glyph-name="uniF002" unicode="&#xfb02;" horiz-adv-x="1124" 
d="M616 0l328 1481h152l-328 -1481h-152zM39 0l207 944h-178l26 123h180l27 131q33 156 104 229.5t189 73.5q35 0 76.5 -6t89.5 -18l-29 -125q-33 10 -62.5 15t-54.5 5q-70 0 -108 -42t-60 -144l-24 -119h215l-25 -123h-219l-209 -944h-145z" />
  </font>
</defs>
</svg>
