<svg width="450" height="400" xmlns="http://www.w3.org/2000/svg">
 <!-- Created with Method Draw - http://github.com/duopixel/Method-Draw/ -->

 <g>
  <title>background</title>
  <rect fill="none" id="canvas_background" height="402" width="452" y="-1" x="-1"/>
 </g>
 <g>
  <title>Layer 1</title>
  <style type="text/css">.st0{fill:#1D71B8;}
	.st1{fill:#E94E1B;}
	.st2{font-family:'MajoramSans';}
	.st3{font-size:6.6353px;}</style>
  <g id="svg_17">
   <g transform="matrix(14.3468, 0, 0, 12.4551, -145.501, -2.66517)" id="svg_5">
    <g id="svg_6">
     <g id="svg_7">
      <g id="svg_8">
       <path id="svg_9" d="m27.216913,11.316727c-0.100006,0.099998 -0.200005,0.299995 -0.300003,0.399998c-1.5,2.299999 -2.800003,4.799999 -3.699997,7.399998c-0.200005,0.600006 -0.600006,1.800003 -1.300003,3.600002c-0.199997,0.600002 -0.400002,1.100002 -0.5,1.5c-0.199997,0.399998 -0.300003,0.600002 -0.300003,0.600002c-0.099998,0 -0.199997,-0.5 -0.199997,-1.5c0,-0.600002 0,-1.200005 0,-1.800003c0,-0.599998 0,-1.199997 0.099998,-1.699997c0.099998,-1.800003 0.200005,-3.400002 0.200005,-5c0,-1.5 -0.100006,-2.600002 -0.200005,-3.400002c-0.199997,-0.800003 -0.400002,-1.200001 -0.799995,-1.200001c-0.600006,0 -1.300003,0.5 -2.100002,1.5c-0.700001,1 -1.599998,2.5 -2.7,4.399998c-0.700001,1.300003 -1.3,2.300003 -1.700002,2.900002c-0.399998,0.599998 -0.699997,0.900002 -1,0.900002c-0.199997,0 -0.299999,-0.300003 -0.399998,-0.900002c-0.100002,-0.599998 -0.100002,-1.400002 -0.100002,-2.5l0,-3.099998c0,-0.400002 0,-0.700001 0,-0.800003c0,-0.199997 -0.099998,-0.399998 -0.399998,-0.399998l-0.299999,0.100002c0.099998,0.099998 0.099998,0.5 0.099998,1.199997l0,2.300003c0,1.399998 0.099998,2.5 0.200001,3.399998c0.099998,0.799999 0.399998,1.299999 0.799999,1.299999c0.299999,0 0.799999,-0.400002 1.299999,-1.199997c0.500001,-0.800003 1.200002,-1.900002 2.100002,-3.5c0.899998,-1.700005 1.700001,-2.900002 2.200001,-3.700005c0.5,-0.799995 1,-1.199997 1.399994,-1.199997c0.300003,0 0.400002,0.299999 0.600006,1c0.099998,0.599998 0.199997,1.5 0.199997,2.699997c0,1.200005 0,2.400002 -0.099998,3.700005c0,0.399998 0,1 -0.099998,1.599998c0,0.599998 0,1.299999 0,2.099998c0,2.400002 0.199997,3.5 0.699997,3.5c0.300003,0 0.5,-0.199997 0.699997,-0.5c0.200005,-0.400002 0.400002,-1 0.800003,-2c0.400002,-1.400002 0.800003,-2.400002 1.099998,-3.199997c1,-2.800003 2.200005,-5.300003 3.800003,-7.700005c0,-0.099998 0.099998,-0.099998 0.099998,-0.199997c-0.099998,-0.200001 -0.199997,-0.400002 -0.199997,-0.599998z" class="st0"/>
      </g>
     </g>
     <g id="svg_10">
      <path id="svg_11" d="m40.516911,2.816723c-0.299995,-0.799999 -0.599998,-1.399998 -1.099998,-1.599998c0.699997,1.299999 1.099998,3.099998 1.099998,5.599998c0,2.000004 -0.299995,4.200001 -0.900002,6.700001c-0.599998,2.5 -1.399994,4.599998 -2.299995,6.300003c-0.900002,1.699997 -1.700005,2.599998 -2.5,2.599998c-0.5,0 -0.900002,-0.400002 -1.200005,-1.099998c-0.299995,-0.700005 -0.5,-1.600002 -0.699997,-2.700005c-0.099998,-1 -0.300003,-2.5 -0.5,-4.199997c-0.199997,-2.300003 -0.400002,-4 -0.6,-5.099998c-0.200005,-1.100002 -0.599998,-1.700005 -1.099998,-1.700005c-0.600006,0 -1.300003,0.400002 -2,1.300003c-0.700005,0.900002 -1.400002,2 -1.900002,3.400002c0,0.099998 -0.099998,0.199997 -0.099998,0.299995c0,0 0.099998,0 0.099998,0c0.099998,0 0.199997,0 0.199997,0c0,0 0,-0.099998 0,-0.099998c0.400002,-1.299999 1,-2.400002 1.700005,-3.299999c0.699997,-0.799999 1.299995,-1.299999 1.899994,-1.299999c0.300003,0 0.5,0.400002 0.600006,1.099998s0.199997,2 0.399994,3.599998c0.100006,2 0.300003,3.600002 0.500002,5c0.200005,1.300003 0.5,2.5 1,3.5c0.5,1 1.100006,1.5 1.900002,1.5c0.900002,0 1.900002,-0.899998 2.800003,-2.799995c0.900002,-1.800003 1.699997,-4.100002 2.299995,-6.700005c0.600006,-2.599998 0.900002,-5 0.900002,-7.199997c-0.099998,-1.100002 -0.299995,-2.200001 -0.5,-3.100002z" class="st0"/>
     </g>
     <circle id="svg_12" r="1.200001" cy="12.816724" cx="12.116911" class="st1"/>
     <circle id="svg_13" r="1.199997" cy="1.516724" cx="39.616911" class="st1"/>
     <circle id="svg_14" r="1.200001" cy="12.116724" cx="27.016911" class="st1"/>
    </g>
    <g id="svg_15">
     <text x="9.670097" y="-0.783276" id="svg_16" class="st0 st2 st3" transform="matrix(0.9945, 0, 0, 1, 1.2246, 31.6475)">Web-Nica</text>
    </g>
   </g>
  </g>
 </g>
</svg>