<svg id="Capa_1" data-name="Capa 1" xmlns="http://www.w3.org/2000/svg" viewBox="0 0 450 400"><defs><style>.cls-1{fill:none;}.cls-2{fill:#1d71b8;}.cls-3{fill:#e94e1b;}.cls-4{isolation:isolate;}</style></defs><title>ImgWebNica</title><rect id="canvas_background" data-name="canvas background" class="cls-1" x="-1" y="-1" width="452" height="402"/><g id="svg_17" data-name="svg 17"><g id="svg_5" data-name="svg 5"><g id="svg_6" data-name="svg 6"><g id="svg_7" data-name="svg 7"><g id="svg_8" data-name="svg 8"><path id="svg_9" data-name="svg 9" class="cls-2" d="M245,138.29c-1.43,1.25-2.87,3.74-4.3,5-21.52,28.65-40.17,59.78-53.08,92.17-2.87,7.47-8.61,22.42-18.65,44.84-2.87,7.47-5.74,13.7-7.17,18.68l-4.3,7.47c-1.43,0-2.87-6.23-2.87-18.68V265.33c0-7.47,0-14.95,1.43-21.17,1.43-22.42,2.87-42.35,2.87-62.28A290.7,290.7,0,0,0,156,139.53c-2.87-10-5.74-14.95-11.48-14.95q-12.91,0-30.13,18.68c-10,12.46-23,31.14-38.74,54.8-10,16.19-18.65,28.65-24.39,36.12s-10,11.21-14.35,11.21c-2.87,0-4.3-3.74-5.74-11.21s-1.43-17.44-1.43-31.14V154.48c0-2.49-1.43-5-5.74-5l-4.3,1.25c1.43,1.25,1.43,6.23,1.43,14.95v28.65A320.74,320.74,0,0,0,24,236.68c1.43,10,5.74,16.19,11.48,16.19,4.3,0,11.48-5,18.65-14.95s17.22-23.66,30.13-43.59c12.91-21.17,24.39-36.12,31.56-46.08s14.35-14.95,20.09-14.95c4.3,0,5.74,3.74,8.61,12.46a179.43,179.43,0,0,1,2.87,33.63c0,14.95,0,29.89-1.43,46.08a105.51,105.51,0,0,1-1.43,19.93v26.16c0,29.89,2.87,43.59,10,43.59,4.3,0,7.17-2.49,10-6.23,2.87-5,5.74-12.46,11.48-24.91,5.74-17.44,11.48-29.89,15.78-39.86,14.35-34.87,31.56-66,54.52-95.9,0-1.25,1.43-1.25,1.43-2.49C246.41,143.27,245,140.78,245,138.29Z"/></g></g><g id="svg_10" data-name="svg 10"><path id="svg_11" data-name="svg 11" class="cls-2" d="M435.79,32.42c-4.3-10-8.61-17.44-15.78-19.93,10,16.19,15.78,38.61,15.78,69.75,0,24.91-4.3,52.31-12.91,83.45s-20.09,57.29-33,78.47S365.49,276.54,354,276.54c-7.17,0-12.91-5-17.22-13.7s-7.17-19.93-10-33.63c-1.43-12.46-4.3-31.14-7.17-52.31q-4.3-43-8.61-63.52c-2.87-13.7-8.61-21.17-15.78-21.17-8.61,0-18.65,5-28.69,16.19s-20.09,24.91-27.26,42.35c0,1.25-1.43,2.49-1.43,3.74h4.3v-1.25a123,123,0,0,1,24.39-41.1c10-10,18.65-16.19,27.26-16.19,4.3,0,7.17,5,8.61,13.7s2.87,24.91,5.74,44.84a570.54,570.54,0,0,0,7.17,62.28c2.87,16.19,7.17,31.14,14.35,43.59S345.4,279,356.88,279c12.91,0,27.26-11.21,40.17-34.87,12.91-22.42,24.39-51.07,33-83.45S443,98.43,443,71A275.42,275.42,0,0,0,435.79,32.42Z"/></g><ellipse id="svg_12" data-name="svg 12" class="cls-3" cx="28.34" cy="156.97" rx="17.22" ry="14.95"/><ellipse id="svg_13" data-name="svg 13" class="cls-3" cx="422.87" cy="16.23" rx="17.22" ry="14.95"/><ellipse id="svg_14" data-name="svg 14" class="cls-3" cx="242.11" cy="148.25" rx="17.22" ry="14.95"/></g><g class="cls-4"><path class="cls-2" d="M51.76,375.6a16.8,16.8,0,0,0,11.44,4.14,16.8,16.8,0,0,0,11.44-4.14,12.8,12.8,0,0,0,4.74-10V321.22h2.31v44.39A14.64,14.64,0,0,1,76.28,377a19.21,19.21,0,0,1-13.08,4.72A19.21,19.21,0,0,1,50.12,377a15.84,15.84,0,0,1-4.25-5.65A15.86,15.86,0,0,1,41.61,377a19.21,19.21,0,0,1-13.08,4.72A19.21,19.21,0,0,1,15.45,377,14.64,14.64,0,0,1,10,365.61V321.22h2.31v44.39a12.8,12.8,0,0,0,4.74,10,16.8,16.8,0,0,0,11.44,4.14A16.8,16.8,0,0,0,40,375.6a12.8,12.8,0,0,0,4.74-10V321.22H47v44.39A12.8,12.8,0,0,0,51.76,375.6Z"/><path class="cls-2" d="M90.94,357.54q0,9.2,7.44,15.7a26.4,26.4,0,0,0,18,6.5,26.4,26.4,0,0,0,18-6.5,21.83,21.83,0,0,0,5.78-7.63h2.5a23.56,23.56,0,0,1-6.61,9,28.85,28.85,0,0,1-19.65,7.1,28.82,28.82,0,0,1-19.62-7.08q-8.11-7.08-8.11-17.13t8.11-17.13a28.82,28.82,0,0,1,19.62-7.08A28.82,28.82,0,0,1,136,340.41q8.11,7.08,8.11,17.13Zm.09-2h50.66a20.26,20.26,0,0,0-7.35-13.68,26.41,26.41,0,0,0-18-6.5,26.41,26.41,0,0,0-18,6.5A20.25,20.25,0,0,0,91,355.52Z"/><path class="cls-2" d="M153.34,347.65a24.6,24.6,0,0,1,5.82-7.26,30.73,30.73,0,0,1,39.22,0q8.11,7.08,8.11,17.13t-8.11,17.13a30.73,30.73,0,0,1-39.25,0Q151,367.59,151,357.54V321.22h2.31Zm43.41,25.58q7.44-6.5,7.44-15.7t-7.44-15.7a28.13,28.13,0,0,0-36,0q-7.44,6.5-7.44,15.7t7.44,15.7a28.13,28.13,0,0,0,36,0Z"/><path class="cls-2" d="M213.44,351.48v-2h37v2Z"/><path class="cls-2" d="M259.66,345.43v36.32h-2.31V345.43q0-10,8.11-17.13a30.73,30.73,0,0,1,39.25,0q8.11,7.08,8.11,17.13v36.32h-2.31V345.43q0-9.2-7.44-15.7a28.14,28.14,0,0,0-36,0Q259.66,336.23,259.66,345.43Z"/><path class="cls-2" d="M320.91,327.27a3.59,3.59,0,0,1-2.45-.89,2.76,2.76,0,0,1,0-4.28,3.83,3.83,0,0,1,4.9,0,2.76,2.76,0,0,1,0,4.28A3.6,3.6,0,0,1,320.91,327.27Zm1.16,54.48h-2.31V333.33h2.31Z"/><path class="cls-2" d="M380.5,365.61H383a23.55,23.55,0,0,1-6.61,9,30.73,30.73,0,0,1-39.27,0Q329,367.59,329,357.54t8.11-17.13a30.79,30.79,0,0,1,39.27,0,25.27,25.27,0,0,1,5.69,7.06h-2.59a23.32,23.32,0,0,0-4.76-5.61,28.13,28.13,0,0,0-36,0q-7.44,6.5-7.44,15.7t7.44,15.7a28.13,28.13,0,0,0,36,0A21.83,21.83,0,0,0,380.5,365.61Z"/><path class="cls-2" d="M442.26,367.42a24.47,24.47,0,0,1-5.78,7.22,30.73,30.73,0,0,1-39.27,0q-8.11-7.08-8.11-17.13t8.11-17.13a30.79,30.79,0,0,1,39.27,0q7.26,6.38,8,15.13h.09v26.23h-2.31Zm-7.44,5.81q7.44-6.5,7.44-15.7t-7.44-15.7a28.13,28.13,0,0,0-36,0q-7.44,6.5-7.44,15.7t7.44,15.7a28.13,28.13,0,0,0,36,0Z"/></g></g></g></svg>