<svg width="33" height="34" xmlns="http://www.w3.org/2000/svg">
 <style type="text/css">.st0{fill:#1D71B8;}
	.st1{fill:#E94E1B;}
	.st2{font-family:'MajoramSans';}
	.st3{font-size:6.6353px;}</style>

 <g>
  <title>background</title>
  <rect fill="none" id="canvas_background" height="402" width="582" y="-1" x="-1"/>
 </g>
 <g>
  <title>Layer 1</title>
  <g id="svg_1">
   <g id="svg_2">
    <g id="svg_3">
     <g id="svg_4">
      <path id="svg_5" d="m17.6,12.1c-0.1,0.099999 -0.200001,0.299999 -0.300001,0.4c-1.499999,2.3 -2.799999,4.799999 -3.699999,7.4c-0.200001,0.6 -0.6,1.800001 -1.3,3.6c-0.2,0.6 -0.400001,1.1 -0.5,1.5c-0.2,0.4 -0.3,0.6 -0.3,0.6c-0.1,0 -0.2,-0.5 -0.2,-1.5c0,-0.6 0,-1.200001 0,-1.800001c0,-0.599998 0,-1.199999 0.099999,-1.699999c0.1,-1.800001 0.200001,-3.4 0.200001,-5c0,-1.5 -0.1,-2.6 -0.200001,-3.400001c-0.2,-0.8 -0.4,-1.2 -0.799999,-1.2c-0.6,0 -1.3,0.5 -2.1,1.5c-0.7,1 -1.6,2.5 -2.7,4.4c-0.7,1.300001 -1.3,2.300001 -1.7,2.9c-0.4,0.6 -0.7,0.900002 -1,0.900002c-0.2,0 -0.3,-0.300001 -0.4,-0.900002c-0.1,-0.599998 -0.1,-1.4 -0.1,-2.5l0,-3.099999c0,-0.4 0,-0.7 0,-0.8c0,-0.2 -0.1,-0.4 -0.4,-0.4l-0.3,0.1c0.1,0.099999 0.1,0.5 0.1,1.2l0,2.3c0,1.4 0.1,2.5 0.2,3.4c0.1,0.799999 0.4,1.299999 0.8,1.299999c0.3,0 0.8,-0.4 1.3,-1.199999c0.5,-0.800001 1.2,-1.9 2.1,-3.5c0.9,-1.700001 1.7,-2.900001 2.2,-3.700001c0.5,-0.799999 1,-1.2 1.4,-1.2c0.3,0 0.4,0.3 0.6,1c0.099999,0.6 0.2,1.5 0.2,2.7c0,1.200001 0,2.4 -0.1,3.700001c0,0.4 0,1 -0.099999,1.6c0,0.599998 0,1.299999 0,2.099998c0,2.400002 0.2,3.5 0.7,3.5c0.3,0 0.5,-0.199999 0.7,-0.5c0.2,-0.4 0.4,-1 0.8,-2c0.4,-1.4 0.8,-2.4 1.099999,-3.199999c1,-2.800001 2.200001,-5.3 3.800001,-7.700001c0,-0.099999 0.099998,-0.099999 0.099998,-0.2c-0.099998,-0.2 -0.199999,-0.4 -0.199999,-0.599999z" class="st0"/>
     </g>
    </g>
    <g id="svg_6">
     <path id="svg_7" d="m30.9,3.6c-0.299999,-0.8 -0.6,-1.4 -1.1,-1.6c0.700001,1.3 1.1,3.1 1.1,5.6c0,2 -0.299999,4.2 -0.9,6.7c-0.6,2.499999 -1.4,4.599999 -2.299999,6.3c-0.900002,1.699999 -1.700001,2.6 -2.5,2.6c-0.5,0 -0.900002,-0.400002 -1.200001,-1.1c-0.299999,-0.700001 -0.5,-1.6 -0.700001,-2.700001c-0.099998,-1 -0.299999,-2.5 -0.5,-4.2c-0.199999,-2.3 -0.4,-4 -0.599998,-5.099999c-0.200001,-1.1 -0.6,-1.700001 -1.1,-1.700001c-0.6,0 -1.300001,0.400001 -2,1.3c-0.700001,0.900001 -1.4,2 -1.9,3.400001c0,0.099999 -0.1,0.2 -0.1,0.299999c0,0 0.1,0 0.1,0c0.099998,0 0.199999,0 0.199999,0c0,0 0,-0.099999 0,-0.099999c0.4,-1.3 1,-2.400001 1.700001,-3.3c0.699999,-0.8 1.299999,-1.3 1.9,-1.3c0.299999,0 0.5,0.400001 0.6,1.1s0.199999,2 0.4,3.599999c0.1,2 0.299999,3.6 0.5,5c0.200001,1.300001 0.5,2.5 1,3.5c0.5,1 1.1,1.5 1.9,1.5c0.9,0 1.9,-0.9 2.800001,-2.799999c0.9,-1.800001 1.699999,-4.1 2.299999,-6.700001c0.6,-2.599999 0.9,-5 0.9,-7.2c-0.1,-1.1 -0.299999,-2.2 -0.5,-3.1z" class="st0"/>
    </g>
    <circle id="svg_8" r="1.2" cy="13.6" cx="2.5" class="st1"/>
    <circle id="svg_9" r="1.2" cy="2.3" cx="30" class="st1"/>
    <circle id="svg_10" r="1.2" cy="12.9" cx="17.4" class="st1"/>
   </g>
   <g id="svg_11">
    <text id="svg_12" class="st0 st2 st3" transform="matrix(0.9945 0 0 1 1.2246 31.6475)">Web-Nica</text>
   </g>
  </g>
 </g>
</svg>