<svg id="Capa_1" data-name="Capa 1" xmlns="http://www.w3.org/2000/svg" viewBox="0 0 33 34"><defs><style>.cls-1{fill:#1d71b8;}.cls-2{fill:#e94e1b;}</style></defs><title>logoensvg</title><path class="cls-1" d="M17.61,12.13l-.26.39a33,33,0,0,0-3.68,7.36q-.33.88-1.27,3.63-.3.91-.53,1.53t-.32.62q-.21,0-.21-1.51,0-.91,0-1.8t.06-1.68q.15-2.66.15-5a21.18,21.18,0,0,0-.21-3.41Q11.15,11,10.6,11q-1,0-2.06,1.51A49.59,49.59,0,0,0,5.82,17q-1.12,2-1.7,2.86t-1,.89q-.27,0-.36-.91T2.7,17.37l0-3.09a4.67,4.67,0,0,0,0-.76Q2.61,13,2.21,13l-.27.06a2.69,2.69,0,0,1,.12,1.15l0,2.3a21.28,21.28,0,0,0,.21,3.36q.21,1.27.82,1.27T4.35,20q.77-1.15,2.11-3.54T8.7,12.78q.82-1.2,1.36-1.2.39,0,.56,1a16.82,16.82,0,0,1,.17,2.71q0,1.73-.09,3.7,0,.67-.06,1.61t0,2.09q0,3.54.7,3.54a.77.77,0,0,0,.68-.53,21.24,21.24,0,0,0,.77-2q.67-2,1.09-3.18a33.4,33.4,0,0,1,3.8-7.68l.11-.16A.84.84,0,0,1,17.61,12.13Z"/><path class="cls-1" d="M30.89,3.64A2.46,2.46,0,0,0,29.76,2a11.18,11.18,0,0,1,1.12,5.57A27.86,27.86,0,0,1,30,14.27a29.17,29.17,0,0,1-2.27,6.3q-1.35,2.61-2.47,2.6-.79,0-1.24-1.11a10.92,10.92,0,0,1-.67-2.68q-.21-1.57-.45-4.24a48.36,48.36,0,0,0-.61-5.07q-.33-1.68-1.15-1.68a3,3,0,0,0-2,1.33,11.43,11.43,0,0,0-1.86,3.41l-.11.32.15,0a.66.66,0,0,1,.23,0l0-.11a11,11,0,0,1,1.65-3.27A2.63,2.63,0,0,1,21,8.82q.39,0,.58,1.14T22,13.57q.18,2.94.45,5a12.14,12.14,0,0,0,1,3.48,2.1,2.1,0,0,0,1.89,1.47q1.42,0,2.82-2.76A29.22,29.22,0,0,0,30.38,14a32.79,32.79,0,0,0,.89-7.16A11.47,11.47,0,0,0,30.89,3.64Z"/><circle class="cls-2" cx="2.51" cy="13.56" r="1.23"/><circle class="cls-2" cx="30.01" cy="2.34" r="1.23"/><circle class="cls-2" cx="17.42" cy="12.88" r="1.23"/><path class="cls-1" d="M4.13,31.15a1.12,1.12,0,0,0,1.6,0,1.1,1.1,0,0,0,.33-.8V26.79h.16v3.56a1.25,1.25,0,0,1-.38.92,1.29,1.29,0,0,1-1.82,0,1.28,1.28,0,0,1-.3-.45,1.28,1.28,0,0,1-.3.45,1.24,1.24,0,0,1-.91.38,1.24,1.24,0,0,1-.91-.38,1.25,1.25,0,0,1-.38-.92V26.79h.16v3.56a1.1,1.1,0,0,0,.33.8,1.08,1.08,0,0,0,.8.33,1.08,1.08,0,0,0,.8-.33,1.1,1.1,0,0,0,.33-.8V26.79H3.8v3.56A1.1,1.1,0,0,0,4.13,31.15Z"/><path class="cls-1" d="M6.86,29.7A1.72,1.72,0,0,0,7.38,31a1.77,1.77,0,0,0,2.51,0,1.75,1.75,0,0,0,.4-.61h.17a1.9,1.9,0,0,1-.46.73,2,2,0,1,1,.56-1.37Zm0-.16H10.4a1.78,1.78,0,0,0-1.77-1.62,1.78,1.78,0,0,0-1.77,1.62Z"/><path class="cls-1" d="M11.21,28.91a2,2,0,0,1,.41-.58,1.93,1.93,0,0,1,2.73,0,2,2,0,0,1,0,2.75,1.93,1.93,0,0,1-2.74,0,1.88,1.88,0,0,1-.57-1.38V26.79h.16Zm3,2.05a1.79,1.79,0,0,0,0-2.52,1.77,1.77,0,0,0-2.51,0,1.79,1.79,0,0,0,0,2.52,1.77,1.77,0,0,0,2.51,0Z"/><path class="cls-1" d="M15.4,29.22v-.16H18v.16Z"/><path class="cls-1" d="M18.62,28.73v2.92h-.16V28.73a1.94,1.94,0,0,1,1.93-1.94,1.86,1.86,0,0,1,1.37.57,1.88,1.88,0,0,1,.57,1.38v2.92h-.16V28.73a1.72,1.72,0,0,0-.52-1.26,1.76,1.76,0,0,0-2.51,0A1.72,1.72,0,0,0,18.62,28.73Z"/><path class="cls-1" d="M22.89,27.27a.23.23,0,0,1-.17-.07.23.23,0,0,1-.07-.17.23.23,0,0,1,.07-.17.24.24,0,0,1,.34,0,.23.23,0,0,1,.07.17.24.24,0,0,1-.24.24ZM23,31.65h-.16V27.76H23Z"/><path class="cls-1" d="M27,30.35h.17a1.91,1.91,0,0,1-.46.73,1.94,1.94,0,1,1,0-2.75,2,2,0,0,1,.4.57H27a1.82,1.82,0,0,0-.33-.45,1.77,1.77,0,0,0-2.51,0,1.79,1.79,0,0,0,0,2.52,1.77,1.77,0,0,0,2.51,0A1.75,1.75,0,0,0,27,30.35Z"/><path class="cls-1" d="M31.35,30.5a1.93,1.93,0,0,1-.4.58,1.94,1.94,0,1,1,0-2.75,1.88,1.88,0,0,1,.56,1.22h0v2.11h-.16Zm-.52.47a1.79,1.79,0,0,0,0-2.52,1.77,1.77,0,0,0-2.51,0,1.79,1.79,0,0,0,0,2.52,1.77,1.77,0,0,0,2.51,0Z"/></svg>