<?xml version="1.0" encoding="utf-8"?>
<!-- Generator: Adobe Illustrator 21.0.0, SVG Export Plug-In . SVG Version: 6.00 Build 0)  -->
<svg version="1.1" id="Capa_1" xmlns="http://www.w3.org/2000/svg" xmlns:xlink="http://www.w3.org/1999/xlink" x="0px" y="0px"
	 viewBox="0 0 33 34" style="enable-background:new 0 0 33 34;" xml:space="preserve">
<style type="text/css">
	.st0{fill:#1D71B8;}
	.st1{fill:#E94E1B;}
	.st2{font-family:'MajoramSans';}
	.st3{font-size:6.6353px;}
</style>
<g>
	<g>
		<g>
			<g>
				<path class="st0" d="M17.6,12.1c-0.1,0.1-0.2,0.3-0.3,0.4c-1.5,2.3-2.8,4.8-3.7,7.4c-0.2,0.6-0.6,1.8-1.3,3.6
					c-0.2,0.6-0.4,1.1-0.5,1.5c-0.2,0.4-0.3,0.6-0.3,0.6c-0.1,0-0.2-0.5-0.2-1.5c0-0.6,0-1.2,0-1.8c0-0.6,0-1.2,0.1-1.7
					c0.1-1.8,0.2-3.4,0.2-5c0-1.5-0.1-2.6-0.2-3.4C11.2,11.4,11,11,10.6,11c-0.6,0-1.3,0.5-2.1,1.5c-0.7,1-1.6,2.5-2.7,4.4
					c-0.7,1.3-1.3,2.3-1.7,2.9c-0.4,0.6-0.7,0.9-1,0.9c-0.2,0-0.3-0.3-0.4-0.9c-0.1-0.6-0.1-1.4-0.1-2.5l0-3.1c0-0.4,0-0.7,0-0.8
					C2.6,13.2,2.5,13,2.2,13l-0.3,0.1c0.1,0.1,0.1,0.5,0.1,1.2l0,2.3c0,1.4,0.1,2.5,0.2,3.4c0.1,0.8,0.4,1.3,0.8,1.3
					c0.3,0,0.8-0.4,1.3-1.2c0.5-0.8,1.2-1.9,2.1-3.5c0.9-1.7,1.7-2.9,2.2-3.7c0.5-0.8,1-1.2,1.4-1.2c0.3,0,0.4,0.3,0.6,1
					c0.1,0.6,0.2,1.5,0.2,2.7c0,1.2,0,2.4-0.1,3.7c0,0.4,0,1-0.1,1.6c0,0.6,0,1.3,0,2.1c0,2.4,0.2,3.5,0.7,3.5
					c0.3,0,0.5-0.2,0.7-0.5c0.2-0.4,0.4-1,0.8-2c0.4-1.4,0.8-2.4,1.1-3.2c1-2.8,2.2-5.3,3.8-7.7c0-0.1,0.1-0.1,0.1-0.2
					C17.7,12.5,17.6,12.3,17.6,12.1z"/>
			</g>
		</g>
		<g>
			<path class="st0" d="M30.9,3.6c-0.3-0.8-0.6-1.4-1.1-1.6c0.7,1.3,1.1,3.1,1.1,5.6c0,2-0.3,4.2-0.9,6.7c-0.6,2.5-1.4,4.6-2.3,6.3
				c-0.9,1.7-1.7,2.6-2.5,2.6c-0.5,0-0.9-0.4-1.2-1.1c-0.3-0.7-0.5-1.6-0.7-2.7c-0.1-1-0.3-2.5-0.5-4.2c-0.2-2.3-0.4-4-0.6-5.1
				C22,9,21.6,8.4,21.1,8.4c-0.6,0-1.3,0.4-2,1.3c-0.7,0.9-1.4,2-1.9,3.4c0,0.1-0.1,0.2-0.1,0.3c0,0,0.1,0,0.1,0c0.1,0,0.2,0,0.2,0
				c0,0,0-0.1,0-0.1c0.4-1.3,1-2.4,1.7-3.3c0.7-0.8,1.3-1.3,1.9-1.3c0.3,0,0.5,0.4,0.6,1.1s0.2,2,0.4,3.6c0.1,2,0.3,3.6,0.5,5
				c0.2,1.3,0.5,2.5,1,3.5c0.5,1,1.1,1.5,1.9,1.5c0.9,0,1.9-0.9,2.8-2.8c0.9-1.8,1.7-4.1,2.3-6.7c0.6-2.6,0.9-5,0.9-7.2
				C31.3,5.6,31.1,4.5,30.9,3.6z"/>
		</g>
		<circle class="st1" cx="2.5" cy="13.6" r="1.2"/>
		<circle class="st1" cx="30" cy="2.3" r="1.2"/>
		<circle class="st1" cx="17.4" cy="12.9" r="1.2"/>
	</g>
	<g>
		<text transform="matrix(0.9945 0 0 1 1.2246 31.6475)" class="st0 st2 st3">Web-Nica</text>
	</g>
</g>
</svg>
