<svg id="Capa_1" data-name="Capa 1" xmlns="http://www.w3.org/2000/svg" xmlns:xlink="http://www.w3.org/1999/xlink" viewBox="0 0 1920 775"><defs><style>.cls-1{fill:none;}.cls-2{fill:#520962;}.cls-3,.cls-5{fill:#e84e1b;}.cls-3{opacity:0.22;}.cls-4{clip-path:url(#clip-path);}.cls-6{fill:#04c38f;}.cls-7,.cls-8{fill:#fff;}.cls-8{font-size:29.27px;font-family:MajoramSans, Majoram Sans;}</style><clipPath id="clip-path"><path class="cls-1" d="M1451.13-2,963.41,489.75S816.29,602.61,842.49,782L1560,784l362.77-372.85,6-409.12Z"/></clipPath></defs><title>Sliders</title><rect class="cls-2" x="-13.39" y="-0.22" width="1942" height="788.21"/><rect class="cls-3" x="-21.21" y="271.96" width="766" height="104" rx="51" ry="51" transform="translate(846.69 297.21) rotate(135)"/><g class="cls-4"><image width="1920" height="775" transform="translate(254.99 -2)" xlink:href="../../../../Downloads/img-home.jpg"/></g><rect class="cls-3" x="818.62" y="92" width="766" height="104" rx="51" ry="51" transform="translate(2153.11 -603.86) rotate(135)"/><rect class="cls-5" x="74.17" y="-145.05" width="766" height="288.94" rx="140.25" ry="140.25" transform="translate(780.02 -324.25) rotate(135)"/><rect class="cls-5" x="1742.54" y="493.64" width="270.04" height="102" rx="51" ry="51" transform="translate(3590.31 -397.87) rotate(135)"/><path id="_Trazado_compuesto_" data-name="&lt;Trazado compuesto&gt;" class="cls-6" d="M191.14,577.23a4.24,4.24,0,0,1,4.25,4.24h0a4.25,4.25,0,0,1-4.25,4.26h0a4.26,4.26,0,0,1-4.25-4.26h0A4.24,4.24,0,0,1,191.14,577.23Zm0-43.72a4.24,4.24,0,0,1,4.25,4.25h0a4.25,4.25,0,0,1-4.25,4.25h0a4.26,4.26,0,0,1-4.25-4.25h0A4.25,4.25,0,0,1,191.14,533.51Zm0-43.72a4.24,4.24,0,0,1,4.25,4.25h0a4.25,4.25,0,0,1-4.25,4.25h0a4.26,4.26,0,0,1-4.25-4.25h0A4.25,4.25,0,0,1,191.14,489.79Zm0-43.72a4.24,4.24,0,0,1,4.25,4.25h0a4.25,4.25,0,0,1-4.25,4.25h0a4.26,4.26,0,0,1-4.25-4.25h0A4.25,4.25,0,0,1,191.14,446.06Zm0-43.72a4.24,4.24,0,0,1,4.25,4.25h0a4.24,4.24,0,0,1-4.25,4.24h0a4.24,4.24,0,0,1-4.25-4.24h0A4.25,4.25,0,0,1,191.14,402.34Zm0-43.72a4.24,4.24,0,0,1,4.25,4.25h0a4.25,4.25,0,0,1-4.25,4.25h0a4.26,4.26,0,0,1-4.25-4.25h0A4.25,4.25,0,0,1,191.14,358.61Zm0-43.72a4.24,4.24,0,0,1,4.25,4.25h0a4.25,4.25,0,0,1-4.25,4.25h0a4.26,4.26,0,0,1-4.25-4.25h0A4.25,4.25,0,0,1,191.14,314.89Zm0-43.74a4.25,4.25,0,0,1,4.25,4.26h0a4.25,4.25,0,0,1-4.25,4.25h0a4.26,4.26,0,0,1-4.25-4.25h0A4.26,4.26,0,0,1,191.14,271.15Zm0-43.71a4.24,4.24,0,0,1,4.25,4.25h0a4.25,4.25,0,0,1-4.25,4.25h0a4.26,4.26,0,0,1-4.25-4.25h0A4.25,4.25,0,0,1,191.14,227.44Zm0-43.72a4.24,4.24,0,0,1,4.25,4.25h0a4.25,4.25,0,0,1-4.25,4.25h0a4.26,4.26,0,0,1-4.25-4.25h0A4.25,4.25,0,0,1,191.14,183.71Zm0-43.72a4.24,4.24,0,0,1,4.25,4.25h0a4.25,4.25,0,0,1-4.25,4.25h0a4.26,4.26,0,0,1-4.25-4.25h0A4.25,4.25,0,0,1,191.14,140Z"/><g id="_Grupo_" data-name="&lt;Grupo&gt;"><path id="_Trazado_compuesto_2" data-name="&lt;Trazado compuesto&gt;" class="cls-6" d="M168.64,576.78a4.24,4.24,0,0,1,4.25,4.24h0a4.25,4.25,0,0,1-4.25,4.26h0a4.26,4.26,0,0,1-4.25-4.26h0A4.24,4.24,0,0,1,168.64,576.78Zm0-43.72a4.24,4.24,0,0,1,4.25,4.25h0a4.25,4.25,0,0,1-4.25,4.25h0a4.26,4.26,0,0,1-4.25-4.25h0A4.25,4.25,0,0,1,168.64,533.06Zm0-43.72a4.24,4.24,0,0,1,4.25,4.25h0a4.25,4.25,0,0,1-4.25,4.25h0a4.26,4.26,0,0,1-4.25-4.25h0A4.25,4.25,0,0,1,168.64,489.33Zm0-43.72a4.24,4.24,0,0,1,4.25,4.25h0a4.25,4.25,0,0,1-4.25,4.25h0a4.26,4.26,0,0,1-4.25-4.25h0A4.25,4.25,0,0,1,168.64,445.61Zm0-43.72a4.24,4.24,0,0,1,4.25,4.25h0a4.24,4.24,0,0,1-4.25,4.24h0a4.24,4.24,0,0,1-4.25-4.24h0A4.25,4.25,0,0,1,168.64,401.88Zm0-43.72a4.24,4.24,0,0,1,4.25,4.25h0a4.25,4.25,0,0,1-4.25,4.25h0a4.26,4.26,0,0,1-4.25-4.25h0A4.25,4.25,0,0,1,168.64,358.16Zm0-43.72a4.24,4.24,0,0,1,4.25,4.25h0a4.25,4.25,0,0,1-4.25,4.25h0a4.26,4.26,0,0,1-4.25-4.25h0A4.25,4.25,0,0,1,168.64,314.43Zm0-43.74a4.25,4.25,0,0,1,4.25,4.26h0a4.25,4.25,0,0,1-4.25,4.25h0a4.26,4.26,0,0,1-4.25-4.25h0A4.26,4.26,0,0,1,168.64,270.7Zm0-43.71a4.24,4.24,0,0,1,4.25,4.25h0a4.25,4.25,0,0,1-4.25,4.25h0a4.26,4.26,0,0,1-4.25-4.25h0A4.25,4.25,0,0,1,168.64,227Zm0-43.72a4.24,4.24,0,0,1,4.25,4.25h0a4.25,4.25,0,0,1-4.25,4.25h0a4.26,4.26,0,0,1-4.25-4.25h0A4.25,4.25,0,0,1,168.64,183.26Zm0-43.72a4.24,4.24,0,0,1,4.25,4.25h0a4.25,4.25,0,0,1-4.25,4.25h0a4.26,4.26,0,0,1-4.25-4.25h0A4.25,4.25,0,0,1,168.64,139.54Z"/></g><g id="_Grupo_2" data-name="&lt;Grupo&gt;"><path id="_Trazado_compuesto_3" data-name="&lt;Trazado compuesto&gt;" class="cls-6" d="M144.39,576.53a4.24,4.24,0,0,1,4.25,4.24h0a4.25,4.25,0,0,1-4.25,4.26h0a4.26,4.26,0,0,1-4.25-4.26h0A4.24,4.24,0,0,1,144.39,576.53Zm0-43.72a4.24,4.24,0,0,1,4.25,4.25h0a4.25,4.25,0,0,1-4.25,4.25h0a4.26,4.26,0,0,1-4.25-4.25h0A4.25,4.25,0,0,1,144.39,532.81Zm0-43.72a4.24,4.24,0,0,1,4.25,4.25h0a4.25,4.25,0,0,1-4.25,4.25h0a4.26,4.26,0,0,1-4.25-4.25h0A4.25,4.25,0,0,1,144.39,489.08Zm0-43.72a4.24,4.24,0,0,1,4.25,4.25h0a4.25,4.25,0,0,1-4.25,4.25h0a4.26,4.26,0,0,1-4.25-4.25h0A4.25,4.25,0,0,1,144.39,445.36Zm0-43.72a4.24,4.24,0,0,1,4.25,4.25h0a4.24,4.24,0,0,1-4.25,4.24h0a4.24,4.24,0,0,1-4.25-4.24h0A4.25,4.25,0,0,1,144.39,401.63Zm0-43.72a4.24,4.24,0,0,1,4.25,4.25h0a4.25,4.25,0,0,1-4.25,4.25h0a4.26,4.26,0,0,1-4.25-4.25h0A4.25,4.25,0,0,1,144.39,357.91Zm0-43.72a4.24,4.24,0,0,1,4.25,4.25h0a4.25,4.25,0,0,1-4.25,4.25h0a4.26,4.26,0,0,1-4.25-4.25h0A4.25,4.25,0,0,1,144.39,314.19Zm0-43.74a4.25,4.25,0,0,1,4.25,4.26h0a4.25,4.25,0,0,1-4.25,4.25h0a4.26,4.26,0,0,1-4.25-4.25h0A4.26,4.26,0,0,1,144.39,270.45Zm0-43.71a4.24,4.24,0,0,1,4.25,4.25h0a4.25,4.25,0,0,1-4.25,4.25h0a4.26,4.26,0,0,1-4.25-4.25h0A4.25,4.25,0,0,1,144.39,226.74Zm0-43.72a4.24,4.24,0,0,1,4.25,4.25h0a4.25,4.25,0,0,1-4.25,4.25h0a4.26,4.26,0,0,1-4.25-4.25h0A4.25,4.25,0,0,1,144.39,183Zm0-43.72a4.24,4.24,0,0,1,4.25,4.25h0a4.25,4.25,0,0,1-4.25,4.25h0a4.26,4.26,0,0,1-4.25-4.25h0A4.25,4.25,0,0,1,144.39,139.29Z"/></g><g id="_Grupo_3" data-name="&lt;Grupo&gt;"><path id="_Trazado_compuesto_4" data-name="&lt;Trazado compuesto&gt;" class="cls-6" d="M122.39,576.44a4.24,4.24,0,0,1,4.25,4.24h0a4.25,4.25,0,0,1-4.25,4.26h0a4.26,4.26,0,0,1-4.25-4.26h0A4.24,4.24,0,0,1,122.39,576.44Zm0-43.72a4.24,4.24,0,0,1,4.25,4.25h0a4.25,4.25,0,0,1-4.25,4.25h0a4.26,4.26,0,0,1-4.25-4.25h0A4.25,4.25,0,0,1,122.39,532.71Zm0-43.72a4.24,4.24,0,0,1,4.25,4.25h0a4.25,4.25,0,0,1-4.25,4.25h0a4.26,4.26,0,0,1-4.25-4.25h0A4.25,4.25,0,0,1,122.39,489Zm0-43.72a4.24,4.24,0,0,1,4.25,4.25h0a4.25,4.25,0,0,1-4.25,4.25h0a4.26,4.26,0,0,1-4.25-4.25h0A4.25,4.25,0,0,1,122.39,445.26Zm0-43.72a4.24,4.24,0,0,1,4.25,4.25h0a4.24,4.24,0,0,1-4.25,4.24h0a4.24,4.24,0,0,1-4.25-4.24h0A4.25,4.25,0,0,1,122.39,401.54Zm0-43.72a4.24,4.24,0,0,1,4.25,4.25h0a4.25,4.25,0,0,1-4.25,4.25h0a4.26,4.26,0,0,1-4.25-4.25h0A4.25,4.25,0,0,1,122.39,357.82Zm0-43.72a4.24,4.24,0,0,1,4.25,4.25h0a4.25,4.25,0,0,1-4.25,4.25h0a4.26,4.26,0,0,1-4.25-4.25h0A4.25,4.25,0,0,1,122.39,314.09Zm0-43.74a4.25,4.25,0,0,1,4.25,4.26h0a4.25,4.25,0,0,1-4.25,4.25h0a4.26,4.26,0,0,1-4.25-4.25h0A4.26,4.26,0,0,1,122.39,270.35Zm0-43.71a4.24,4.24,0,0,1,4.25,4.25h0a4.25,4.25,0,0,1-4.25,4.25h0a4.26,4.26,0,0,1-4.25-4.25h0A4.25,4.25,0,0,1,122.39,226.64Zm0-43.72a4.24,4.24,0,0,1,4.25,4.25h0a4.25,4.25,0,0,1-4.25,4.25h0a4.26,4.26,0,0,1-4.25-4.25h0A4.25,4.25,0,0,1,122.39,182.92Zm0-43.72a4.24,4.24,0,0,1,4.25,4.25h0a4.25,4.25,0,0,1-4.25,4.25h0a4.26,4.26,0,0,1-4.25-4.25h0A4.25,4.25,0,0,1,122.39,139.19Z"/></g><path class="cls-7" d="M128.62,665.27,127.43,667a144.34,144.34,0,0,0-16.62,32.47q-1.51,3.88-5.75,16-1.37,4-2.39,6.75T101.24,725q-1,0-1-6.68,0-4,.14-7.95t.27-7.42q.68-11.75.68-22a91.29,91.29,0,0,0-1-15q-1-5.41-3.42-5.41-4.38,0-9.3,6.68a217.94,217.94,0,0,0-12.31,19.51q-5.06,8.69-7.66,12.63t-4.38,3.94q-1.23,0-1.64-4t-.41-10.82l.14-13.63a20.13,20.13,0,0,0-.14-3.34q-.41-2.27-2.19-2.27l-1.23.27q.55.54.55,5.08l-.14,10.15a91.71,91.71,0,0,0,1,14.83q1,5.61,3.69,5.61,2.32,0,5.81-5.08t9.51-15.63q6.43-11,10.12-16.23t6.16-5.28q1.78,0,2.53,4.21a72.47,72.47,0,0,1,.75,12q0,7.62-.41,16.3-.14,2.94-.27,7.08T97,711.61q0,15.63,3.15,15.63,1.91,0,3.08-2.34a92.36,92.36,0,0,0,3.49-9q3-8.95,4.92-14A146,146,0,0,1,128.8,668l.49-.7A3.65,3.65,0,0,1,128.62,665.27Z"/><path class="cls-7" d="M188.63,627.8q-1.71-5.61-5.13-7.21,5.06,8.42,5.06,24.58a120.21,120.21,0,0,1-4.17,29.53,126.74,126.74,0,0,1-10.26,27.79Q168,714,163,714q-3.56,0-5.61-4.88a47.26,47.26,0,0,1-3-11.82q-1-6.95-2.05-18.71a208.6,208.6,0,0,0-2.74-22.38q-1.51-7.41-5.2-7.42-4.24,0-9.23,5.88a50.09,50.09,0,0,0-8.41,15c-.18.47-.34.95-.5,1.42a4.27,4.27,0,0,1,.66-.09,3,3,0,0,1,1,.15l.16-.49a48.08,48.08,0,0,1,7.46-14.43q4.44-5.61,8.55-5.61,1.78,0,2.6,5t1.64,16q.82,13,2.05,21.84a52.57,52.57,0,0,0,4.31,15.36q3.08,6.48,8.55,6.48,6.43,0,12.72-12.16t10.33-29.59a141.44,141.44,0,0,0,4-31.6A49.48,49.48,0,0,0,188.63,627.8Z"/><ellipse class="cls-7" cx="60.42" cy="671.56" rx="5.54" ry="5.41"/><ellipse class="cls-7" cx="184.64" cy="622.06" rx="5.54" ry="5.41"/><ellipse class="cls-7" cx="127.8" cy="668.56" rx="5.54" ry="5.41"/><text class="cls-8" transform="translate(54.64 751.36) scale(1.02 1)">Web-Nica</text></svg>