<svg id="Capa_1" data-name="Capa 1" xmlns="http://www.w3.org/2000/svg" xmlns:xlink="http://www.w3.org/1999/xlink" viewBox="0 0 1920 775"><defs><style>.cls-1{fill:none;}.cls-2{fill:#090a39;}.cls-3{clip-path:url(#clip-path);}.cls-4,.cls-5{fill:#04c38f;}.cls-4{opacity:0.22;}.cls-6,.cls-7{fill:#fff;}.cls-7{font-size:29.27px;font-family:MajoramSans, Majoram Sans;}</style><clipPath id="clip-path"><path class="cls-1" d="M474.94-6,963,486.1S1110.23,599,1084,778.54l-718,2L3,407.44-3-2Z"/></clipPath></defs><title>Sliders</title><rect class="cls-2" x="-9.73" y="-18" width="1934" height="814"/><g class="cls-3"><image width="1920" height="1210" transform="translate(-170.18 -28.78) scale(0.7)" xlink:href="../../../../Downloads/paper-3213924_1920 (1).jpg"/></g><rect class="cls-4" x="370.29" y="47.99" width="766" height="104" rx="51" ry="51" transform="translate(267.52 -484.37) rotate(42.7)"/><rect class="cls-4" x="1130.25" y="290.96" width="766" height="104" rx="51" ry="51" transform="translate(685.73 -969.58) rotate(45)"/><rect class="cls-5" x="1034.87" y="-126.05" width="766" height="288.94" rx="140.25" ry="140.25" transform="translate(428.31 -997.19) rotate(45)"/><rect class="cls-5" x="-81.79" y="513.64" width="270.04" height="102" rx="51" ry="51" transform="matrix(0.77, 0.63, -0.63, 0.77, 370.61, 94.62)"/><path id="_Trazado_compuesto_" data-name="&lt;Trazado compuesto&gt;" class="cls-5" d="M1816.24,646.63a4.24,4.24,0,0,1,4.27-4.22h0a4.25,4.25,0,0,1,4.23,4.28h0a4.26,4.26,0,0,1-4.3,4.22h0A4.24,4.24,0,0,1,1816.24,646.63Zm-43.72-.34a4.24,4.24,0,0,1,4.28-4.22h0a4.25,4.25,0,0,1,4.22,4.28h0a4.26,4.26,0,0,1-4.28,4.22h0A4.25,4.25,0,0,1,1772.51,646.29Zm-43.72-.34a4.24,4.24,0,0,1,4.28-4.22h0a4.25,4.25,0,0,1,4.22,4.28h0a4.26,4.26,0,0,1-4.28,4.22h0A4.25,4.25,0,0,1,1728.79,645.95Zm-43.72-.34a4.24,4.24,0,0,1,4.28-4.22h0a4.25,4.25,0,0,1,4.22,4.28h0a4.26,4.26,0,0,1-4.28,4.22h0A4.25,4.25,0,0,1,1685.07,645.6Zm-43.72-.34a4.24,4.24,0,0,1,4.28-4.22h0a4.24,4.24,0,0,1,4.2,4.28h0a4.24,4.24,0,0,1-4.27,4.22h0A4.25,4.25,0,0,1,1641.34,645.26Zm-43.72-.34a4.24,4.24,0,0,1,4.28-4.22h0a4.25,4.25,0,0,1,4.22,4.28h0a4.26,4.26,0,0,1-4.28,4.22h0A4.25,4.25,0,0,1,1597.62,644.92Zm-43.72-.34a4.24,4.24,0,0,1,4.28-4.22h0a4.25,4.25,0,0,1,4.22,4.28h0a4.26,4.26,0,0,1-4.28,4.22h0A4.25,4.25,0,0,1,1553.9,644.57Zm-43.74-.34a4.25,4.25,0,0,1,4.3-4.22h0a4.25,4.25,0,0,1,4.22,4.28h0a4.26,4.26,0,0,1-4.28,4.22h0A4.26,4.26,0,0,1,1510.16,644.23Zm-43.71-.34a4.24,4.24,0,0,1,4.28-4.22h0A4.25,4.25,0,0,1,1475,644h0a4.26,4.26,0,0,1-4.28,4.22h0A4.25,4.25,0,0,1,1466.45,643.89Zm-43.72-.34a4.24,4.24,0,0,1,4.28-4.22h0a4.25,4.25,0,0,1,4.22,4.28h0a4.26,4.26,0,0,1-4.28,4.22h0A4.25,4.25,0,0,1,1422.73,643.54ZM1379,643.2a4.24,4.24,0,0,1,4.28-4.22h0a4.25,4.25,0,0,1,4.22,4.28h0a4.26,4.26,0,0,1-4.28,4.22h0A4.25,4.25,0,0,1,1379,643.2Z"/><g id="_Grupo_" data-name="&lt;Grupo&gt;"><path id="_Trazado_compuesto_2" data-name="&lt;Trazado compuesto&gt;" class="cls-5" d="M1815.61,669.13a4.24,4.24,0,0,1,4.27-4.22h0a4.25,4.25,0,0,1,4.23,4.28h0a4.26,4.26,0,0,1-4.3,4.22h0A4.24,4.24,0,0,1,1815.61,669.13Zm-43.72-.34a4.24,4.24,0,0,1,4.28-4.22h0a4.25,4.25,0,0,1,4.22,4.28h0a4.26,4.26,0,0,1-4.28,4.22h0A4.25,4.25,0,0,1,1771.88,668.78Zm-43.72-.34a4.24,4.24,0,0,1,4.28-4.22h0a4.25,4.25,0,0,1,4.22,4.28h0a4.26,4.26,0,0,1-4.28,4.22h0A4.25,4.25,0,0,1,1728.16,668.44Zm-43.72-.34a4.24,4.24,0,0,1,4.28-4.22h0a4.25,4.25,0,0,1,4.22,4.28h0a4.26,4.26,0,0,1-4.28,4.22h0A4.25,4.25,0,0,1,1684.44,668.1Zm-43.72-.34a4.24,4.24,0,0,1,4.28-4.22h0a4.24,4.24,0,0,1,4.2,4.28h0a4.24,4.24,0,0,1-4.27,4.22h0A4.25,4.25,0,0,1,1640.71,667.76Zm-43.72-.34a4.24,4.24,0,0,1,4.28-4.22h0a4.25,4.25,0,0,1,4.22,4.28h0a4.26,4.26,0,0,1-4.28,4.22h0A4.25,4.25,0,0,1,1597,667.41Zm-43.72-.34a4.24,4.24,0,0,1,4.28-4.22h0a4.25,4.25,0,0,1,4.22,4.28h0a4.26,4.26,0,0,1-4.28,4.22h0A4.25,4.25,0,0,1,1553.27,667.07Zm-43.74-.34a4.25,4.25,0,0,1,4.3-4.22h0a4.25,4.25,0,0,1,4.22,4.28h0a4.26,4.26,0,0,1-4.28,4.22h0A4.26,4.26,0,0,1,1509.53,666.73Zm-43.71-.34a4.24,4.24,0,0,1,4.28-4.22h0a4.25,4.25,0,0,1,4.22,4.28h0a4.26,4.26,0,0,1-4.28,4.22h0A4.25,4.25,0,0,1,1465.82,666.38ZM1422.1,666a4.24,4.24,0,0,1,4.28-4.22h0a4.25,4.25,0,0,1,4.22,4.28h0a4.26,4.26,0,0,1-4.28,4.22h0A4.25,4.25,0,0,1,1422.1,666Zm-43.72-.34a4.24,4.24,0,0,1,4.28-4.22h0a4.25,4.25,0,0,1,4.22,4.28h0a4.26,4.26,0,0,1-4.28,4.22h0A4.25,4.25,0,0,1,1378.38,665.7Z"/></g><g id="_Grupo_2" data-name="&lt;Grupo&gt;"><path id="_Trazado_compuesto_3" data-name="&lt;Trazado compuesto&gt;" class="cls-5" d="M1815.17,693.37a4.24,4.24,0,0,1,4.27-4.22h0a4.25,4.25,0,0,1,4.23,4.28h0a4.26,4.26,0,0,1-4.3,4.22h0A4.24,4.24,0,0,1,1815.17,693.37Zm-43.72-.34a4.24,4.24,0,0,1,4.28-4.22h0a4.25,4.25,0,0,1,4.22,4.28h0a4.26,4.26,0,0,1-4.28,4.22h0A4.25,4.25,0,0,1,1771.44,693Zm-43.72-.34a4.24,4.24,0,0,1,4.28-4.22h0a4.25,4.25,0,0,1,4.22,4.28h0a4.26,4.26,0,0,1-4.28,4.22h0A4.25,4.25,0,0,1,1727.72,692.69Zm-43.72-.34a4.24,4.24,0,0,1,4.28-4.22h0a4.25,4.25,0,0,1,4.22,4.28h0a4.26,4.26,0,0,1-4.28,4.22h0A4.25,4.25,0,0,1,1684,692.34Zm-43.72-.34a4.24,4.24,0,0,1,4.28-4.22h0a4.24,4.24,0,0,1,4.2,4.28h0a4.24,4.24,0,0,1-4.27,4.22h0A4.25,4.25,0,0,1,1640.27,692Zm-43.72-.34a4.24,4.24,0,0,1,4.28-4.22h0a4.25,4.25,0,0,1,4.22,4.28h0a4.26,4.26,0,0,1-4.28,4.22h0A4.25,4.25,0,0,1,1596.55,691.66Zm-43.72-.34a4.24,4.24,0,0,1,4.28-4.22h0a4.25,4.25,0,0,1,4.22,4.28h0a4.26,4.26,0,0,1-4.28,4.22h0A4.25,4.25,0,0,1,1552.83,691.31Zm-43.74-.34a4.25,4.25,0,0,1,4.3-4.22h0a4.25,4.25,0,0,1,4.22,4.28h0a4.26,4.26,0,0,1-4.28,4.22h0A4.26,4.26,0,0,1,1509.09,691Zm-43.71-.34a4.24,4.24,0,0,1,4.28-4.22h0a4.25,4.25,0,0,1,4.22,4.28h0a4.26,4.26,0,0,1-4.28,4.22h0A4.25,4.25,0,0,1,1465.38,690.63Zm-43.72-.34a4.24,4.24,0,0,1,4.28-4.22h0a4.25,4.25,0,0,1,4.22,4.28h0a4.26,4.26,0,0,1-4.28,4.22h0A4.25,4.25,0,0,1,1421.66,690.28Zm-43.72-.34a4.24,4.24,0,0,1,4.28-4.22h0a4.25,4.25,0,0,1,4.22,4.28h0a4.26,4.26,0,0,1-4.28,4.22h0A4.25,4.25,0,0,1,1377.94,689.94Z"/></g><g id="_Grupo_3" data-name="&lt;Grupo&gt;"><path id="_Trazado_compuesto_4" data-name="&lt;Trazado compuesto&gt;" class="cls-5" d="M1814.9,715.37a4.24,4.24,0,0,1,4.27-4.22h0a4.25,4.25,0,0,1,4.23,4.28h0a4.26,4.26,0,0,1-4.3,4.22h0A4.24,4.24,0,0,1,1814.9,715.37Zm-43.72-.34a4.24,4.24,0,0,1,4.28-4.22h0a4.25,4.25,0,0,1,4.22,4.28h0a4.26,4.26,0,0,1-4.28,4.22h0A4.25,4.25,0,0,1,1771.18,715Zm-43.72-.34a4.24,4.24,0,0,1,4.28-4.22h0a4.25,4.25,0,0,1,4.22,4.28h0a4.26,4.26,0,0,1-4.28,4.22h0A4.25,4.25,0,0,1,1727.45,714.68Zm-43.72-.34a4.24,4.24,0,0,1,4.28-4.22h0a4.25,4.25,0,0,1,4.22,4.28h0a4.26,4.26,0,0,1-4.28,4.22h0A4.25,4.25,0,0,1,1683.73,714.34ZM1640,714a4.24,4.24,0,0,1,4.28-4.22h0a4.24,4.24,0,0,1,4.2,4.28h0a4.24,4.24,0,0,1-4.27,4.22h0A4.25,4.25,0,0,1,1640,714Zm-43.72-.34a4.24,4.24,0,0,1,4.28-4.22h0a4.25,4.25,0,0,1,4.22,4.28h0a4.26,4.26,0,0,1-4.28,4.22h0A4.25,4.25,0,0,1,1596.29,713.65Zm-43.72-.34a4.24,4.24,0,0,1,4.28-4.22h0a4.25,4.25,0,0,1,4.22,4.28h0a4.26,4.26,0,0,1-4.28,4.22h0A4.25,4.25,0,0,1,1552.56,713.31Zm-43.74-.34a4.25,4.25,0,0,1,4.3-4.22h0a4.25,4.25,0,0,1,4.22,4.28h0a4.26,4.26,0,0,1-4.28,4.22h0A4.26,4.26,0,0,1,1508.83,713Zm-43.71-.34a4.24,4.24,0,0,1,4.28-4.22h0a4.25,4.25,0,0,1,4.22,4.28h0a4.26,4.26,0,0,1-4.28,4.22h0A4.25,4.25,0,0,1,1465.12,712.62Zm-43.72-.34a4.24,4.24,0,0,1,4.28-4.22h0a4.25,4.25,0,0,1,4.22,4.28h0a4.26,4.26,0,0,1-4.28,4.22h0A4.25,4.25,0,0,1,1421.39,712.28Zm-43.72-.34a4.24,4.24,0,0,1,4.28-4.22h0a4.25,4.25,0,0,1,4.22,4.28h0a4.26,4.26,0,0,1-4.28,4.22h0A4.25,4.25,0,0,1,1377.67,711.94Z"/></g><path class="cls-6" d="M1813.26,76.76l-1.19,1.72a144.34,144.34,0,0,0-16.62,32.47q-1.51,3.88-5.75,16-1.37,4-2.39,6.75t-1.44,2.74q-1,0-1-6.68,0-4,.14-7.95t.27-7.42q.68-11.75.68-22a91.29,91.29,0,0,0-1-15q-1-5.41-3.42-5.41-4.38,0-9.3,6.68A217.94,217.94,0,0,0,1760,98.12q-5.06,8.69-7.66,12.63t-4.38,3.94q-1.23,0-1.64-4t-.41-10.82l.14-13.63a20.13,20.13,0,0,0-.14-3.34q-.41-2.27-2.19-2.27l-1.23.27q.55.54.55,5.08l-.14,10.15a91.71,91.71,0,0,0,1,14.83q1,5.61,3.69,5.61,2.32,0,5.81-5.08t9.51-15.63q6.43-11,10.12-16.23t6.16-5.28q1.78,0,2.53,4.21a72.47,72.47,0,0,1,.75,12q0,7.62-.41,16.3-.14,2.94-.27,7.08t-.14,9.22q0,15.63,3.15,15.63,1.91,0,3.08-2.34a92.36,92.36,0,0,0,3.49-9q3-8.95,4.92-14a146,146,0,0,1,17.17-33.87l.49-.7A3.65,3.65,0,0,1,1813.26,76.76Z"/><path class="cls-6" d="M1873.27,39.3q-1.71-5.61-5.13-7.21,5.06,8.42,5.06,24.58A120.21,120.21,0,0,1,1869,86.19,126.74,126.74,0,0,1,1858.77,114q-6.09,11.49-11.15,11.49-3.56,0-5.61-4.88a47.26,47.26,0,0,1-3-11.82q-1-6.95-2.05-18.71a208.6,208.6,0,0,0-2.74-22.38q-1.51-7.41-5.2-7.42-4.24,0-9.23,5.88a50.09,50.09,0,0,0-8.41,15c-.18.47-.34.95-.5,1.42a4.27,4.27,0,0,1,.66-.09,3,3,0,0,1,1,.15l.16-.49a48.08,48.08,0,0,1,7.46-14.43q4.44-5.61,8.55-5.61,1.78,0,2.6,5t1.64,16q.82,13,2.05,21.84a52.57,52.57,0,0,0,4.31,15.36q3.08,6.48,8.55,6.48,6.43,0,12.72-12.16t10.33-29.59a141.44,141.44,0,0,0,4-31.6A49.48,49.48,0,0,0,1873.27,39.3Z"/><ellipse class="cls-6" cx="1745.06" cy="83.06" rx="5.54" ry="5.41"/><ellipse class="cls-6" cx="1869.28" cy="33.56" rx="5.54" ry="5.41"/><ellipse class="cls-6" cx="1812.44" cy="80.05" rx="5.54" ry="5.41"/><text class="cls-7" transform="translate(1739.29 162.85) scale(1.02 1)">Web-Nica</text></svg>