<svg id="Capa_1" data-name="Capa 1" xmlns="http://www.w3.org/2000/svg" xmlns:xlink="http://www.w3.org/1999/xlink" viewBox="0 0 1920 775"><defs><style>.cls-1{fill:none;}.cls-2{fill:#1d71b7;}.cls-3,.cls-5{fill:#520962;}.cls-3{opacity:0.22;}.cls-4{clip-path:url(#clip-path);}.cls-6{fill:#04c38f;}.cls-7,.cls-8{fill:#fff;}.cls-8{font-size:29.27px;font-family:MajoramSans, Majoram Sans;}</style><clipPath id="clip-path"><path class="cls-1" d="M1441-14,937.17,494s-152,116.59-124.92,301.9L1553.46,798l374.77-385.18,6.25-422.66Z"/></clipPath></defs><title>Sliders</title><rect class="cls-2" x="-15.28" y="-12.22" width="1952.28" height="828.08"/><rect class="cls-3" x="-13.98" y="283.96" width="766" height="104" rx="51" ry="51" transform="translate(867.52 312.59) rotate(135)"/><g class="cls-4"><image width="1920" height="1390" transform="translate(762.96 -76.85) scale(0.61)" xlink:href="../../../../Downloads/laptop-1149412_1920 (1).jpg"/></g><rect class="cls-3" x="801.85" y="100" width="766" height="104" rx="51" ry="51" transform="translate(2130.15 -578.34) rotate(135)"/><rect class="cls-5" x="81.4" y="-133.04" width="766" height="288.94" rx="140.25" ry="140.25" transform="translate(800.86 -308.87) rotate(135)"/><rect class="cls-5" x="1749.77" y="499.65" width="270.04" height="102" rx="51" ry="51" transform="translate(3606.9 -392.73) rotate(135)"/><path id="_Trazado_compuesto_" data-name="&lt;Trazado compuesto&gt;" class="cls-6" d="M1147.57,155a4.24,4.24,0,0,1,4.28-4.2h0a4.25,4.25,0,0,1,4.22,4.3h0a4.26,4.26,0,0,1-4.31,4.2h0A4.24,4.24,0,0,1,1147.57,155Zm-43.72-.48a4.24,4.24,0,0,1,4.3-4.2h0a4.25,4.25,0,0,1,4.2,4.3h0a4.26,4.26,0,0,1-4.3,4.2h0A4.25,4.25,0,0,1,1103.84,154.53Zm-43.72-.48a4.24,4.24,0,0,1,4.3-4.2h0a4.25,4.25,0,0,1,4.2,4.3h0a4.26,4.26,0,0,1-4.3,4.2h0A4.25,4.25,0,0,1,1060.12,154Zm-43.72-.48a4.24,4.24,0,0,1,4.3-4.2h0a4.25,4.25,0,0,1,4.2,4.3h0a4.26,4.26,0,0,1-4.3,4.2h0A4.25,4.25,0,0,1,1016.4,153.57Zm-43.72-.48a4.24,4.24,0,0,1,4.3-4.2h0a4.24,4.24,0,0,1,4.19,4.3h0a4.24,4.24,0,0,1-4.28,4.2h0A4.25,4.25,0,0,1,972.68,153.09ZM929,152.61a4.24,4.24,0,0,1,4.3-4.2h0a4.25,4.25,0,0,1,4.2,4.3h0a4.26,4.26,0,0,1-4.3,4.2h0A4.25,4.25,0,0,1,929,152.61Zm-43.72-.48a4.24,4.24,0,0,1,4.3-4.2h0a4.25,4.25,0,0,1,4.2,4.3h0a4.26,4.26,0,0,1-4.3,4.2h0A4.25,4.25,0,0,1,885.23,152.12Zm-43.73-.48a4.25,4.25,0,0,1,4.31-4.2h0a4.25,4.25,0,0,1,4.2,4.3h0a4.26,4.26,0,0,1-4.3,4.2h0A4.26,4.26,0,0,1,841.5,151.64Zm-43.71-.48a4.24,4.24,0,0,1,4.3-4.2h0a4.25,4.25,0,0,1,4.2,4.3h0a4.26,4.26,0,0,1-4.3,4.2h0A4.25,4.25,0,0,1,797.79,151.16Zm-43.72-.48a4.24,4.24,0,0,1,4.3-4.2h0a4.25,4.25,0,0,1,4.2,4.3h0a4.26,4.26,0,0,1-4.3,4.2h0A4.25,4.25,0,0,1,754.07,150.68Zm-43.72-.48a4.24,4.24,0,0,1,4.3-4.2h0a4.25,4.25,0,0,1,4.2,4.3h0a4.26,4.26,0,0,1-4.3,4.2h0A4.25,4.25,0,0,1,710.35,150.2Z"/><g id="_Grupo_" data-name="&lt;Grupo&gt;"><path id="_Trazado_compuesto_2" data-name="&lt;Trazado compuesto&gt;" class="cls-6" d="M1146.86,177.5a4.24,4.24,0,0,1,4.28-4.2h0a4.25,4.25,0,0,1,4.22,4.3h0a4.26,4.26,0,0,1-4.31,4.2h0A4.24,4.24,0,0,1,1146.86,177.5Zm-43.72-.48a4.24,4.24,0,0,1,4.3-4.2h0a4.25,4.25,0,0,1,4.2,4.3h0a4.26,4.26,0,0,1-4.3,4.2h0A4.25,4.25,0,0,1,1103.14,177Zm-43.72-.48a4.24,4.24,0,0,1,4.3-4.2h0a4.25,4.25,0,0,1,4.2,4.3h0a4.26,4.26,0,0,1-4.3,4.2h0A4.25,4.25,0,0,1,1059.42,176.54Zm-43.72-.48a4.24,4.24,0,0,1,4.3-4.2h0a4.25,4.25,0,0,1,4.2,4.3h0a4.26,4.26,0,0,1-4.3,4.2h0A4.25,4.25,0,0,1,1015.7,176.06ZM972,175.58a4.24,4.24,0,0,1,4.3-4.2h0a4.24,4.24,0,0,1,4.19,4.3h0a4.24,4.24,0,0,1-4.28,4.2h0A4.25,4.25,0,0,1,972,175.58Zm-43.72-.48a4.24,4.24,0,0,1,4.3-4.2h0a4.25,4.25,0,0,1,4.2,4.3h0a4.26,4.26,0,0,1-4.3,4.2h0A4.25,4.25,0,0,1,928.26,175.1Zm-43.72-.48a4.24,4.24,0,0,1,4.3-4.2h0a4.25,4.25,0,0,1,4.2,4.3h0a4.26,4.26,0,0,1-4.3,4.2h0A4.25,4.25,0,0,1,884.53,174.62Zm-43.73-.48a4.25,4.25,0,0,1,4.31-4.2h0a4.25,4.25,0,0,1,4.2,4.3h0a4.26,4.26,0,0,1-4.3,4.2h0A4.26,4.26,0,0,1,840.8,174.14Zm-43.71-.48a4.24,4.24,0,0,1,4.3-4.2h0a4.25,4.25,0,0,1,4.2,4.3h0a4.26,4.26,0,0,1-4.3,4.2h0A4.25,4.25,0,0,1,797.09,173.65Zm-43.72-.48a4.24,4.24,0,0,1,4.3-4.2h0a4.25,4.25,0,0,1,4.2,4.3h0a4.26,4.26,0,0,1-4.3,4.2h0A4.25,4.25,0,0,1,753.37,173.17Zm-43.72-.48a4.24,4.24,0,0,1,4.3-4.2h0a4.25,4.25,0,0,1,4.2,4.3h0a4.26,4.26,0,0,1-4.3,4.2h0A4.25,4.25,0,0,1,709.65,172.69Z"/></g><g id="_Grupo_2" data-name="&lt;Grupo&gt;"><path id="_Trazado_compuesto_3" data-name="&lt;Trazado compuesto&gt;" class="cls-6" d="M1146.35,201.75a4.24,4.24,0,0,1,4.28-4.2h0a4.25,4.25,0,0,1,4.22,4.3h0a4.26,4.26,0,0,1-4.31,4.2h0A4.24,4.24,0,0,1,1146.35,201.75Zm-43.72-.48a4.24,4.24,0,0,1,4.3-4.2h0a4.25,4.25,0,0,1,4.2,4.3h0a4.26,4.26,0,0,1-4.3,4.2h0A4.25,4.25,0,0,1,1102.63,201.27Zm-43.72-.48a4.24,4.24,0,0,1,4.3-4.2h0a4.25,4.25,0,0,1,4.2,4.3h0a4.26,4.26,0,0,1-4.3,4.2h0A4.25,4.25,0,0,1,1058.91,200.79Zm-43.72-.48a4.24,4.24,0,0,1,4.3-4.2h0a4.25,4.25,0,0,1,4.2,4.3h0a4.26,4.26,0,0,1-4.3,4.2h0A4.25,4.25,0,0,1,1015.18,200.3Zm-43.72-.48a4.24,4.24,0,0,1,4.3-4.2h0a4.24,4.24,0,0,1,4.19,4.3h0a4.24,4.24,0,0,1-4.28,4.2h0A4.25,4.25,0,0,1,971.46,199.82Zm-43.72-.48a4.24,4.24,0,0,1,4.3-4.2h0a4.25,4.25,0,0,1,4.2,4.3h0a4.26,4.26,0,0,1-4.3,4.2h0A4.25,4.25,0,0,1,927.74,199.34ZM884,198.86a4.24,4.24,0,0,1,4.3-4.2h0a4.25,4.25,0,0,1,4.2,4.3h0a4.26,4.26,0,0,1-4.3,4.2h0A4.25,4.25,0,0,1,884,198.86Zm-43.73-.48a4.25,4.25,0,0,1,4.31-4.2h0a4.25,4.25,0,0,1,4.2,4.3h0a4.26,4.26,0,0,1-4.3,4.2h0A4.26,4.26,0,0,1,840.28,198.38Zm-43.71-.48a4.24,4.24,0,0,1,4.3-4.2h0a4.25,4.25,0,0,1,4.2,4.3h0a4.26,4.26,0,0,1-4.3,4.2h0A4.25,4.25,0,0,1,796.57,197.9Zm-43.72-.48a4.24,4.24,0,0,1,4.3-4.2h0a4.25,4.25,0,0,1,4.2,4.3h0a4.26,4.26,0,0,1-4.3,4.2h0A4.25,4.25,0,0,1,752.85,197.42Zm-43.72-.48a4.24,4.24,0,0,1,4.3-4.2h0a4.25,4.25,0,0,1,4.2,4.3h0a4.26,4.26,0,0,1-4.3,4.2h0A4.25,4.25,0,0,1,709.13,196.94Z"/></g><g id="_Grupo_3" data-name="&lt;Grupo&gt;"><path id="_Trazado_compuesto_4" data-name="&lt;Trazado compuesto&gt;" class="cls-6" d="M1146,223.74a4.24,4.24,0,0,1,4.28-4.2h0a4.25,4.25,0,0,1,4.22,4.3h0a4.26,4.26,0,0,1-4.31,4.2h0A4.24,4.24,0,0,1,1146,223.74Zm-43.72-.48a4.24,4.24,0,0,1,4.3-4.2h0a4.25,4.25,0,0,1,4.2,4.3h0a4.26,4.26,0,0,1-4.3,4.2h0A4.25,4.25,0,0,1,1102.29,223.26Zm-43.72-.48a4.24,4.24,0,0,1,4.3-4.2h0a4.25,4.25,0,0,1,4.2,4.3h0a4.26,4.26,0,0,1-4.3,4.2h0A4.25,4.25,0,0,1,1058.57,222.78Zm-43.72-.48a4.24,4.24,0,0,1,4.3-4.2h0a4.25,4.25,0,0,1,4.2,4.3h0a4.26,4.26,0,0,1-4.3,4.2h0A4.25,4.25,0,0,1,1014.85,222.3Zm-43.72-.48a4.24,4.24,0,0,1,4.3-4.2h0a4.24,4.24,0,0,1,4.19,4.3h0a4.24,4.24,0,0,1-4.28,4.2h0A4.25,4.25,0,0,1,971.13,221.82Zm-43.72-.48a4.24,4.24,0,0,1,4.3-4.2h0a4.25,4.25,0,0,1,4.2,4.3h0a4.26,4.26,0,0,1-4.3,4.2h0A4.25,4.25,0,0,1,927.4,221.34Zm-43.72-.48a4.24,4.24,0,0,1,4.3-4.2h0a4.25,4.25,0,0,1,4.2,4.3h0a4.26,4.26,0,0,1-4.3,4.2h0A4.25,4.25,0,0,1,883.68,220.86Zm-43.73-.48a4.25,4.25,0,0,1,4.31-4.2h0a4.25,4.25,0,0,1,4.2,4.3h0a4.26,4.26,0,0,1-4.3,4.2h0A4.26,4.26,0,0,1,839.95,220.38Zm-43.71-.48a4.24,4.24,0,0,1,4.3-4.2h0a4.25,4.25,0,0,1,4.2,4.3h0a4.26,4.26,0,0,1-4.3,4.2h0A4.25,4.25,0,0,1,796.24,219.89Zm-43.72-.48a4.24,4.24,0,0,1,4.3-4.2h0a4.25,4.25,0,0,1,4.2,4.3h0a4.26,4.26,0,0,1-4.3,4.2h0A4.25,4.25,0,0,1,752.52,219.41Zm-43.72-.48a4.24,4.24,0,0,1,4.3-4.2h0a4.25,4.25,0,0,1,4.2,4.3h0a4.26,4.26,0,0,1-4.3,4.2h0A4.25,4.25,0,0,1,708.79,218.93Z"/></g><path class="cls-7" d="M114.74,660.25,113.56,662a144.34,144.34,0,0,0-16.62,32.47q-1.51,3.88-5.75,16-1.37,4-2.39,6.75T87.36,720q-1,0-1-6.68,0-4,.14-7.95t.27-7.42q.68-11.75.68-22a91.29,91.29,0,0,0-1-15q-1-5.41-3.42-5.41-4.38,0-9.3,6.68a217.94,217.94,0,0,0-12.31,19.51q-5.06,8.69-7.66,12.63t-4.38,3.94q-1.23,0-1.64-4t-.41-10.82l.14-13.63a20.13,20.13,0,0,0-.14-3.34q-.41-2.27-2.19-2.27l-1.23.27q.55.54.55,5.08l-.14,10.15a91.71,91.71,0,0,0,1,14.83q1,5.61,3.69,5.61,2.32,0,5.81-5.08t9.51-15.63q6.43-11,10.12-16.23t6.16-5.28q1.78,0,2.53,4.21a72.47,72.47,0,0,1,.75,12q0,7.62-.41,16.3-.14,2.94-.27,7.08t-.14,9.22q0,15.63,3.15,15.63,1.91,0,3.08-2.34a92.36,92.36,0,0,0,3.49-9q3-8.95,4.92-14A146,146,0,0,1,114.93,663l.49-.7A3.65,3.65,0,0,1,114.74,660.25Z"/><path class="cls-7" d="M174.76,622.79q-1.71-5.61-5.13-7.21,5.06,8.42,5.06,24.58a120.21,120.21,0,0,1-4.17,29.53,126.74,126.74,0,0,1-10.26,27.79Q154.17,709,149.11,709q-3.56,0-5.61-4.88a47.26,47.26,0,0,1-3-11.82q-1-6.95-2.05-18.71a208.6,208.6,0,0,0-2.74-22.38q-1.51-7.41-5.2-7.42-4.24,0-9.23,5.88a50.09,50.09,0,0,0-8.41,15c-.18.47-.34.95-.5,1.42A4.27,4.27,0,0,1,113,666a3,3,0,0,1,1,.15l.16-.49a48.08,48.08,0,0,1,7.46-14.43q4.44-5.61,8.55-5.61,1.78,0,2.6,5t1.64,16q.82,13,2.05,21.84a52.57,52.57,0,0,0,4.31,15.36q3.08,6.48,8.55,6.48,6.43,0,12.72-12.16t10.33-29.59a141.44,141.44,0,0,0,4-31.6A49.48,49.48,0,0,0,174.76,622.79Z"/><ellipse class="cls-7" cx="46.54" cy="666.55" rx="5.54" ry="5.41"/><ellipse class="cls-7" cx="170.76" cy="617.05" rx="5.54" ry="5.41"/><ellipse class="cls-7" cx="113.92" cy="663.54" rx="5.54" ry="5.41"/><text class="cls-8" transform="translate(40.77 746.35) scale(1.02 1)">Web-Nica</text></svg>